<?xml version="1.0" encoding="UTF-8" standalone="no"?>
<!DOCTYPE svg PUBLIC "-//W3C//DTD SVG 1.1//EN" "http://www.w3.org/Graphics/SVG/1.1/DTD/svg11.dtd">
<svg width="100%" height="100%" viewBox="0 0 120 120" version="1.1" xmlns="http://www.w3.org/2000/svg" xmlns:xlink="http://www.w3.org/1999/xlink" xml:space="preserve" xmlns:serif="http://www.serif.com/" style="fill-rule:evenodd;clip-rule:evenodd;stroke-linejoin:round;stroke-miterlimit:2;">
    <g>
        <g transform="matrix(7.77551,0,0,7.77551,-0.000367864,-813.104)">
            <path d="M0,112.29C0,108.028 3.455,104.573 7.717,104.573C9.763,104.573 11.726,105.386 13.173,106.833C14.62,108.281 15.433,110.243 15.433,112.29C15.433,116.552 11.978,120.006 7.717,120.006C3.455,120.006 0,116.552 0,112.29Z" style="fill:url(#_Linear1);"/>
        </g>
        <g transform="matrix(7.77551,0,0,7.77551,7.49677,-807.765)">
            <path d="M10.838,113.486C10.672,114.101 10.401,114.606 10.026,115.002C9.651,115.397 9.203,115.689 8.682,115.877C8.172,116.054 7.609,116.142 6.995,116.142C6.099,116.142 5.328,115.96 4.682,115.595C4.036,115.231 3.536,114.715 3.182,114.048C2.838,113.371 2.666,112.559 2.666,111.611C2.666,110.653 2.838,109.84 3.182,109.173C3.536,108.496 4.036,107.976 4.682,107.611C5.328,107.246 6.094,107.064 6.979,107.064C7.594,107.064 8.156,107.153 8.666,107.33C9.187,107.507 9.625,107.772 9.979,108.127C10.333,108.481 10.583,108.939 10.729,109.502L8.729,110.314C8.604,109.762 8.401,109.387 8.12,109.189C7.838,108.981 7.484,108.877 7.057,108.877C6.64,108.877 6.276,108.981 5.963,109.189C5.661,109.387 5.427,109.689 5.26,110.095C5.104,110.502 5.026,111.007 5.026,111.611C5.026,112.205 5.099,112.705 5.245,113.111C5.401,113.517 5.63,113.824 5.932,114.033C6.234,114.231 6.614,114.33 7.073,114.33C7.5,114.33 7.859,114.215 8.151,113.986C8.453,113.746 8.656,113.382 8.76,112.892L10.838,113.486Z" style="fill:white;fill-rule:nonzero;"/>
        </g>
    </g>
    <defs>
        <linearGradient id="_Linear1" x1="0" y1="0" x2="1" y2="0" gradientUnits="userSpaceOnUse" gradientTransform="matrix(15.433,15.4331,-15.4331,15.433,-7.71648,112.29)"><stop offset="0" style="stop-color:rgb(255,0,0);stop-opacity:1"/><stop offset="1" style="stop-color:rgb(184,0,130);stop-opacity:1"/></linearGradient>
    </defs>
</svg>
