<?xml version="1.0" encoding="UTF-8" standalone="no"?>
<!DOCTYPE svg PUBLIC "-//W3C//DTD SVG 1.1//EN" "http://www.w3.org/Graphics/SVG/1.1/DTD/svg11.dtd">
<svg width="100%" height="100%" viewBox="0 0 120 120" version="1.1" xmlns="http://www.w3.org/2000/svg" xmlns:xlink="http://www.w3.org/1999/xlink" xml:space="preserve" xmlns:serif="http://www.serif.com/" style="fill-rule:evenodd;clip-rule:evenodd;stroke-linejoin:round;stroke-miterlimit:2;">
    <g transform="matrix(6.59134,0,0,6.59134,9.78338,-132.073)">
        <path d="M15.134,27.762C15.118,27.675 15.118,27.566 15.134,27.427C15.15,27.309 15.173,27.196 15.198,27.093C15.224,26.991 15.237,26.843 15.237,26.653C15.237,26.55 15.224,26.441 15.198,26.319C15.173,26.2 15.16,26.046 15.16,25.856C15.144,25.77 15.137,25.654 15.147,25.509C15.157,25.362 15.15,25.194 15.134,25.005L15.134,24.131C15.134,23.993 15.124,23.848 15.108,23.694C15.092,23.54 15.083,23.392 15.083,23.254C15.083,23.099 15.086,22.955 15.096,22.817C15.105,22.679 15.108,22.544 15.108,22.405C15.108,22.2 15.105,22.023 15.096,21.878C15.086,21.731 15.092,21.615 15.108,21.528C15.108,21.461 15.105,21.371 15.096,21.258C15.086,21.149 15.08,21.037 15.07,20.924C15.06,20.812 15.054,20.709 15.044,20.616C15.035,20.522 15.022,20.465 15.006,20.449C14.97,20.346 14.826,20.259 14.569,20.192C14.533,20.172 14.504,20.159 14.479,20.153C14.453,20.143 14.414,20.134 14.36,20.127C14.308,20.118 14.231,20.114 14.128,20.114L12.715,20.114C12.576,20.114 12.435,20.102 12.287,20.076C12.143,20.05 11.976,20.037 11.786,20.037C11.632,20.037 11.503,20.05 11.4,20.076C11.298,20.102 11.201,20.114 11.118,20.114C10.928,20.114 10.8,20.108 10.729,20.102C10.661,20.092 10.568,20.121 10.446,20.192C10.327,20.243 10.241,20.326 10.189,20.449C10.154,20.516 10.134,20.59 10.125,20.667C10.115,20.744 10.112,20.947 10.112,21.271C10.112,21.461 10.122,21.637 10.138,21.801C10.154,21.962 10.163,22.062 10.163,22.097C10.163,22.113 10.16,22.19 10.15,22.328C10.141,22.466 10.134,22.621 10.125,22.791C10.115,22.964 10.112,23.122 10.112,23.267L10.112,23.565C10.112,23.7 10.099,23.832 10.073,23.951C10.048,24.07 10.045,24.182 10.061,24.285C10.061,24.475 10.073,24.632 10.099,24.761C10.125,24.889 10.147,24.979 10.163,25.031C10.179,25.153 10.192,25.252 10.202,25.329C10.211,25.407 10.205,25.513 10.189,25.651C10.154,25.789 10.125,25.917 10.099,26.036C10.073,26.155 10.07,26.345 10.086,26.602C10.086,26.724 10.096,26.843 10.112,26.965C10.128,27.084 10.138,27.212 10.138,27.35C10.138,27.489 10.128,27.617 10.112,27.736C10.096,27.855 10.086,27.983 10.086,28.122C10.086,28.244 10.109,28.363 10.15,28.481C10.192,28.604 10.215,28.732 10.215,28.87C10.215,29.008 10.202,29.137 10.176,29.256C10.15,29.375 10.128,29.497 10.112,29.616C10.112,29.754 10.128,29.882 10.163,30.001C10.199,30.123 10.205,30.252 10.189,30.39C10.189,30.596 10.176,30.814 10.15,31.046C10.125,31.277 10.112,31.463 10.112,31.598C10.112,31.855 10.109,32.071 10.099,32.244C10.089,32.414 10.061,32.578 10.009,32.733C9.958,32.887 9.884,33.038 9.791,33.182C9.694,33.33 9.562,33.497 9.392,33.684C9.305,33.806 9.232,33.896 9.17,33.957C9.113,34.015 9.013,34.088 8.875,34.175C8.721,34.243 8.602,34.294 8.515,34.329C8.428,34.365 8.345,34.39 8.258,34.407C8.171,34.423 8.084,34.432 8.001,34.432L7.641,34.432C7.416,34.468 7.262,34.5 7.175,34.535C7.092,34.57 7.005,34.57 6.918,34.535C6.867,34.519 6.812,34.48 6.751,34.419C6.69,34.358 6.635,34.329 6.584,34.329C6.24,34.262 5.932,34.098 5.659,33.841C5.382,33.581 5.183,33.298 5.064,32.99C5.048,32.954 5,32.903 4.923,32.835C4.846,32.768 4.791,32.691 4.756,32.604C4.637,32.328 4.473,32.183 4.267,32.167C4.164,32.132 3.991,32.083 3.75,32.022C3.509,31.965 3.364,31.932 3.313,31.932L3.03,31.932C2.943,31.952 2.847,31.958 2.735,31.958L2.362,31.958C1.967,31.977 1.69,32.006 1.536,32.051C1.382,32.093 1.253,32.106 1.15,32.09C1.048,32.054 0.964,32.032 0.906,32.022C0.845,32.016 0.765,32.019 0.662,32.038L0.466,32.038C0.408,32.038 0.36,32.045 0.325,32.064C0.257,32.096 0.203,32.154 0.158,32.231C0.116,32.308 0.077,32.389 0.042,32.475C0.007,32.562 -0.006,32.681 0.003,32.835C0.013,32.99 0.035,33.163 0.068,33.349C0.103,33.436 0.119,33.552 0.119,33.696C0.119,33.841 0.145,33.986 0.196,34.124C0.283,34.329 0.427,34.586 0.636,34.895C0.842,35.203 1.028,35.428 1.202,35.563C1.253,35.615 1.305,35.682 1.356,35.759C1.407,35.836 1.449,35.907 1.485,35.978C1.571,36.116 1.687,36.238 1.832,36.35C1.979,36.463 2.102,36.534 2.204,36.569C2.24,36.604 2.291,36.659 2.362,36.736C2.429,36.813 2.506,36.887 2.593,36.955C2.78,37.093 2.905,37.18 2.966,37.212C3.027,37.247 3.117,37.282 3.236,37.314C3.287,37.334 3.351,37.327 3.429,37.302C3.506,37.276 3.564,37.282 3.596,37.314C3.631,37.35 3.67,37.385 3.711,37.42C3.756,37.453 3.811,37.488 3.878,37.523C3.949,37.555 4.01,37.594 4.062,37.639C4.113,37.681 4.155,37.71 4.19,37.729C4.222,37.764 4.258,37.783 4.293,37.793C4.325,37.803 4.351,37.816 4.37,37.832C4.402,37.832 4.479,37.854 4.601,37.896C4.72,37.938 4.868,37.976 5.038,38.012C5.177,38.047 5.305,38.073 5.424,38.089C5.546,38.105 5.659,38.124 5.761,38.14C5.829,38.14 5.893,38.127 5.954,38.102C6.012,38.076 6.051,38.073 6.07,38.089C6.102,38.105 6.147,38.131 6.198,38.166C6.25,38.182 6.343,38.208 6.481,38.243C6.465,38.227 6.455,38.201 6.455,38.166L6.455,38.089C6.712,38.124 6.982,38.153 7.265,38.179C7.551,38.205 7.821,38.217 8.078,38.217C8.3,38.217 8.486,38.208 8.631,38.192C8.775,38.176 8.859,38.166 8.875,38.166C8.91,38.166 8.962,38.156 9.029,38.14C9.1,38.124 9.177,38.105 9.264,38.089C9.434,38.053 9.588,38.041 9.726,38.05C9.861,38.06 9.983,38.053 10.086,38.037C10.276,38.002 10.424,37.947 10.536,37.87C10.649,37.793 10.748,37.729 10.832,37.678C10.935,37.607 11.073,37.539 11.246,37.472C11.349,37.42 11.471,37.366 11.619,37.314C11.764,37.263 11.924,37.186 12.095,37.083C12.217,37 12.339,36.913 12.467,36.826C12.596,36.743 12.731,36.646 12.869,36.543C13.004,36.457 13.129,36.322 13.242,36.132C13.354,35.942 13.47,35.753 13.589,35.563C13.624,35.512 13.666,35.454 13.717,35.383C13.769,35.316 13.81,35.264 13.846,35.229C13.932,35.146 14.035,35.023 14.154,34.869C14.276,34.715 14.353,34.561 14.385,34.407C14.421,34.355 14.443,34.294 14.453,34.227C14.459,34.156 14.482,34.105 14.517,34.072C14.601,33.969 14.671,33.806 14.723,33.581C14.774,33.359 14.816,33.153 14.851,32.964C14.867,32.723 14.903,32.517 14.954,32.347C15.006,32.173 15.047,32.038 15.083,31.932C15.118,31.849 15.137,31.752 15.147,31.65C15.157,31.547 15.16,31.351 15.16,31.058C15.144,30.869 15.131,30.689 15.121,30.519C15.112,30.345 15.108,30.217 15.108,30.13C15.092,30.046 15.092,29.911 15.108,29.731C15.124,29.551 15.134,29.368 15.134,29.179C15.169,28.902 15.195,28.69 15.211,28.533C15.227,28.379 15.221,28.234 15.185,28.096C15.169,27.958 15.15,27.849 15.134,27.762Z" style="fill:rgb(187,32,37);fill-rule:nonzero;"/>
    </g>
</svg>
