<svg width="109" height="39" viewBox="0 0 109 39" fill="none" xmlns="http://www.w3.org/2000/svg">
<g clip-path="url(#clip0_1_143)">
<path d="M15.1341 27.7617C15.118 27.6749 15.118 27.5657 15.1341 27.4275C15.1502 27.3086 15.1727 27.1962 15.1984 27.0934C15.2241 26.9905 15.2369 26.8427 15.2369 26.6532C15.2369 26.5503 15.2241 26.4411 15.1984 26.319C15.1727 26.2001 15.1598 26.0459 15.1598 25.8563C15.1437 25.7695 15.1373 25.6539 15.147 25.5093C15.1566 25.3615 15.1502 25.1944 15.1341 25.0048V24.1308C15.1341 23.9927 15.1245 23.8481 15.1084 23.6938C15.0923 23.5396 15.0827 23.3918 15.0827 23.2536C15.0827 23.0994 15.0859 22.9548 15.0955 22.8166C15.1052 22.6785 15.1084 22.5435 15.1084 22.4054C15.1084 22.1997 15.1052 22.023 15.0955 21.8784C15.0859 21.7306 15.0923 21.6149 15.1084 21.5282C15.1084 21.4607 15.1052 21.3707 15.0955 21.2583C15.0859 21.149 15.0795 21.0366 15.0698 20.9241C15.0602 20.8116 15.0538 20.7088 15.0441 20.6156C15.0345 20.5224 15.0216 20.4646 15.0056 20.4485C14.9702 20.3457 14.8256 20.259 14.5686 20.1915C14.5332 20.1722 14.5043 20.1594 14.4786 20.1529C14.4529 20.1433 14.4144 20.1337 14.3597 20.1272C14.3083 20.1176 14.2312 20.1144 14.1284 20.1144H12.7146C12.5764 20.1144 12.4351 20.1015 12.2872 20.0758C12.1427 20.0501 11.9756 20.0373 11.786 20.0373C11.6318 20.0373 11.5032 20.0501 11.4004 20.0758C11.2976 20.1015 11.2012 20.1144 11.1177 20.1144C10.9281 20.1144 10.7996 20.108 10.7289 20.1015C10.6614 20.0919 10.5682 20.1208 10.4461 20.1915C10.3272 20.2429 10.2405 20.3264 10.1891 20.4485C10.1537 20.516 10.1344 20.5899 10.1248 20.667C10.1152 20.7442 10.1119 20.9466 10.1119 21.2711C10.1119 21.4607 10.1216 21.6374 10.1376 21.8013C10.1537 21.9619 10.1634 22.0616 10.1634 22.0969C10.1634 22.113 10.1601 22.1901 10.1505 22.3282C10.1409 22.4664 10.1344 22.6206 10.1248 22.7909C10.1152 22.9644 10.1119 23.1219 10.1119 23.2665V23.5653C10.1119 23.7003 10.0991 23.832 10.0734 23.9509C10.0477 24.0698 10.0445 24.1822 10.0605 24.2851C10.0605 24.4746 10.0734 24.6321 10.0991 24.7606C10.1248 24.8891 10.1473 24.9791 10.1634 25.0305C10.1794 25.1526 10.1923 25.2522 10.2019 25.3293C10.2115 25.4065 10.2051 25.5125 10.1891 25.6507C10.1537 25.7888 10.1248 25.9173 10.0991 26.0362C10.0734 26.1551 10.0702 26.3447 10.0862 26.6017C10.0862 26.7238 10.0959 26.8427 10.1119 26.9648C10.128 27.0837 10.1376 27.2122 10.1376 27.3504C10.1376 27.4886 10.128 27.6171 10.1119 27.736C10.0959 27.8549 10.0862 27.9834 10.0862 28.1216C10.0862 28.2437 10.1087 28.3626 10.1505 28.4814C10.1923 28.6035 10.2148 28.7321 10.2148 28.8702C10.2148 29.0084 10.2019 29.1369 10.1762 29.2558C10.1505 29.3747 10.128 29.4968 10.1119 29.6157C10.1119 29.7539 10.128 29.8824 10.1634 30.0013C10.1987 30.1234 10.2051 30.2519 10.1891 30.3901C10.1891 30.5957 10.1762 30.8142 10.1505 31.0455C10.1248 31.2769 10.1119 31.4633 10.1119 31.5982C10.1119 31.8553 10.1087 32.0705 10.0991 32.2441C10.0894 32.4143 10.0605 32.5782 10.0091 32.7325C9.95771 32.8867 9.88381 33.0377 9.79062 33.1823C9.69423 33.3301 9.56249 33.4972 9.39219 33.6835C9.30544 33.8056 9.23153 33.8956 9.17049 33.9567C9.11265 34.0145 9.01304 34.0884 8.87487 34.1752C8.72064 34.2426 8.60176 34.294 8.515 34.3294C8.42825 34.3647 8.3447 34.3904 8.25795 34.4065C8.17119 34.4226 8.08444 34.4322 8.00089 34.4322H7.64102C7.4161 34.4676 7.26187 34.4997 7.17511 34.535C7.09157 34.5704 7.00482 34.5704 6.91806 34.535C6.86665 34.519 6.81203 34.4804 6.75098 34.4194C6.68993 34.3583 6.6353 34.3294 6.58389 34.3294C6.24008 34.2619 5.93162 34.098 5.6585 33.841C5.38217 33.5807 5.18295 33.298 5.06407 32.9895C5.048 32.9542 4.9998 32.9028 4.92269 32.8353C4.84557 32.7678 4.79095 32.6907 4.7556 32.6039C4.63672 32.3276 4.47285 32.183 4.2672 32.1669C4.16438 32.1316 3.99087 32.0834 3.74989 32.0223C3.5089 31.9645 3.36431 31.9324 3.3129 31.9324H3.03014C2.94338 31.9517 2.84699 31.9581 2.73453 31.9581H2.3618C1.96658 31.9774 1.69025 32.0063 1.53602 32.0513C1.38179 32.093 1.25326 32.1059 1.15044 32.0898C1.04762 32.0545 0.964077 32.032 0.90624 32.0223C0.84519 32.0159 0.764861 32.0191 0.66204 32.0384H0.466037C0.408201 32.0384 0.360003 32.0448 0.324658 32.0641C0.257182 32.0962 0.202558 32.1541 0.157574 32.2312C0.115803 32.3083 0.0772452 32.3886 0.0419005 32.4754C0.0065557 32.5622 -0.00629693 32.681 0.00334254 32.8353C0.012982 32.9895 0.0354741 33.163 0.0676057 33.3494C0.10295 33.4361 0.119016 33.5518 0.119016 33.6964C0.119016 33.841 0.144722 33.9856 0.196132 34.1237C0.282887 34.3294 0.42748 34.5864 0.636335 34.8949C0.841977 35.2034 1.02834 35.4283 1.20185 35.5632C1.25326 35.6147 1.30467 35.6821 1.35608 35.7592C1.40749 35.8364 1.44926 35.9071 1.48461 35.9777C1.57136 36.1159 1.68704 36.238 1.83163 36.3505C1.97944 36.4629 2.10154 36.5336 2.20436 36.569C2.2397 36.6043 2.29111 36.6589 2.3618 36.736C2.42928 36.8132 2.50639 36.8871 2.59315 36.9545C2.77951 37.0927 2.90482 37.1795 2.96587 37.2116C3.02693 37.2469 3.11689 37.2823 3.23578 37.3144C3.28719 37.3337 3.35145 37.3273 3.42857 37.3016C3.50569 37.2759 3.56352 37.2823 3.59565 37.3144C3.631 37.3498 3.66956 37.3851 3.71133 37.4205C3.75631 37.4526 3.81094 37.4879 3.87841 37.5233C3.9491 37.5554 4.01015 37.594 4.06156 37.6389C4.11297 37.6807 4.15474 37.7096 4.19009 37.7289C4.22222 37.7643 4.25757 37.7835 4.29291 37.7932C4.32504 37.8028 4.35075 37.8157 4.37003 37.8317C4.40216 37.8317 4.47927 37.8542 4.60137 37.896C4.72026 37.9378 4.86807 37.9763 5.03836 38.0117C5.17653 38.047 5.30505 38.0727 5.42394 38.0888C5.54604 38.1049 5.6585 38.1241 5.76132 38.1402C5.8288 38.1402 5.89306 38.1273 5.95411 38.1016C6.01195 38.0759 6.05051 38.0727 6.06979 38.0888C6.10192 38.1049 6.1469 38.1306 6.19831 38.1659C6.24972 38.182 6.34291 38.2077 6.48107 38.243C6.465 38.227 6.45537 38.2012 6.45537 38.1659V38.0888C6.71242 38.1241 6.98232 38.1531 7.26508 38.1788C7.55105 38.2045 7.82096 38.2173 8.07801 38.2173C8.29972 38.2173 8.48608 38.2077 8.63067 38.1916C8.77527 38.1755 8.85881 38.1659 8.87487 38.1659C8.91022 38.1659 8.96163 38.1563 9.02911 38.1402C9.0998 38.1241 9.17691 38.1049 9.26367 38.0888C9.43396 38.0534 9.5882 38.0406 9.72636 38.0502C9.86131 38.0599 9.98341 38.0534 10.0862 38.0374C10.2758 38.002 10.4236 37.9474 10.5361 37.8703C10.6485 37.7932 10.7481 37.7289 10.8317 37.6775C10.9345 37.6068 11.0727 37.5393 11.2462 37.4719C11.349 37.4205 11.4711 37.3658 11.6189 37.3144C11.7635 37.263 11.9242 37.1859 12.0945 37.0831C12.2166 36.9995 12.3387 36.9128 12.4672 36.826C12.5957 36.7425 12.7307 36.6461 12.8688 36.5433C13.0038 36.4565 13.1291 36.3216 13.2416 36.132C13.354 35.9424 13.4697 35.7528 13.5886 35.5632C13.6239 35.5118 13.6657 35.454 13.7171 35.3833C13.7685 35.3158 13.8103 35.2644 13.8456 35.2291C13.9324 35.1455 14.0352 35.0234 14.1541 34.8692C14.2762 34.715 14.3533 34.5607 14.3854 34.4065C14.4208 34.3551 14.4433 34.294 14.4529 34.2266C14.4593 34.1559 14.4818 34.1045 14.5172 34.0723C14.6007 33.9695 14.6714 33.8056 14.7228 33.5807C14.7742 33.359 14.816 33.1534 14.8513 32.9638C14.8674 32.7228 14.9028 32.5172 14.9542 32.3469C15.0056 32.1734 15.0474 32.0384 15.0827 31.9324C15.118 31.8488 15.1373 31.7524 15.147 31.6496C15.1566 31.5468 15.1598 31.3508 15.1598 31.0584C15.1437 30.8688 15.1309 30.6889 15.1213 30.5186C15.1116 30.3451 15.1084 30.2165 15.1084 30.1298C15.0923 30.0463 15.0923 29.9113 15.1084 29.7314C15.1245 29.5514 15.1341 29.3683 15.1341 29.1787C15.1695 28.9024 15.1952 28.6903 15.2112 28.5329C15.2273 28.3786 15.2209 28.234 15.1855 28.0959C15.1695 27.9577 15.1502 27.8485 15.1341 27.7617Z" fill="#1A1208"/>
<path d="M33.973 28.2886C33.9473 28.128 33.9248 27.993 33.9087 27.8902C33.8894 27.7874 33.8894 27.6974 33.9087 27.6203C33.9248 27.5432 33.9344 27.495 33.9344 27.4789C33.9505 27.4436 33.9473 27.3986 33.9216 27.3375C33.8959 27.2765 33.8734 27.2122 33.8573 27.1448C33.838 27.0741 33.822 26.9937 33.8059 26.8973C33.7866 26.8042 33.7705 26.7142 33.7545 26.6274C33.7352 26.56 33.7095 26.4668 33.6774 26.3447C33.642 26.2258 33.6067 26.123 33.5713 26.0362C33.5392 25.9495 33.5039 25.8531 33.4685 25.7406C33.4364 25.6281 33.4107 25.5382 33.3914 25.4707C33.3593 25.3486 33.3336 25.2297 33.3143 25.1076C33.2982 24.9887 33.2629 24.8602 33.2115 24.722C33.1793 24.5871 33.1311 24.4618 33.0701 24.3493C33.009 24.2369 32.9544 24.1405 32.903 24.0537C32.8516 23.9669 32.797 23.8641 32.7359 23.7452C32.6749 23.6231 32.6299 23.5203 32.5945 23.4368C32.5431 23.3147 32.4917 23.2279 32.4403 23.1765C32.3889 23.1251 32.3182 23.0576 32.2347 22.9709C32.1832 22.9387 32.1222 22.8809 32.0547 22.8038C31.984 22.7267 31.9326 22.6528 31.9005 22.5853C31.8137 22.4664 31.7238 22.3539 31.6274 22.2511C31.5342 22.1483 31.4282 22.0519 31.3061 21.9684L30.9976 21.6599C30.8948 21.5539 30.7759 21.4607 30.6377 21.3739C30.567 21.3418 30.4899 21.3032 30.4064 21.2583C30.3196 21.2165 30.2586 21.1779 30.2264 21.1426C30.1043 21.0076 29.9983 20.8823 29.9019 20.7699C29.8087 20.6574 29.677 20.5771 29.5035 20.5257C29.2818 20.4582 29.0408 20.3521 28.7837 20.2172C28.5941 20.1304 28.456 20.079 28.3724 20.063C28.2857 20.0437 28.1572 20.018 27.9836 19.9858C27.8808 19.9666 27.7619 19.9601 27.6238 19.9601C27.4856 19.9601 27.3764 19.9409 27.2896 19.9087C27.1161 19.8541 26.9619 19.8284 26.8269 19.8284C26.7755 19.8284 26.7112 19.8155 26.6341 19.7898C26.557 19.7641 26.4831 19.7449 26.4124 19.7256C26.3514 19.7031 26.2839 19.6774 26.2068 19.6517C26.1714 19.6934 26.1361 19.7352 26.1039 19.7738C26.0461 19.8412 25.9818 19.9184 25.924 19.9923C25.8469 20.0822 25.7858 20.1561 25.7312 20.2204C25.532 20.516 25.275 20.7249 25.1593 20.8116L25.1111 20.8598C25.0629 20.9369 25.0147 20.998 24.9761 21.0494L24.8219 21.3546L24.6645 21.435C24.4106 21.7756 24.1761 21.9941 23.7873 22.2415C23.4306 22.5403 22.9647 22.8327 22.547 23.0158L21.9461 23.3404H21.1203C20.9597 23.3532 20.8054 23.3597 20.6737 23.3597C20.497 23.3597 20.2946 23.35 20.0857 23.2858H20.0247L19.9026 23.2633C19.4656 23.1861 19.1732 23.0705 18.8358 22.8359C18.7458 22.9805 18.6687 23.1187 18.6109 23.2536C18.5755 23.3404 18.5113 23.4239 18.4181 23.501C18.3217 23.5782 18.2156 23.6745 18.0968 23.7966C18.0453 23.8641 18.0196 23.9284 18.0196 23.9894C18.0196 24.0505 18.01 24.1051 17.9939 24.1565C17.9586 24.2947 17.9072 24.3975 17.8397 24.465C17.769 24.5357 17.6919 24.6385 17.6051 24.7734C17.5377 24.8955 17.4959 24.9919 17.4766 25.0691C17.4606 25.1462 17.4413 25.2297 17.4252 25.3165C17.4252 25.4868 17.3995 25.6249 17.3481 25.7278C17.2613 25.9848 17.1939 26.1808 17.1424 26.319C17.091 26.4571 17.0653 26.5696 17.0653 26.6531C17.0653 26.7046 17.0814 26.7656 17.1167 26.8331C17.1521 26.9038 17.1585 26.9648 17.1424 27.0162C17.1071 27.0676 17.0943 27.1705 17.1039 27.3247C17.1135 27.4789 17.1071 27.7263 17.091 28.0701C17.091 28.3625 17.0621 28.6196 17.0011 28.8445C16.94 29.0662 16.9015 29.2205 16.8854 29.3072C16.8501 29.5289 16.834 29.6896 16.834 29.7828C16.834 29.8759 16.8693 30.0109 16.9368 30.1812C16.9882 30.3386 17.0428 30.4479 17.1039 30.5186C17.1649 30.5861 17.1778 30.6889 17.1424 30.827C17.1071 30.9138 17.091 30.9781 17.091 31.0198C17.091 31.0616 17.1071 31.1451 17.1424 31.264C17.1778 31.3508 17.1906 31.4408 17.181 31.5339C17.1714 31.6303 17.1778 31.7203 17.1939 31.8038C17.2292 31.9259 17.2678 32.032 17.3095 32.1284C17.3513 32.2215 17.3899 32.3115 17.4252 32.3983C17.4766 32.7067 17.5377 32.9027 17.6051 32.9895C17.6405 33.057 17.6501 33.1405 17.6308 33.2337C17.6148 33.3301 17.6244 33.4008 17.6566 33.4522C17.6758 33.5389 17.7272 33.6418 17.814 33.7607C17.8975 33.8828 18.01 34.0884 18.1482 34.3808C18.1996 34.4675 18.2928 34.6121 18.4309 34.8178C18.5145 34.9045 18.5884 34.9977 18.6494 35.1005C18.7105 35.2034 18.7555 35.2805 18.7908 35.3319C18.8583 35.454 18.9547 35.5825 19.0736 35.7207C19.1924 35.8556 19.2985 35.9874 19.382 36.1063C19.4174 36.1416 19.4559 36.1962 19.4977 36.2733C19.5427 36.3505 19.5909 36.4051 19.6423 36.4404C19.6937 36.4758 19.7515 36.5272 19.8222 36.5947C19.8897 36.6621 19.9507 36.7232 20.0022 36.7746C20.0536 36.826 20.1307 36.8517 20.2335 36.8517C20.3363 36.8517 20.4038 36.871 20.4391 36.9031C20.4745 36.9224 20.5259 36.961 20.5934 37.0188C20.6609 37.0798 20.7315 37.1345 20.799 37.1859C20.9372 37.2887 21.0368 37.3626 21.0946 37.4076C21.1557 37.4494 21.2874 37.5136 21.4963 37.6004C21.5798 37.6325 21.6794 37.6711 21.7919 37.7161C21.9011 37.7578 21.9911 37.7964 22.0618 37.8317C22.1293 37.8671 22.2064 37.9088 22.2931 37.9603C22.3799 38.0117 22.4634 38.0534 22.5502 38.0888C22.6369 38.1241 22.7237 38.153 22.8072 38.1787C22.894 38.2045 22.9615 38.2334 23.0129 38.2687C23.1511 38.3362 23.2796 38.3683 23.4017 38.3587C23.5206 38.349 23.6748 38.3555 23.8644 38.3715C23.9511 38.3715 24.0829 38.3972 24.2628 38.4487C24.4427 38.5001 24.6195 38.5354 24.7898 38.5515C24.9986 38.5708 25.1593 38.5772 25.2814 38.5772C25.4035 38.5772 25.4967 38.5708 25.5641 38.5515C25.6316 38.5354 25.6895 38.5226 25.7312 38.5129C25.773 38.5033 25.8308 38.4904 25.8983 38.4744C25.9658 38.4583 26.03 38.4487 26.0911 38.4487H26.2325C26.2678 38.4647 26.3449 38.4615 26.4638 38.4358C26.5859 38.4101 26.7241 38.3876 26.8783 38.3715C26.9811 38.3555 27.0872 38.3458 27.1996 38.3458C27.3121 38.3458 27.4181 38.3362 27.521 38.3201C27.6591 38.2848 27.7909 38.2591 27.9194 38.243C28.0479 38.2269 28.1572 38.1916 28.2439 38.1402C28.3275 38.1048 28.411 38.0599 28.4881 37.9988C28.5652 37.9378 28.6359 37.9088 28.7066 37.9088C28.7227 37.9088 28.803 37.8703 28.9508 37.7932C29.0954 37.7161 29.2561 37.6293 29.4264 37.5361C29.5967 37.4397 29.7573 37.353 29.9019 37.2759C30.0497 37.1987 30.13 37.1602 30.1493 37.1602C30.2007 37.128 30.2586 37.0927 30.3293 37.0574C30.3967 37.0252 30.4481 36.9899 30.4835 36.9545C30.5863 36.8196 30.6891 36.7232 30.7919 36.6718C30.8273 36.6364 30.8691 36.5979 30.9205 36.5561C30.9719 36.5143 31.0137 36.4758 31.049 36.4404C31.0843 36.4051 31.139 36.373 31.2161 36.3376C31.2932 36.3023 31.3575 36.2701 31.4089 36.2348C31.547 36.148 31.6338 36.0709 31.6659 36.0034C31.7013 35.936 31.7366 35.8556 31.7687 35.7721C31.788 35.7367 31.8234 35.6853 31.8748 35.6146C31.9262 35.5472 31.9776 35.4797 32.029 35.409C32.0804 35.3415 32.1447 35.2676 32.2218 35.1905C32.2989 35.1134 32.3535 35.0491 32.3889 34.9977C32.421 34.9302 32.466 34.8596 32.5174 34.7921C32.5688 34.7246 32.6106 34.6732 32.6459 34.6378C32.7327 34.5511 32.7905 34.4226 32.8259 34.2523C32.8612 34.0788 32.8934 33.9245 32.9287 33.7864C32.9448 33.6514 32.9769 33.5389 33.0187 33.4522C33.0637 33.3686 33.1086 33.298 33.16 33.2465C33.2115 33.1951 33.2725 33.1373 33.34 33.0666C33.4107 32.9991 33.4621 32.8963 33.4942 32.7581C33.5135 32.6714 33.5199 32.5879 33.5199 32.5011C33.5199 32.4143 33.5392 32.3469 33.5713 32.2955C33.5906 32.2248 33.5938 32.1541 33.5842 32.077C33.5778 31.9966 33.581 31.9324 33.6002 31.881C33.6002 31.8295 33.6195 31.7717 33.6645 31.701C33.7063 31.6335 33.7448 31.5725 33.7802 31.5211C33.8123 31.3829 33.8316 31.2544 33.8316 31.1355V30.9427C33.8316 30.8656 33.838 30.7821 33.8573 30.6985C33.8734 30.5764 33.8894 30.4415 33.9087 30.284C33.9248 30.1298 33.9344 29.9595 33.9344 29.7699C33.9505 29.6157 33.9665 29.4582 33.9858 29.2944C34.0019 29.1305 34.0115 28.973 34.0115 28.8188C34.0115 28.6292 33.9987 28.4525 33.973 28.2886ZM28.4238 29.3458C28.3885 29.6799 28.3532 29.9241 28.321 30.0784C28.3017 30.1651 28.3146 30.2776 28.3596 30.4158C28.4014 30.5507 28.4142 30.6728 28.3981 30.7756C28.3789 30.9652 28.3532 31.0969 28.321 31.1741C28.2857 31.2512 28.2503 31.3411 28.215 31.444C28.1829 31.5307 28.1475 31.6078 28.1122 31.6753C28.08 31.746 28.0608 31.7974 28.0608 31.8295C28.0608 31.8649 28.0479 31.9292 28.0222 32.0223C27.9965 32.1187 27.9676 32.2215 27.9322 32.334C27.8969 32.4433 27.8648 32.5461 27.8294 32.6425C27.7941 32.7357 27.7619 32.8096 27.7266 32.861C27.6591 32.9477 27.5852 33.0281 27.5081 33.1052C27.431 33.1823 27.3507 33.2658 27.2639 33.3494C27.0904 33.555 26.9297 33.7092 26.7755 33.8121C26.7402 33.8313 26.7016 33.8731 26.6598 33.9438C26.6148 34.0113 26.5699 34.0627 26.5152 34.098C26.3803 34.1816 26.255 34.2201 26.1425 34.2137C26.03 34.2041 25.8565 34.2169 25.6155 34.2523C25.3392 34.2876 25.1529 34.3133 25.05 34.3294C24.9472 34.3454 24.8701 34.339 24.8155 34.3037C24.7833 34.2876 24.7448 34.2555 24.6998 34.2137C24.658 34.1687 24.6098 34.1302 24.5584 34.098C24.4042 34.0466 24.25 33.9888 24.0957 33.931C23.9415 33.8699 23.8033 33.7703 23.6844 33.6321C23.5623 33.4972 23.4724 33.3494 23.4145 33.1951C23.3535 33.0409 23.2796 32.8867 23.196 32.7324C23.1607 32.665 23.1125 32.5943 23.0514 32.5268C22.9936 32.4561 22.9454 32.3983 22.9101 32.3469C22.8426 32.2248 22.8072 32.0962 22.8072 31.9581C22.7912 31.9259 22.7687 31.8553 22.743 31.7524C22.7173 31.6496 22.6884 31.5468 22.653 31.444C22.6209 31.2544 22.5888 31.0745 22.563 30.9042C22.5373 30.7306 22.5084 30.5346 22.4731 30.3129C22.4731 30.2583 22.4634 30.1748 22.4474 30.0527C22.4313 29.9338 22.4217 29.7892 22.4217 29.6157C22.4217 29.5129 22.4377 29.4068 22.4731 29.2944C22.5084 29.1819 22.5245 29.0566 22.5245 28.9216C22.5245 28.6967 22.5084 28.5136 22.4731 28.3658C22.4377 28.2212 22.4313 28.0894 22.4474 27.9673C22.4634 27.7778 22.502 27.6299 22.563 27.5175C22.6241 27.405 22.6787 27.254 22.7301 27.0676C22.7815 26.9102 22.8265 26.7495 22.8587 26.576C22.894 26.4218 22.9358 26.2547 22.9872 26.0748C23.0386 25.8948 23.1093 25.7374 23.196 25.5992C23.2121 25.5318 23.2153 25.4579 23.2089 25.3807C23.1993 25.3036 23.2217 25.2394 23.2732 25.1847C23.3053 25.1526 23.331 25.114 23.3503 25.0691C23.3663 25.0273 23.3824 24.9984 23.4017 24.9791C23.4177 24.947 23.4659 24.9148 23.5431 24.8891C23.6202 24.8634 23.6748 24.8184 23.7101 24.7477C23.7455 24.6963 23.813 24.6256 23.9158 24.5292C24.0186 24.4361 24.1246 24.3365 24.2371 24.2336C24.3496 24.1308 24.462 24.0408 24.5713 23.9637C24.6837 23.8866 24.7576 23.8481 24.7898 23.8481C24.9119 23.8127 25.0372 23.7966 25.1657 23.7966H25.6155C25.7344 23.7966 25.8308 23.8031 25.8983 23.8224C25.9658 23.8384 26.0365 23.8609 26.1039 23.8866C26.1746 23.9123 26.2518 23.9477 26.3353 23.9894C26.4221 24.0312 26.5345 24.0794 26.6727 24.1308C27.084 24.2497 27.3667 24.526 27.521 24.9534C27.5563 25.0562 27.5756 25.1558 27.5852 25.2522C27.5949 25.3454 27.6238 25.4257 27.6752 25.4964C27.7619 25.5992 27.8423 25.6924 27.9194 25.7792C27.9965 25.8659 28.0543 26.0202 28.0865 26.2419C28.1057 26.3447 28.1218 26.4539 28.1379 26.5632C28.1572 26.6756 28.1829 26.756 28.215 26.8074C28.2857 27.0676 28.3467 27.3665 28.3981 27.7103C28.4496 28.0541 28.4753 28.3529 28.4753 28.61C28.4753 28.7674 28.456 29.0116 28.4238 29.3458Z" fill="#1A1208"/>
<path d="M51.2147 26.1647C51.2469 26.0266 51.2662 25.9109 51.2662 25.8177C51.2662 25.7245 51.2565 25.6089 51.2404 25.4707C51.2212 25.3839 51.2051 25.2586 51.189 25.0948C51.1698 24.9341 51.1633 24.7831 51.1633 24.6449C51.1794 24.51 51.1794 24.3461 51.1633 24.1565C51.1441 23.9669 51.128 23.8031 51.1119 23.6681C51.0766 23.4785 51.0734 23.3436 51.0991 23.2665C51.1248 23.1894 51.1441 23.109 51.1633 23.0223C51.1955 22.9548 51.1955 22.8777 51.1633 22.7909C51.128 22.7074 51.1023 22.6014 51.0862 22.4825C51.0669 22.3796 51.0669 22.2865 51.0862 22.1997C51.1023 22.113 51.1119 22.0358 51.1119 21.9684C51.1441 21.7788 51.1537 21.6406 51.1376 21.5539C51.1183 21.4703 51.1055 21.4061 51.0991 21.3611C51.0894 21.3193 51.0926 21.255 51.1119 21.1683C51.128 21.0494 51.1248 20.9466 51.0991 20.8598C51.0734 20.7731 51.0252 20.6542 50.9545 20.4999C50.887 20.3618 50.736 20.259 50.5046 20.1915C50.2733 20.1208 50.0901 20.079 49.952 20.063C49.8813 20.063 49.8074 20.0662 49.7303 20.0758C49.605 20.1979 49.4732 20.32 49.3447 20.4389C49.2676 20.5128 49.168 20.6092 49.0555 20.7152C48.9205 20.8438 48.7695 20.9851 48.6442 21.1137C47.8891 21.8398 47.5903 22.0808 47.2369 22.2575L47.1501 22.2993L47.0858 22.3218C47.0312 22.3443 46.9605 22.3829 46.9027 22.4086C46.726 22.4985 46.4496 22.6142 46.1508 22.7299C46.1572 22.7781 46.1604 22.8263 46.1669 22.868C46.1829 23.0062 46.199 23.0994 46.2183 23.1508C46.2183 23.2536 46.199 23.3918 46.1669 23.5653C46.1669 23.5974 46.1476 23.6745 46.1155 23.7966C46.0801 23.9155 46.0641 24.0698 46.0641 24.2593C46.0641 24.3622 46.0705 24.4746 46.0898 24.5935C46.1058 24.7156 46.1155 24.8345 46.1155 24.9534C46.1155 25.143 46.1315 25.3036 46.1669 25.4321C46.199 25.5607 46.2183 25.6667 46.2183 25.7535C46.2183 25.9752 46.2086 26.1358 46.1926 26.229C46.1733 26.3254 46.1572 26.4314 46.1412 26.5503C46.0898 26.7913 46.0319 26.952 45.9741 27.0291C45.913 27.1062 45.7877 27.1769 45.5981 27.2476C45.5307 27.2636 45.4889 27.2765 45.4696 27.2861C45.4535 27.2958 45.4021 27.299 45.3154 27.299C45.1097 27.3343 44.9716 27.3408 44.9041 27.3247C44.8366 27.3086 44.6888 27.299 44.4671 27.299C44.2615 27.299 44.1233 27.2958 44.0558 27.2861C43.9851 27.2765 43.847 27.2733 43.6413 27.2733C43.4518 27.2733 43.2718 27.2829 43.1015 27.299C42.9312 27.3151 42.7738 27.3247 42.6388 27.3247C42.3818 27.3247 42.1601 27.3279 41.9801 27.3376C41.8002 27.3472 41.6845 27.3504 41.6331 27.3504C41.3921 27.3151 41.2154 27.2412 41.1061 27.1319C40.9937 27.0194 40.9134 26.8845 40.8619 26.7303C40.8427 26.6981 40.8298 26.5889 40.8234 26.4089C40.8138 26.229 40.8009 26.033 40.7848 25.8177C40.7656 25.6024 40.7527 25.4 40.7463 25.2137C40.7366 25.0241 40.7334 24.902 40.7334 24.8506C40.6981 24.6963 40.682 24.5807 40.682 24.5035C40.682 24.4264 40.6884 24.3461 40.7077 24.2593C40.7238 24.1919 40.7366 24.1148 40.7463 24.028C40.7527 23.9412 40.7591 23.8031 40.7591 23.6167C40.7591 23.53 40.772 23.44 40.7977 23.3436C40.8105 23.2954 40.817 23.2408 40.817 23.1797H40.7913L40.5792 23.109C40.2065 22.9837 39.8691 22.7717 39.461 22.4054C39.4257 22.3764 39.3839 22.3443 39.3421 22.3122C39.2971 22.2768 39.2522 22.2383 39.2168 22.2158L39.1461 22.1676L39.0947 22.1194C38.7156 21.7916 38.4489 21.3707 38.2946 20.8566C37.9926 21.2197 37.6327 21.5988 37.3146 21.8366C36.9804 22.3861 36.5563 22.6078 36.0261 22.8873L35.9779 22.913L35.9265 22.9323C35.9008 22.9452 35.8655 22.958 35.8237 22.9741C35.8205 23.0416 35.8109 23.109 35.8012 23.1765C35.7755 23.35 35.7627 23.4946 35.7627 23.6167C35.7627 23.7388 35.7787 23.8641 35.8141 24.0023C35.8462 24.1405 35.8655 24.2754 35.8655 24.4136C35.8655 24.5517 35.8526 24.6899 35.8269 24.8249C35.8012 24.963 35.7884 25.1012 35.7884 25.2394C35.7884 25.3775 35.7819 25.5125 35.7755 25.6506C35.7659 25.7888 35.7627 25.9238 35.7627 26.0619V26.8845C35.7434 27.0227 35.753 27.1576 35.7884 27.2861C35.8205 27.4147 35.8398 27.5464 35.8398 27.6846V28.5071C35.8398 28.6646 35.8205 28.806 35.7884 28.9345C35.753 29.063 35.737 29.1948 35.737 29.3329V30.1298C35.7177 30.1651 35.7177 30.2133 35.737 30.2712C35.753 30.3322 35.7691 30.4061 35.7884 30.4929C35.8205 30.6278 35.8205 30.7499 35.7884 30.8527C35.7884 30.8688 35.7755 30.9588 35.7498 31.1227C35.7241 31.2865 35.7113 31.4954 35.7113 31.7524C35.692 31.8906 35.7048 32.032 35.7498 32.1798C35.7916 32.3244 35.8044 32.4818 35.7884 32.6553V33.555C35.7884 33.6932 35.7691 33.8185 35.737 33.931C35.7016 34.0402 35.6855 34.1655 35.6855 34.3037C35.6855 34.4418 35.692 34.5639 35.7113 34.6764C35.7273 34.7889 35.737 34.9045 35.737 35.0234V35.7721C35.7177 35.9617 35.7113 36.1223 35.7113 36.2605V36.5175C35.692 36.6718 35.6984 36.8132 35.7241 36.9417C35.7498 37.0702 35.7691 37.1955 35.7884 37.3144C35.8398 37.6936 35.9169 37.9345 36.0197 38.0374C36.1579 38.1563 36.4053 38.2269 36.7652 38.243C36.868 38.2591 36.9772 38.2655 37.0897 38.2559C37.1989 38.2462 37.2825 38.2527 37.3339 38.2687L37.3082 38.2944C37.4271 38.3298 37.5203 38.3362 37.591 38.3201C37.6584 38.3041 37.7966 38.2784 38.0022 38.243C38.1725 38.2077 38.3075 38.2045 38.4007 38.2302C38.4971 38.2559 38.6545 38.2784 38.8794 38.2944C39.1011 38.3105 39.2522 38.3201 39.3293 38.3201C39.4064 38.3201 39.4964 38.3041 39.5992 38.2687C39.6506 38.2527 39.7181 38.2398 39.8048 38.2302C39.8916 38.2205 39.959 38.2077 40.0105 38.1916C40.3543 38.1402 40.576 37.986 40.682 37.7289C40.7141 37.6422 40.7398 37.5008 40.7591 37.3016C40.7752 37.1056 40.7848 36.9385 40.7848 36.8003C40.7656 36.6975 40.772 36.6075 40.7977 36.5304C40.8234 36.4533 40.8427 36.3794 40.8619 36.3119C40.8941 36.1737 40.8909 36.0677 40.8491 35.9906C40.8041 35.9135 40.7656 35.7978 40.7334 35.6436C40.6981 35.5215 40.6981 35.4186 40.7334 35.3319C40.7656 35.2483 40.7913 35.0491 40.8105 34.7407C40.8266 34.5511 40.817 34.3808 40.7848 34.2266C40.7495 34.0723 40.7238 33.9759 40.7077 33.9438V32.7839C40.7238 32.3886 40.7366 32.1187 40.7463 31.9709C40.7527 31.8263 40.7656 31.7107 40.7848 31.6239C40.8684 31.2994 41.1511 31.1098 41.6331 31.0584C41.7359 31.0423 41.8773 31.0198 42.0572 30.9941C42.2372 30.9684 42.4235 30.9459 42.6131 30.9299C42.8348 30.9299 43.0469 30.9267 43.2429 30.917C43.4389 30.9074 43.5642 30.9138 43.6156 30.9299C43.667 30.9459 43.7699 30.9556 43.9241 30.9556C43.9755 30.9395 44.0333 30.9556 44.0944 31.007C44.1522 31.0584 44.2165 31.0937 44.2872 31.1098C44.4221 31.1612 44.5603 31.1773 44.6985 31.1612C44.8366 31.1259 45.0069 31.0969 45.2126 31.0712C45.4182 31.0455 45.566 31.0584 45.6496 31.1098C45.7556 31.1451 45.8391 31.2126 45.9098 31.3154C45.9773 31.4183 46.0287 31.5211 46.0641 31.6239C46.0962 31.6753 46.1026 31.7717 46.0769 31.9067C46.0512 32.0448 46.0448 32.1991 46.0641 32.3726C46.0801 32.4915 46.109 32.6168 46.154 32.7453C46.1958 32.8738 46.2183 32.9991 46.2183 33.118C46.2183 33.2048 46.1958 33.3108 46.154 33.4393C46.109 33.5679 46.0898 33.7028 46.0898 33.841C46.0898 33.9792 46.093 34.1045 46.1026 34.2266C46.109 34.3454 46.1155 34.4676 46.1155 34.5864V35.3319C46.1155 35.7625 46.0962 36.0131 46.0641 36.0806V36.9031C46.0801 37.0927 46.109 37.2694 46.154 37.4333C46.1958 37.594 46.2247 37.6936 46.244 37.7289C46.244 37.7643 46.2376 37.8092 46.2311 37.8703C46.2215 37.9313 46.2343 37.9763 46.2697 38.0117C46.3372 38.0791 46.4368 38.1113 46.5653 38.1016C46.6938 38.092 46.8513 38.1048 47.0408 38.1402C47.1629 38.1563 47.2818 38.1916 47.4007 38.243C47.5228 38.2944 47.661 38.3201 47.8152 38.3201C47.9341 38.3362 48.0594 38.3201 48.1879 38.2687C48.3165 38.2173 48.4482 38.182 48.5864 38.1659H49.0234C49.1776 38.1659 49.2901 38.1755 49.3608 38.1916H49.5921C49.6596 38.1916 49.7367 38.182 49.8234 38.1659C49.907 38.1498 50.0002 38.1498 50.0934 38.1659C50.1865 38.182 50.2701 38.1916 50.3376 38.1916C50.4918 38.1916 50.6139 38.1659 50.6974 38.1145C50.7842 38.0631 50.8709 37.9956 50.9545 37.9088C51.0252 37.8221 51.0734 37.7289 51.0991 37.6261C51.1248 37.5233 51.1184 37.2983 51.0862 36.9545C51.0862 36.871 51.0991 36.7714 51.1248 36.6589C51.1505 36.5465 51.1633 36.4308 51.1633 36.3119C51.1633 36.193 51.1408 36.0806 51.0991 35.9777C51.0541 35.8749 51.0348 35.7785 51.0348 35.695C51.0509 35.5889 51.0766 35.4797 51.1119 35.3576C51.1441 35.2387 51.1633 35.1102 51.1633 34.972C51.1633 34.8531 51.1537 34.731 51.1376 34.6121C51.1183 34.4933 51.1119 34.3808 51.1119 34.278C51.0926 34.0723 51.0926 33.857 51.1119 33.6321C51.128 33.4104 51.1376 33.2401 51.1376 33.118C51.1537 32.9991 51.1441 32.8835 51.1119 32.771C51.0766 32.6585 51.0605 32.5332 51.0605 32.3983C51.0605 32.2955 51.0734 32.183 51.0991 32.0641C51.1248 31.942 51.1376 31.8038 51.1376 31.6496C51.1376 31.5468 51.1408 31.4375 51.1505 31.3154C51.1569 31.1966 51.1633 31.068 51.1633 30.9299C51.1633 30.8078 51.1408 30.6857 51.0991 30.5571C51.0541 30.4286 51.0348 30.2937 51.0348 30.1555C51.0348 30.0013 51.0477 29.8599 51.0734 29.7314C51.0991 29.6028 51.1119 29.4968 51.1119 29.41C51.128 29.2558 51.128 29.1144 51.1119 28.9859C51.0926 28.8574 51.0766 28.7674 51.0605 28.716C51.0412 28.6453 51.0541 28.5907 51.0991 28.5457C51.1408 28.5039 51.1698 28.4397 51.189 28.3529C51.2051 28.2694 51.189 28.1601 51.1505 28.0316C51.1055 27.9031 51.0766 27.6749 51.0605 27.3504C51.0605 27.0419 51.0798 26.801 51.1248 26.6274C51.1665 26.4571 51.1955 26.3029 51.2147 26.1647Z" fill="#1A1208"/>
<path d="M68.8806 36.7746C68.8806 36.7071 68.8677 36.5979 68.842 36.4533C68.8163 36.3087 68.7938 36.1481 68.7778 35.9778C68.7778 35.8043 68.7585 35.6468 68.7263 35.499C68.691 35.3544 68.6749 35.2484 68.6749 35.1777C68.691 35.0427 68.7006 34.8885 68.7006 34.715C68.7006 34.5415 68.691 34.2941 68.6749 33.9695C68.6557 33.6257 68.6492 33.388 68.6492 33.2594C68.6492 33.1309 68.6653 32.9638 68.7006 32.7582C68.7167 32.62 68.7553 32.5172 68.8163 32.4497C68.8742 32.379 68.8966 32.2505 68.8806 32.0641C68.8806 31.9774 68.8742 31.8778 68.8677 31.7653C68.8581 31.6561 68.8549 31.5147 68.8549 31.3412C68.8549 31.1869 68.8485 31.0456 68.842 30.917C68.8324 30.7885 68.8292 30.6632 68.8292 30.5443C68.8292 30.3708 68.8099 30.2198 68.7778 30.0913C68.7424 29.9627 68.7263 29.8406 68.7263 29.7185C68.7263 29.5643 68.7328 29.4229 68.7521 29.2944C68.7681 29.1659 68.7778 29.0309 68.7778 28.896C68.7938 28.7224 68.797 28.5682 68.7906 28.4301C68.781 28.2951 68.7778 28.1666 68.7778 28.0445C68.7778 27.8549 68.781 27.6942 68.7906 27.5561C68.797 27.4179 68.7842 27.299 68.7521 27.1962C68.7167 27.042 68.6942 26.8652 68.6878 26.666C68.6782 26.47 68.691 26.2355 68.7263 25.9591C68.7424 25.8724 68.7649 25.7953 68.7906 25.7278C68.8163 25.6603 68.8195 25.5832 68.8035 25.4964C68.7842 25.4097 68.7585 25.3422 68.7263 25.2908C68.691 25.2394 68.6814 25.1687 68.7006 25.0819C68.7167 24.9984 68.7424 24.8859 68.7778 24.7478C68.8099 24.6128 68.8292 24.4297 68.8292 24.208C68.8099 24.0184 68.7842 23.8095 68.7521 23.5782C68.7167 23.3436 68.7006 23.1605 68.7006 23.0223C68.7006 22.8841 68.7071 22.7556 68.7263 22.6303C68.7263 22.6271 68.7231 22.6271 68.7231 22.6271C68.6942 22.6046 68.6524 22.5789 68.6139 22.5596L68.5625 22.5403L68.5368 22.5243C68.0934 22.3026 67.7528 21.978 67.4989 21.6021C67.2579 21.8624 66.972 22.1515 66.8242 22.2993C66.4739 22.6817 66.2265 22.8777 65.7381 23.0159L65.6867 23.0287C65.6867 23.0287 65.5389 23.0609 65.526 23.0609L65.4778 23.0801C65.0537 23.2504 64.5525 23.4239 64.0384 23.4239C63.9355 23.4239 63.8327 23.4175 63.7331 23.4015C63.7299 23.4529 63.7299 23.5075 63.7299 23.5653C63.7106 23.6681 63.7106 23.7742 63.7299 23.8866C63.746 23.9991 63.7556 24.1148 63.7556 24.2337C63.7556 24.3204 63.746 24.4297 63.7299 24.5678C63.7106 24.706 63.7042 24.8699 63.7042 25.0562C63.7042 25.1944 63.6945 25.3358 63.6785 25.4836C63.6592 25.6282 63.6528 25.7696 63.6528 25.9077C63.6528 26.0459 63.6688 26.1808 63.7042 26.319C63.7363 26.4572 63.7556 26.5953 63.7556 26.7303C63.7717 26.9199 63.7877 27.0837 63.807 27.2219C63.8231 27.3601 63.8327 27.4693 63.8327 27.5561C63.8488 27.8131 63.8488 27.9931 63.8327 28.0959C63.8166 28.1987 63.7877 28.3015 63.7556 28.4043C63.6688 28.7482 63.5403 28.9217 63.37 28.9217C63.3347 28.9217 63.28 28.8895 63.1997 28.8317C63.1226 28.7706 63.068 28.6967 63.0326 28.61C62.9652 28.5072 62.8623 28.3883 62.7242 28.2501C62.6374 28.1666 62.5828 28.067 62.5571 27.9545C62.5314 27.842 62.4768 27.7103 62.39 27.5561C62.3386 27.4533 62.2615 27.3504 62.1587 27.2476C62.0558 27.1448 61.9851 27.0677 61.953 27.0163C61.8502 26.8781 61.7795 26.7303 61.7474 26.5761C61.7281 26.4572 61.6735 26.2772 61.5803 26.0362C61.4839 25.7953 61.3779 25.5993 61.2558 25.445C61.2236 25.3936 61.1883 25.3294 61.1529 25.2522C61.1208 25.1719 61.0855 25.1076 61.0501 25.0562C61.0501 25.0402 61.0116 24.9727 60.9344 24.8506C60.8573 24.7317 60.777 24.6032 60.6902 24.465C60.5874 24.2947 60.4685 24.0955 60.3304 23.8738C60.2597 23.787 60.2275 23.7099 60.2275 23.6424C60.2275 23.575 60.2083 23.4946 60.1761 23.4111C60.1761 23.3758 60.1408 23.2986 60.0733 23.1765C60.0315 23.1058 59.9866 23.0287 59.9384 22.9516C59.813 23.0062 59.6781 23.0609 59.5303 23.1091L59.4275 23.1444L59.3214 23.1605C59.3054 23.1669 59.2668 23.183 59.2283 23.1926C59.1801 23.2087 59.1351 23.2247 59.0933 23.2376C58.923 23.3051 58.6852 23.3758 58.3928 23.3758C58.1294 23.3758 57.9044 23.3147 57.7373 23.2601C57.6474 23.2665 57.5703 23.2697 57.5028 23.2697C56.8216 23.2697 56.4199 22.9259 56.1276 22.656C55.6809 22.2865 55.3821 21.8495 55.1668 21.2454C54.9997 20.7731 54.9098 20.4903 54.9162 20.0276C54.9098 20.0276 54.9033 20.0244 54.8969 20.0244C54.7234 19.9987 54.5788 19.9859 54.4567 19.9859C54.2189 19.9666 54.0197 20.0051 53.8655 20.1015C53.7113 20.1947 53.6181 20.3104 53.5827 20.4486C53.5153 20.7217 53.4671 20.9145 53.4414 21.0269C53.4156 21.1394 53.4028 21.239 53.4028 21.3225C53.4028 21.374 53.3996 21.4446 53.3899 21.5282C53.3803 21.6149 53.3674 21.7017 53.3514 21.7884C53.316 21.9073 53.3064 21.9973 53.3257 22.0584C53.3417 22.1194 53.361 22.1901 53.3771 22.2769C53.3932 22.3283 53.4028 22.4343 53.4028 22.5982V23.0994C53.4028 23.2729 53.4124 23.4368 53.4285 23.591C53.4446 23.7453 53.4638 23.8642 53.4799 23.9509C53.5153 24.0698 53.5217 24.1565 53.5056 24.208C53.4896 24.2594 53.4638 24.3365 53.4285 24.4393C53.3932 24.5261 53.3803 24.6128 53.3899 24.6964C53.3996 24.7831 53.4028 24.902 53.4028 25.0562C53.4028 25.1269 53.406 25.233 53.4156 25.3808C53.4253 25.5254 53.4285 25.7181 53.4285 25.9591C53.4285 26.0973 53.4317 26.2387 53.4414 26.3833C53.451 26.5311 53.4542 26.6885 53.4542 26.8588C53.4542 26.997 53.4414 27.1384 53.4156 27.2862C53.3899 27.4308 53.3771 27.5818 53.3771 27.736C53.3771 27.8902 53.3899 28.0445 53.4156 28.1987C53.4414 28.3529 53.4542 28.5007 53.4542 28.6389C53.4542 28.7931 53.4317 28.9474 53.3899 29.1016C53.345 29.2558 53.3257 29.4004 53.3257 29.5386V30.4158C53.3257 30.5507 53.3289 30.676 53.3385 30.7885C53.345 30.901 53.3514 30.9974 53.3514 31.0841C53.3514 31.2544 53.3674 31.3894 53.4028 31.4826C53.4381 31.5789 53.4638 31.6689 53.4799 31.7525C53.496 31.8392 53.5088 31.9324 53.5185 32.0384C53.5281 32.1412 53.5313 32.3019 53.5313 32.5268C53.5153 32.6297 53.5024 32.7421 53.4928 32.861C53.4831 32.9799 53.4799 33.1277 53.4799 33.298C53.4799 33.4201 53.4671 33.539 53.4414 33.6579C53.4156 33.78 53.3932 33.9181 53.3771 34.0724C53.361 34.4483 53.3674 34.6861 53.4028 34.7793C53.4381 34.8756 53.4703 34.972 53.5056 35.0749C53.541 35.197 53.5699 35.3126 53.5956 35.4219C53.6213 35.5343 53.6181 35.6243 53.5827 35.695C53.5667 35.7111 53.5345 35.8043 53.4928 35.9778C53.451 36.1481 53.4189 36.3473 53.4028 36.569C53.3867 36.7746 53.3803 36.9674 53.3899 37.1474C53.3996 37.3273 53.4124 37.4462 53.4285 37.4976C53.4446 37.5811 53.4831 37.7064 53.5442 37.8703C53.6052 38.0342 53.6695 38.1402 53.737 38.1916C53.7723 38.227 53.8237 38.2302 53.8912 38.2045C53.9587 38.1788 54.0647 38.1756 54.1997 38.1916C54.3025 38.1916 54.4149 38.2077 54.537 38.243C54.6559 38.2784 54.8005 38.2945 54.974 38.2945C55.0768 38.2945 55.1925 38.2784 55.3211 38.243C55.4496 38.2077 55.591 38.1916 55.7452 38.1916C55.8673 38.1916 55.9894 38.2013 56.1179 38.2173C56.2497 38.2334 56.3814 38.243 56.5196 38.243C56.6738 38.243 56.8023 38.2334 56.9051 38.2173C57.008 38.2013 57.1011 38.1916 57.1879 38.1916C57.4096 38.1756 57.5574 38.1691 57.6249 38.1788C57.6956 38.1884 57.7727 38.1756 57.8562 38.1402C58.0297 38.0727 58.1358 38.0021 58.1808 37.9346C58.2225 37.8671 58.2611 37.7032 58.2964 37.4462C58.3125 37.3241 58.3414 37.1859 58.3864 37.0317C58.4282 36.8774 58.4507 36.6911 58.4507 36.4662C58.4507 36.193 58.4378 35.9392 58.4121 35.7079C58.3864 35.4733 58.3736 35.3319 58.3736 35.2805C58.4057 35.197 58.441 35.1102 58.4764 35.0235C58.5085 34.9399 58.5085 34.776 58.4764 34.5351C58.441 34.2941 58.4185 34.1302 58.4121 34.0467C58.4025 33.9599 58.4057 33.8474 58.425 33.7093C58.441 33.6257 58.4442 33.5133 58.4378 33.3751C58.4282 33.2402 58.425 33.1084 58.425 32.9895C58.425 32.922 58.4314 32.8096 58.4507 32.6554C58.4667 32.5011 58.4764 32.3212 58.4764 32.1155C58.4764 31.9774 58.4539 31.836 58.4121 31.6882C58.3671 31.5436 58.3543 31.4022 58.3736 31.2641C58.3736 31.0938 58.3671 30.946 58.3607 30.8271C58.3511 30.705 58.3478 30.5957 58.3478 30.4929C58.3478 30.4415 58.3607 30.3579 58.3864 30.2455C58.4121 30.1362 58.441 30.0238 58.4764 29.9113C58.5085 29.8021 58.5567 29.6928 58.6177 29.59C58.6788 29.4872 58.7334 29.4261 58.7848 29.4101C58.8202 29.3747 58.8652 29.3587 58.9262 29.3587C58.9873 29.3587 59.0322 29.394 59.0676 29.4615C59.1029 29.4968 59.1351 29.5418 59.1704 29.6029C59.2058 29.6639 59.2572 29.7282 59.3246 29.7956C59.4467 29.9338 59.5303 30.0591 59.5817 30.1684C59.6331 30.2808 59.6781 30.3901 59.7134 30.4929C59.7295 30.5443 59.7552 30.5829 59.7906 30.6086C59.8227 30.6343 59.858 30.6632 59.8934 30.6985C59.9094 30.7307 59.9319 30.7757 59.9576 30.8271C59.9833 30.8785 60.0026 30.9299 60.0219 30.9813C60.0733 31.1195 60.1408 31.3123 60.2275 31.5597C60.3111 31.8103 60.3818 31.9774 60.4332 32.0641C60.4685 32.0963 60.5103 32.1413 60.5617 32.1927C60.6131 32.2441 60.6549 32.3019 60.6902 32.3726C60.7256 32.424 60.7513 32.4754 60.7674 32.5268C60.7834 32.5782 60.8091 32.62 60.8445 32.6554C60.8798 32.6907 60.9055 32.7357 60.9216 32.7967C60.9377 32.8578 60.973 32.9542 61.0244 33.0923C61.0437 33.1277 61.0694 33.1662 61.1015 33.208C61.1369 33.253 61.1722 33.2916 61.2043 33.3237C61.2911 33.4265 61.3329 33.5101 61.3329 33.5679C61.3329 33.6289 61.3521 33.7028 61.3843 33.7864C61.4036 33.841 61.4325 33.9246 61.4775 34.0467C61.5192 34.1655 61.5835 34.2941 61.6703 34.4322C61.7217 34.5511 61.7988 34.6507 61.9016 34.7278C62.0044 34.805 62.0815 34.8885 62.1329 34.972C62.1844 35.0588 62.2326 35.1616 62.2743 35.2805C62.3161 35.4026 62.3547 35.4958 62.39 35.5633C62.4253 35.634 62.4511 35.7079 62.4671 35.785C62.4832 35.8621 62.5089 35.9167 62.5442 35.9521C62.5796 35.9874 62.6117 36.0388 62.6471 36.1063C62.6824 36.1738 62.7177 36.2348 62.7499 36.2862C62.8206 36.5079 62.9009 36.72 62.9941 36.916C63.0905 37.1152 63.1965 37.308 63.3186 37.4976C63.4021 37.6679 63.4889 37.7836 63.5757 37.8446C63.6592 37.9057 63.746 37.9506 63.8327 37.986C63.9002 38.0213 64.0287 38.0856 64.2183 38.1788C64.4079 38.272 64.5621 38.3362 64.681 38.3716C64.7163 38.3716 64.7645 38.3619 64.8224 38.3459C64.8834 38.3298 64.9316 38.3202 64.967 38.3202C65.1726 38.3202 65.3911 38.3073 65.6224 38.2816C65.8538 38.2559 66.0723 38.227 66.2779 38.1916C66.3647 38.1756 66.5093 38.182 66.7181 38.2173C66.9238 38.2527 67.1294 38.2687 67.3351 38.2687C67.4025 38.2687 67.5054 38.2591 67.6435 38.243C67.7817 38.227 67.9231 38.2013 68.0677 38.1659C68.2155 38.1306 68.3472 38.0856 68.4693 38.0245C68.5882 37.9635 68.6749 37.8992 68.7263 37.8318C68.7778 37.745 68.8195 37.5811 68.8549 37.3401C68.887 37.1024 68.8966 36.9128 68.8806 36.7746Z" fill="#1A1208"/>
<path d="M86.5207 36.7746C86.5207 36.7071 86.5079 36.5979 86.4822 36.4533C86.4565 36.3087 86.434 36.148 86.4179 35.9777C86.4179 35.8042 86.4018 35.6468 86.3665 35.499C86.3312 35.3544 86.3151 35.2484 86.3151 35.1777C86.3311 35.0427 86.3408 34.8885 86.3408 34.715C86.3408 34.5415 86.3311 34.294 86.3151 33.9695C86.2958 33.6257 86.2894 33.3879 86.2894 33.2594C86.2894 33.1309 86.3054 32.9638 86.3408 32.7582C86.3568 32.62 86.3954 32.5172 86.4565 32.4497C86.5175 32.379 86.5368 32.2505 86.5207 32.0641C86.5207 31.9774 86.5175 31.8777 86.5079 31.7653C86.4982 31.656 86.495 31.5147 86.495 31.3411C86.495 31.1869 86.4918 31.0455 86.4822 30.917C86.4725 30.7885 86.4693 30.6632 86.4693 30.5443C86.4693 30.3708 86.4533 30.2198 86.4179 30.0912C86.3826 29.9627 86.3665 29.8406 86.3665 29.7185C86.3665 29.5643 86.3729 29.4229 86.3922 29.2944C86.4083 29.1658 86.4179 29.0309 86.4179 28.8959C86.434 28.7224 86.4404 28.5682 86.4308 28.43C86.4211 28.2951 86.4179 28.1665 86.4179 28.0444C86.4179 27.8549 86.4211 27.6942 86.4308 27.556C86.4404 27.4179 86.4275 27.299 86.3922 27.1962C86.3569 27.0419 86.3344 26.8652 86.3279 26.666C86.3183 26.47 86.3312 26.2354 86.3665 25.9591C86.3826 25.8724 86.405 25.7952 86.4308 25.7278C86.4565 25.6603 86.4597 25.5832 86.4436 25.4964C86.4275 25.4097 86.4018 25.3422 86.3665 25.2908C86.3312 25.2394 86.3215 25.1687 86.3408 25.0819C86.3568 24.9984 86.3826 24.8859 86.4179 24.7477C86.4533 24.6128 86.4693 24.4296 86.4693 24.2079C86.4532 24.0184 86.4275 23.8095 86.3922 23.5782C86.3761 23.4721 86.3633 23.3789 86.3569 23.2954C85.9038 23.138 85.4861 22.9162 85.184 22.6945C84.8499 22.4728 84.4547 22.0551 84.2779 21.284C84.2651 21.2165 84.249 21.1362 84.233 21.0558C84.2265 21.0333 84.2233 21.0076 84.2169 20.9851C84.1237 20.6799 84.0916 20.41 84.0916 20.0726C84.0337 20.0662 83.9759 20.063 83.9181 20.063H83.5196C83.3911 20.063 83.2594 20.0694 83.1212 20.0887C83.0859 20.0887 83.028 20.0951 82.9413 20.1144C82.8609 20.1304 82.7806 20.1401 82.7035 20.1401C82.6714 20.1851 82.6392 20.23 82.6071 20.275C82.5011 20.7056 82.2376 21.1426 82.0641 21.3964V21.541L81.9323 21.6728C81.8167 22.0294 81.6624 22.3282 81.4632 22.5789C81.4632 22.6078 81.4632 22.6335 81.46 22.6624C81.4504 22.7492 81.4375 22.8359 81.4214 22.9195C81.3861 23.093 81.37 23.305 81.37 23.5653C81.354 23.6681 81.354 23.7742 81.37 23.8866C81.3861 23.9991 81.3957 24.1148 81.3957 24.2336C81.3957 24.3204 81.3861 24.4296 81.37 24.5678C81.354 24.706 81.3443 24.8698 81.3443 25.0562C81.3443 25.1944 81.3347 25.3358 81.3186 25.4836C81.2993 25.6281 81.2929 25.7695 81.2929 25.9077C81.2929 26.0459 81.309 26.1808 81.3443 26.319C81.3797 26.4571 81.3957 26.5953 81.3957 26.7303C81.4118 26.9198 81.4311 27.0837 81.4471 27.2219C81.4632 27.36 81.4728 27.4693 81.4728 27.556C81.4889 27.8131 81.4889 27.993 81.4728 28.0959C81.4568 28.1987 81.4311 28.3015 81.3957 28.4043C81.309 28.7481 81.1805 28.9216 81.0102 28.9216C80.9748 28.9216 80.9202 28.8895 80.8431 28.8317C80.766 28.7706 80.7081 28.6967 80.676 28.61C80.6053 28.5071 80.5025 28.3883 80.3643 28.2501C80.2808 28.1665 80.2229 28.0669 80.1972 27.9545C80.1715 27.842 80.1169 27.7103 80.0301 27.556C79.9787 27.4532 79.9016 27.3504 79.7988 27.2476C79.696 27.1448 79.6285 27.0676 79.5932 27.0162C79.4903 26.8781 79.4196 26.7303 79.3875 26.576C79.3682 26.4571 79.3136 26.2772 79.2204 26.0362C79.124 25.7952 79.018 25.5992 78.8991 25.445C78.8638 25.3936 78.8284 25.3293 78.7963 25.2522C78.7609 25.1719 78.7256 25.1076 78.6903 25.0562C78.6903 25.0401 78.6517 24.9727 78.5746 24.8506C78.4975 24.7317 78.4171 24.6032 78.3304 24.465C78.2276 24.2947 78.1087 24.0955 77.9705 23.8738C77.903 23.787 77.8677 23.7099 77.8677 23.6424C77.8677 23.5749 77.8516 23.4946 77.8163 23.4111C77.8163 23.3757 77.7809 23.2986 77.7135 23.1765C77.6428 23.0576 77.5656 22.9291 77.4821 22.7909C77.3954 22.6367 77.3086 22.4921 77.2251 22.3539C77.1383 22.2158 77.0773 22.1226 77.0419 22.0712C77.0258 22.0198 77.013 21.9491 77.0033 21.8655C76.9969 21.7949 76.9841 21.737 76.9551 21.692C76.6724 21.917 76.4571 22.0648 76.0747 22.2061L76.0619 22.2126C75.7277 22.4535 75.0369 22.8231 74.4778 22.9355C74.3171 22.9741 73.9733 23.0801 73.7709 23.1604L73.7163 23.1829L73.6617 23.199C73.1283 23.3629 72.431 23.4207 71.994 23.4207C71.8462 23.4207 71.6888 23.4014 71.4735 23.3725L71.2357 23.3436L71.1329 23.3147C71.1329 23.3147 71.0879 23.305 71.0494 23.2954C71.0526 23.3982 71.059 23.4978 71.0686 23.591C71.0847 23.7452 71.104 23.8641 71.1201 23.9509C71.1554 24.0698 71.1618 24.1565 71.1458 24.2079C71.1297 24.2593 71.104 24.3365 71.0686 24.4393C71.0333 24.526 71.0204 24.6128 71.0301 24.6963C71.0397 24.7831 71.0429 24.902 71.0429 25.0562C71.0429 25.1269 71.0461 25.2329 71.0558 25.3807C71.0654 25.5253 71.0686 25.7181 71.0686 25.9591C71.0686 26.0973 71.0719 26.2387 71.0815 26.3832C71.0911 26.531 71.0943 26.6885 71.0943 26.8588C71.0943 26.997 71.0815 27.1383 71.0558 27.2861C71.0301 27.4307 71.0172 27.5818 71.0172 27.736C71.0172 27.8902 71.0301 28.0444 71.0558 28.1987C71.0815 28.3529 71.0943 28.5007 71.0943 28.6389C71.0943 28.7931 71.0719 28.9473 71.0301 29.1016C70.9883 29.2558 70.9658 29.4004 70.9658 29.5386V30.4158C70.9658 30.5507 70.969 30.676 70.9787 30.7885C70.9883 30.9009 70.9915 30.9973 70.9915 31.0841C70.9915 31.2544 71.0076 31.3893 71.0429 31.4825C71.0783 31.5789 71.104 31.6689 71.1201 31.7524C71.1361 31.8392 71.149 31.9324 71.1586 32.0384C71.1683 32.1412 71.1715 32.3019 71.1715 32.5268C71.1554 32.6296 71.1425 32.7421 71.1329 32.861C71.1233 32.9799 71.1201 33.1277 71.1201 33.298C71.1201 33.4201 71.1072 33.5389 71.0815 33.6578C71.0558 33.7799 71.0333 33.9181 71.0172 34.0723C71.0012 34.4483 71.0076 34.686 71.0429 34.7792C71.0783 34.8756 71.1104 34.972 71.1458 35.0748C71.1811 35.1969 71.21 35.3126 71.2357 35.4219C71.2614 35.5343 71.2582 35.6243 71.2229 35.695C71.2068 35.711 71.1747 35.8042 71.1329 35.9777C71.0911 36.148 71.059 36.3472 71.0429 36.569C71.0269 36.7746 71.0204 36.9674 71.0301 37.1473C71.0397 37.3273 71.0526 37.4461 71.0686 37.4976C71.0847 37.5811 71.1233 37.7064 71.1843 37.8703C71.2454 38.0342 71.3096 38.1402 71.3771 38.1916C71.4124 38.2269 71.4639 38.2302 71.5313 38.2045C71.602 38.1788 71.7048 38.1755 71.8398 38.1916C71.9458 38.1916 72.0551 38.2077 72.1772 38.243C72.2961 38.2784 72.4407 38.2944 72.6142 38.2944C72.717 38.2944 72.8327 38.2784 72.9612 38.243C73.0897 38.2077 73.2311 38.1916 73.3853 38.1916C73.5074 38.1916 73.6295 38.2012 73.7613 38.2173C73.8898 38.2334 74.0215 38.243 74.1597 38.243C74.3139 38.243 74.4425 38.2334 74.5453 38.2173C74.6481 38.2012 74.7413 38.1916 74.828 38.1916C75.053 38.1755 75.1976 38.1691 75.265 38.1788C75.3357 38.1884 75.4128 38.1755 75.4996 38.1402C75.6699 38.0727 75.7759 38.002 75.8209 37.9345C75.8627 37.8671 75.9012 37.7032 75.9366 37.4462C75.9526 37.3241 75.9848 37.1859 76.0265 37.0317C76.0683 36.8774 76.0908 36.6911 76.0908 36.4661C76.0908 36.193 76.078 35.9392 76.0523 35.7078C76.0265 35.4733 76.0137 35.3319 76.0137 35.2805C76.049 35.1969 76.0812 35.1102 76.1165 35.0234C76.1519 34.9399 76.1519 34.776 76.1165 34.535C76.0812 34.294 76.0619 34.1302 76.0523 34.0466C76.0426 33.9599 76.049 33.8474 76.0651 33.7092C76.0812 33.6257 76.0876 33.5132 76.078 33.3751C76.0683 33.2401 76.0651 33.1084 76.0651 32.9895C76.0651 32.922 76.0747 32.8096 76.0908 32.6553C76.1069 32.5011 76.1165 32.3212 76.1165 32.1155C76.1165 31.9774 76.094 31.836 76.0523 31.6882C76.0105 31.5436 75.9976 31.4022 76.0137 31.264C76.0137 31.0937 76.0137 30.9459 76.0008 30.827C75.9912 30.7049 75.988 30.5957 75.988 30.4929C75.988 30.4415 76.0008 30.3579 76.0265 30.2455C76.0523 30.1362 76.0812 30.0238 76.1165 29.9113C76.1519 29.802 76.1968 29.6928 76.2579 29.59C76.3189 29.4872 76.3736 29.4261 76.425 29.41C76.4603 29.3747 76.5053 29.3586 76.5664 29.3586C76.6274 29.3586 76.6756 29.394 76.7077 29.4615C76.7431 29.4968 76.7784 29.5418 76.8106 29.6028C76.8459 29.6639 76.8973 29.7281 76.9648 29.7956C77.0869 29.9338 77.1736 30.0591 77.2251 30.1683C77.2765 30.2808 77.3182 30.3901 77.3536 30.4929C77.3696 30.5443 77.3953 30.5828 77.4307 30.6085C77.4628 30.6343 77.4982 30.6632 77.5335 30.6985C77.5496 30.7306 77.5721 30.7756 77.5978 30.827C77.6235 30.8785 77.6428 30.9299 77.662 30.9813C77.7135 31.1194 77.7809 31.3122 77.8677 31.5596C77.9544 31.8103 78.0219 31.9774 78.0733 32.0641C78.1087 32.0962 78.1504 32.1412 78.2019 32.1926C78.2533 32.244 78.295 32.3019 78.3304 32.3726C78.3657 32.424 78.3914 32.4754 78.4075 32.5268C78.4236 32.5782 78.4493 32.62 78.4846 32.6553C78.52 32.6907 78.5457 32.7357 78.5617 32.7967C78.581 32.8578 78.6131 32.9542 78.6646 33.0923C78.6838 33.1277 78.7095 33.1662 78.7417 33.208C78.777 33.253 78.8124 33.2915 78.8477 33.3237C78.9312 33.4265 78.9762 33.51 78.9762 33.5679C78.9762 33.6289 78.9923 33.7028 79.0276 33.7864C79.0437 33.841 79.0726 33.9245 79.1176 34.0466C79.1594 34.1655 79.2236 34.294 79.3104 34.4322C79.3618 34.5511 79.4389 34.6507 79.5417 34.7278C79.6446 34.8049 79.7217 34.8885 79.7731 34.972C79.8245 35.0588 79.8727 35.1616 79.9145 35.2805C79.9562 35.4026 79.9948 35.4958 80.0301 35.5632C80.0655 35.6339 80.0912 35.7078 80.1073 35.7849C80.1233 35.8621 80.149 35.9167 80.1844 35.952C80.2197 35.9874 80.2551 36.0388 80.2872 36.1063C80.3225 36.1737 80.3579 36.2348 80.39 36.2862C80.4607 36.5079 80.541 36.72 80.6374 36.916C80.7306 37.1152 80.8366 37.308 80.9587 37.4976C81.0423 37.6679 81.129 37.7835 81.2158 37.8446C81.2993 37.9056 81.3861 37.9506 81.4728 37.986C81.5403 38.0213 81.6689 38.0856 81.8584 38.1788C82.048 38.2719 82.2022 38.3362 82.3211 38.3715C82.3565 38.3715 82.4047 38.3619 82.4657 38.3458C82.5236 38.3298 82.5717 38.3201 82.6071 38.3201C82.8127 38.3201 83.0312 38.3073 83.2626 38.2816C83.4939 38.2559 83.7124 38.2269 83.9181 38.1916C84.0048 38.1755 84.1526 38.182 84.3583 38.2173C84.5639 38.2527 84.7695 38.2687 84.9752 38.2687C85.0427 38.2687 85.1455 38.2591 85.2837 38.243C85.4218 38.2269 85.5632 38.2012 85.7078 38.1659C85.8556 38.1306 85.9873 38.0856 86.1094 38.0245C86.2283 37.9635 86.3151 37.8992 86.3665 37.8317C86.4179 37.745 86.4597 37.5811 86.495 37.3401C86.5304 37.1023 86.5368 36.9128 86.5207 36.7746Z" fill="#1A1208"/>
<path d="M101.716 20.063C101.68 20.063 101.581 20.0758 101.42 20.1015C101.256 20.1272 101.054 20.1304 100.813 20.1144H98.9847C98.6923 20.1144 98.4834 20.1047 98.3549 20.0887C98.2264 20.0694 98.1171 20.0694 98.0336 20.0887C97.7926 20.1401 97.6319 20.1915 97.5548 20.2429C97.4777 20.2943 97.3813 20.4036 97.2592 20.5771C97.2238 20.6285 97.1821 20.7024 97.1307 20.7956C97.0793 20.8887 97.0278 20.9723 96.9764 21.0398C96.909 21.1265 96.8318 21.2004 96.7451 21.2583C96.6583 21.3193 96.5973 21.3932 96.5651 21.4767C96.5298 21.5635 96.5009 21.647 96.4752 21.7242C96.4495 21.8013 96.3916 21.9073 96.3081 22.0455C96.2567 22.113 96.2021 22.1901 96.1506 22.2768C96.0992 22.3636 96.0318 22.4664 95.945 22.5853C95.8615 22.7074 95.7779 22.8488 95.7008 23.0094C95.6237 23.1733 95.5594 23.2986 95.508 23.3822C95.4213 23.5203 95.3634 23.6424 95.3281 23.7452C95.2927 23.8481 95.2413 23.9252 95.1739 23.9766C95.0003 24.1469 94.7786 24.1822 94.5055 24.0794C94.3159 23.9927 94.1521 23.7774 94.0139 23.4368C93.9786 23.35 93.9464 23.2601 93.9111 23.1637C93.8757 23.0705 93.8436 22.9966 93.8083 22.9452C93.7215 22.8263 93.6637 22.7235 93.6283 22.6367C93.593 22.6014 93.5608 22.5564 93.5255 22.4953C93.4902 22.4343 93.458 22.3893 93.4227 22.3539C93.3873 22.3186 93.3391 22.2479 93.2813 22.1354C93.2203 22.023 93.156 21.8977 93.0885 21.7627C93.0178 21.6406 92.9471 21.5217 92.87 21.3996C92.7929 21.2807 92.7351 21.194 92.7029 21.1426C92.6162 20.953 92.5134 20.7699 92.3913 20.5899C92.327 20.4935 92.2531 20.41 92.1631 20.3425C92.0474 20.5064 91.9157 20.6702 91.8 20.7891C91.3695 21.3097 91 21.7242 90.6112 22.113C90.3927 22.3636 90.1099 22.5596 89.9011 22.6881L89.8529 22.7138L89.8047 22.7395C89.6697 22.807 89.4833 22.913 89.3934 22.9741L89.3355 23.0126L89.2745 23.0448C89.1845 23.093 89.0881 23.1412 88.9885 23.1894C89.0431 23.2504 89.0849 23.3147 89.1203 23.3822C89.1717 23.4689 89.2263 23.5653 89.2777 23.6681C89.3291 23.7709 89.3709 23.8481 89.4062 23.8995C89.5412 24.0698 89.6504 24.2369 89.7275 24.4007C89.8047 24.5646 89.8786 24.722 89.946 24.8763C90.0328 25.1173 90.0874 25.3068 90.1131 25.445C90.1388 25.5832 90.2031 25.6924 90.3059 25.7792C90.3927 25.8659 90.4601 25.9238 90.5116 25.9591C90.563 25.9945 90.608 26.0716 90.6401 26.1905C90.6754 26.2772 90.7011 26.3672 90.7172 26.4604C90.7365 26.5568 90.7783 26.6467 90.8457 26.7303C90.9325 26.8684 91.0353 27.0355 91.1574 27.2347C91.2763 27.4307 91.3791 27.6075 91.4659 27.7617C91.498 27.8292 91.5558 27.8934 91.6329 27.9545C91.7101 28.0155 91.7647 28.0701 91.8 28.1216C91.8354 28.1922 91.8514 28.2726 91.8514 28.3658C91.8514 28.4589 91.8675 28.5425 91.9029 28.61C91.9382 28.6807 91.9768 28.7481 92.0185 28.8188C92.0603 28.8863 92.0989 28.9377 92.1342 28.973C92.1695 29.0566 92.2017 29.153 92.237 29.2558C92.2724 29.3586 92.2981 29.4968 92.3141 29.6671C92.3141 29.7538 92.3013 29.8567 92.2756 29.9756C92.2499 30.0977 92.237 30.2262 92.237 30.3643C92.237 30.5186 92.2274 30.6632 92.2113 30.8013C92.1953 30.9395 92.1856 31.068 92.1856 31.1869C92.1856 31.3572 92.2081 31.5082 92.2499 31.6368C92.2917 31.7653 92.3141 31.8906 92.3141 32.0095C92.3334 32.2505 92.3463 32.4368 92.3527 32.5654C92.3623 32.6939 92.3655 32.7742 92.3655 32.8096C92.3848 32.9124 92.3752 33.0248 92.3398 33.1437C92.2724 33.4715 92.2724 33.7542 92.3398 33.9952C92.3752 34.098 92.3913 34.1752 92.3913 34.2266C92.3913 34.278 92.3752 34.3808 92.3398 34.535C92.3045 34.6218 92.2852 34.715 92.2756 34.8178C92.2659 34.9206 92.2724 35.0748 92.2884 35.2805C92.2884 35.3672 92.2981 35.4733 92.3141 35.6018C92.3334 35.7335 92.3398 35.8749 92.3398 36.0291C92.3591 36.148 92.3655 36.2701 92.3655 36.389V36.8003C92.3655 36.8356 92.3591 36.8903 92.3398 36.9674C92.3238 37.0445 92.3141 37.128 92.3141 37.2116C92.3141 37.3658 92.3174 37.4719 92.327 37.5233C92.3366 37.5747 92.3655 37.6582 92.417 37.7803C92.5198 37.9699 92.6194 38.0856 92.7158 38.1273C92.809 38.1691 93.0114 38.2077 93.3199 38.243H94.1167C94.2902 38.243 94.4477 38.2462 94.5955 38.2559C94.7401 38.2655 94.8461 38.2591 94.9168 38.243C95.0003 38.2077 95.0614 38.1948 95.0967 38.2045C95.1321 38.2141 95.2156 38.2269 95.3538 38.243C95.4405 38.2784 95.5562 38.2848 95.7008 38.2687C95.8486 38.2527 95.99 38.2527 96.1249 38.2687C96.2631 38.2687 96.3499 38.2655 96.3852 38.2559C96.4173 38.2462 96.4945 38.2334 96.6166 38.2173C96.684 38.2012 96.7322 38.2045 96.7579 38.2302C96.7836 38.2559 96.8222 38.2527 96.8736 38.2173C96.925 38.182 96.9668 38.137 97.0021 38.0759C97.0375 38.0149 97.0632 37.9763 97.0793 37.9603C97.1146 37.9088 97.1564 37.7964 97.2078 37.6261C97.2592 37.4526 97.2849 37.324 97.2849 37.2373C97.2849 37.067 97.2881 36.9096 97.2977 36.7617C97.3074 36.6172 97.3106 36.4758 97.3106 36.3376C97.3106 36.148 97.3202 35.9809 97.3363 35.8364C97.3524 35.6886 97.362 35.5472 97.362 35.409C97.346 35.1712 97.3267 34.972 97.3106 34.8178C97.2945 34.6636 97.2753 34.5607 97.2592 34.5093C97.2431 34.4065 97.2303 34.3165 97.2206 34.2394C97.211 34.1623 97.2206 34.0627 97.2335 33.9438C97.2495 33.8731 97.272 33.7703 97.2977 33.6321C97.3235 33.4972 97.3363 33.3333 97.3363 33.1437C97.3524 33.0248 97.362 32.8963 97.362 32.7581V32.3469C97.362 32.2087 97.3588 32.0802 97.3492 31.9581C97.3395 31.8392 97.3363 31.7107 97.3363 31.5725C97.3363 31.4343 97.3202 31.3026 97.2849 31.1741C97.2495 31.0455 97.2335 30.9138 97.2335 30.7756C97.2174 30.5861 97.2206 30.419 97.2463 30.2712C97.272 30.1266 97.2849 30.027 97.2849 29.9756C97.2495 29.892 97.2303 29.8277 97.2206 29.7828C97.211 29.741 97.2335 29.6414 97.2849 29.4872C97.3202 29.4004 97.3363 29.3233 97.3363 29.2558V29.1273C97.3363 29.0759 97.3717 29.0148 97.4391 28.9473C97.5098 28.8767 97.5677 28.8092 97.6191 28.7417C97.6898 28.6549 97.7476 28.5296 97.799 28.3658C97.8504 28.2051 97.8954 28.0541 97.9275 27.9159C97.9821 27.7778 98.0657 27.6428 98.1878 27.5046C98.2713 27.4179 98.3549 27.3472 98.432 27.2861C98.5091 27.2251 98.5637 27.1512 98.5991 27.0676C98.6666 26.8941 98.7405 26.7142 98.8176 26.5246C98.8947 26.3383 98.9943 26.1551 99.1132 25.9848C99.1999 25.8466 99.2738 25.7374 99.3317 25.6506C99.3927 25.5639 99.4409 25.4771 99.4731 25.3936C99.5598 25.2394 99.6209 25.114 99.6562 25.0176C99.6883 24.9245 99.7237 24.8345 99.759 24.7477C99.8265 24.5774 99.8683 24.4521 99.8876 24.375C99.9036 24.2979 99.955 24.2079 100.042 24.1051C100.074 24.0537 100.135 23.9927 100.222 23.9252C100.308 23.8577 100.366 23.7774 100.402 23.6938C100.437 23.6071 100.466 23.5139 100.492 23.4111C100.517 23.305 100.566 23.1958 100.633 23.0737C100.684 22.9901 100.752 22.9066 100.839 22.8295C100.925 22.7524 101.003 22.672 101.07 22.5853C101.311 22.1579 101.459 21.8655 101.51 21.7113C101.526 21.676 101.539 21.6149 101.549 21.5282C101.555 21.4446 101.578 21.3739 101.613 21.3225C101.716 21.1362 101.806 21.0076 101.883 20.9369C101.96 20.8695 102.008 20.7731 102.024 20.6542C102.092 20.3264 101.989 20.1304 101.716 20.063Z" fill="#1A1208"/>
<path d="M108.203 36.0292C108.152 35.891 108.097 35.801 108.036 35.7593C107.975 35.7143 107.895 35.6436 107.792 35.5375C107.551 35.3512 107.358 35.2162 107.214 35.1391C107.066 35.062 106.831 35.0234 106.503 35.0234C106.385 35.0234 106.285 35.017 106.208 34.9977C106.131 34.9817 106.015 35.0074 105.861 35.0749C105.691 35.1455 105.578 35.2002 105.527 35.2419C105.475 35.2869 105.405 35.3576 105.321 35.4604C105.183 35.5986 105.083 35.7335 105.025 35.8621C104.964 35.9906 104.916 36.1223 104.881 36.2605C104.849 36.3987 104.826 36.5401 104.817 36.6846C104.81 36.8324 104.839 36.9995 104.907 37.1859C104.926 37.2566 104.984 37.3401 105.09 37.4462C105.193 37.549 105.308 37.6454 105.437 37.7418C105.565 37.835 105.694 37.9185 105.822 37.986C105.951 38.0534 106.041 38.1049 106.092 38.1402C106.128 38.1563 106.185 38.1755 106.272 38.1916C106.359 38.2077 106.497 38.2173 106.683 38.2173C106.924 38.2013 107.075 38.182 107.136 38.1659C107.194 38.1498 107.268 38.1145 107.355 38.0631C107.493 37.9763 107.628 37.8832 107.766 37.7803C107.904 37.6775 108.017 37.5554 108.1 37.4205C108.187 37.2984 108.242 37.1795 108.268 37.0574C108.293 36.9385 108.316 36.826 108.332 36.7232C108.351 36.5015 108.306 36.2701 108.203 36.0292ZM108.978 22.0455C108.942 21.9587 108.929 21.8816 108.939 21.8141C108.945 21.7435 108.958 21.6149 108.978 21.4253C108.994 21.2904 108.997 21.1362 108.99 20.9627C108.981 20.7924 108.978 20.6381 108.978 20.5C108.978 20.3971 108.968 20.2622 108.952 20.1015C108.933 19.9377 108.901 19.777 108.849 19.6228C108.798 19.4685 108.727 19.3368 108.643 19.2243C108.557 19.1119 108.438 19.0573 108.28 19.0573C108.059 19.0219 107.904 19.0091 107.818 19.0187C107.731 19.0283 107.57 19.0315 107.329 19.0315C107.053 19.0315 106.802 19.054 106.568 19.0958C106.336 19.1376 106.185 19.1601 106.118 19.1601C106.031 19.1761 105.951 19.1697 105.874 19.1344C105.797 19.099 105.716 19.0733 105.63 19.0573C105.543 19.0219 105.466 19.0283 105.398 19.0701C105.327 19.1119 105.225 19.144 105.09 19.1601C104.9 19.1761 104.759 19.189 104.662 19.1986C104.569 19.2083 104.463 19.2629 104.341 19.3657C104.274 19.4171 104.229 19.4685 104.213 19.5199C104.196 19.5714 104.171 19.6324 104.135 19.6999C104.1 19.8027 104.1 19.9216 104.135 20.0501C104.171 20.1786 104.203 20.3104 104.238 20.4485C104.254 20.5 104.241 20.5867 104.2 20.7056C104.158 20.8245 104.135 20.937 104.135 21.0398C104.135 21.1779 104.158 21.2936 104.2 21.3868C104.241 21.4832 104.28 21.5635 104.315 21.6342C104.331 21.7177 104.328 21.8045 104.302 21.8913C104.277 21.9748 104.248 22.1387 104.213 22.3797C104.196 22.4311 104.184 22.4921 104.174 22.5596C104.164 22.6271 104.171 22.6785 104.187 22.7138C104.203 22.7492 104.229 22.8391 104.264 22.9837C104.299 23.1315 104.325 23.2986 104.341 23.4882C104.341 23.726 104.351 23.9734 104.367 24.2208C104.383 24.4714 104.434 24.7156 104.521 24.9534C104.54 25.0402 104.54 25.1398 104.521 25.2522C104.505 25.3615 104.495 25.4868 104.495 25.6249C104.515 25.7438 104.531 25.8691 104.547 25.9977C104.566 26.1262 104.582 26.2258 104.598 26.2933C104.598 26.7046 104.669 27.1191 104.804 27.5304C104.804 27.5657 104.813 27.6428 104.829 27.7617C104.849 27.8806 104.855 28.0091 104.855 28.1473C104.874 28.475 104.907 28.6967 104.958 28.8188C104.993 28.9024 104.997 28.9891 104.971 29.0759C104.945 29.1626 104.932 29.2719 104.932 29.41C104.932 29.4615 104.942 29.5643 104.958 29.7185C104.977 29.8727 104.997 30.0334 105.025 30.1941C105.051 30.3579 105.08 30.5122 105.115 30.66C105.148 30.8046 105.173 30.9042 105.193 30.9556C105.193 30.9909 105.183 31.0552 105.167 31.1484C105.148 31.2416 105.148 31.3315 105.167 31.4183C105.183 31.5564 105.218 31.685 105.27 31.8039C105.321 31.926 105.363 32.0288 105.398 32.1155C105.501 32.3726 105.655 32.5268 105.861 32.5782C105.964 32.6136 106.214 32.6296 106.606 32.6296C106.969 32.6136 107.201 32.5879 107.304 32.5525C107.406 32.5172 107.519 32.4401 107.638 32.3212C107.724 32.2184 107.795 32.1155 107.856 32.0095C107.917 31.9067 107.956 31.7524 107.972 31.5468C107.972 31.4279 107.962 31.3187 107.946 31.2255C107.93 31.1323 107.93 31.0584 107.946 31.007C107.982 30.9395 108.01 30.8592 108.036 30.7756C108.062 30.6889 108.075 30.5443 108.075 30.3387C108.094 30.1651 108.107 29.9948 108.113 29.8213C108.123 29.651 108.145 29.4968 108.178 29.3586C108.197 29.2398 108.226 29.0984 108.268 28.9345C108.313 28.7706 108.341 28.6293 108.357 28.5072V28.1473C108.357 28.0284 108.367 27.932 108.383 27.8645C108.402 27.797 108.412 27.7199 108.412 27.6332V27.4018C108.412 27.3151 108.406 27.238 108.399 27.1705C108.39 27.0998 108.393 27.0484 108.412 27.0162C108.412 26.7238 108.454 26.4057 108.541 26.0619C108.573 25.9752 108.605 25.8916 108.631 25.8049C108.656 25.7181 108.669 25.5832 108.669 25.3936V24.9534C108.669 24.7992 108.676 24.6546 108.695 24.5164C108.727 24.2594 108.762 24.0666 108.798 23.938C108.83 23.8095 108.839 23.6681 108.823 23.5139C108.804 23.3404 108.798 23.1572 108.798 22.958C108.798 22.7588 108.823 22.5949 108.875 22.4568C108.907 22.354 108.942 22.2865 108.978 22.2511C109.01 22.2158 109.01 22.1483 108.978 22.0455Z" fill="#1A1208"/>
<path d="M38.7155 7.00469C38.8761 7.05932 38.9018 7.05932 39.1718 6.97899C39.6023 6.84403 39.869 6.65767 40.1389 6.25603C40.2192 6.09537 40.6209 5.12821 40.6209 4.96755C40.6209 4.88722 40.2996 4.27029 40.2192 4.16426C40.1646 4.10964 40.0843 4.05823 40.004 4.02931C39.8979 3.97468 39.8433 3.94898 39.6537 3.97468C39.1975 4.00039 39.0625 4.05501 38.8504 4.27029C38.5548 4.5402 38.2335 5.0768 38.0986 5.50415C38.0439 5.6391 38.1243 6.36206 38.1789 6.55164C38.2592 6.82154 38.4488 6.92758 38.7155 7.00791V7.00469Z" fill="#1A1208"/>
<path d="M28.761 12.3803C28.5458 12.406 28.3305 12.6213 28.1987 12.9715C28.173 13.0776 28.0638 13.2414 27.9578 13.3475C27.7714 13.5627 27.4758 14.019 27.3408 14.26C27.2862 14.3403 27.2348 14.4464 27.1802 14.501C27.1255 14.5556 27.0195 14.6616 26.9649 14.7709C26.8846 14.8769 26.7753 15.0376 26.695 15.1211C26.6147 15.2015 26.5086 15.3364 26.4797 15.4167C26.454 15.4714 26.3447 15.632 26.2644 15.7381C26.1584 15.8184 26.0234 16.008 25.9142 16.114C25.8339 16.1943 25.6989 16.355 25.6186 16.4096C25.5382 16.4899 25.4033 16.6795 25.323 16.8112C25.1623 17.0522 25.1077 17.1069 24.7864 17.3221C24.5711 17.4571 24.3558 17.6435 24.2755 17.6981C23.9799 17.968 23.8192 18.0483 23.4433 18.209C23.1755 18.2989 22.9345 18.3257 22.7203 18.2893C22.2383 18.1833 22.0488 18.0194 21.8881 17.6981C21.8078 17.5374 21.7531 17.1069 21.7821 16.3293C21.7821 15.6063 21.9973 14.9894 22.3187 14.3435C22.3187 14.2889 22.6689 13.4053 22.6946 13.325C22.7492 13.1386 22.8553 12.9233 22.881 12.8687C22.9356 12.7884 22.987 12.6277 23.0159 12.4928C23.0416 12.3867 23.1219 12.2229 23.1509 12.1425C23.2055 12.0365 23.2858 11.8469 23.3372 11.6863C23.3629 11.471 23.7389 10.7191 23.8738 10.4524C23.8995 10.3721 24.0891 9.97043 24.4361 9.24426C24.6771 8.76228 24.8924 8.22569 24.9984 7.90437C25.0788 7.63446 25.1591 7.55414 25.3487 7.36777C25.6443 7.07216 25.5897 7.07216 26.9842 7.09787C28.3241 7.09787 28.353 7.09787 28.5393 6.9115C28.594 6.83117 28.6197 6.80547 28.594 6.6416C28.594 6.48094 28.5683 6.42632 28.4879 6.34599C28.2469 6.15962 27.6557 6.13071 27.3601 6.13071C27.0388 6.21103 26.4733 6.15641 26.2869 6.02467C26.152 5.94434 26.1263 5.83831 26.2066 5.64873C26.2869 5.43345 26.4219 5.03181 26.4765 4.87115C26.4765 4.79082 26.5825 4.65587 26.6661 4.52091C26.8524 4.27993 26.9617 4.03894 27.0163 3.76903C27.0163 3.63408 27.0709 3.47342 27.1223 3.39309C27.2573 3.07178 27.148 2.77617 26.8267 2.50948C26.6918 2.42915 26.6114 2.32311 26.6114 2.32311C26.6114 2.21708 26.1295 2.08213 25.9945 2.08213C25.7535 2.08213 25.5382 2.18816 25.323 2.34882C25.2683 2.42915 25.1334 2.53518 25.082 2.5641C24.9213 2.69905 24.7864 2.91433 24.706 3.18103C24.6803 3.31598 24.5711 3.55697 24.5197 3.74333C24.4393 3.90399 24.359 4.14497 24.3333 4.25422C24.3076 4.36026 24.253 4.52413 24.1727 4.63016C24.118 4.73619 24.0377 4.90007 24.012 5.0061C23.9574 5.14105 23.8256 5.40775 23.6618 5.62303C23.3115 6.18533 23.3404 6.15962 22.293 6.105C22.2319 6.105 22.1805 6.10179 22.1227 6.09857C22.1741 6.0568 22.2223 6.02146 22.2672 5.99897C22.3733 5.91864 22.4279 5.83831 22.4825 5.70336C22.5886 5.43345 22.6432 5.30171 22.7492 5.19246C22.9645 4.95148 22.9645 4.63016 22.7749 4.17389C22.6143 3.82366 22.505 3.55697 22.505 3.42201C22.505 3.15532 22.6914 2.94004 23.1219 2.75046C23.3629 2.61551 23.4979 2.50948 23.6039 2.26849C23.7389 2.05321 23.7389 1.89255 23.71 1.7576C23.6039 1.43628 23.334 1.2467 22.987 1.2467C22.8006 1.2467 22.746 1.27241 22.6111 1.35274C22.505 1.40736 22.3412 1.48769 22.2608 1.5134C21.9909 1.59373 21.8849 1.69976 21.5893 2.0757C21.4029 2.31669 21.2937 2.42593 21.1587 2.50626C21.0527 2.56089 20.9434 2.64122 20.8888 2.66692C20.8342 2.72154 20.4325 3.22922 20.3265 3.4445C20.2719 3.49913 20.1915 3.60516 20.1112 3.68549C19.9506 3.82044 19.6549 4.30242 19.6003 4.46308C19.6003 4.5177 19.52 4.67836 19.4654 4.83902C19.4108 4.97397 19.3593 5.16033 19.3304 5.26958C19.3047 5.53948 19.3561 5.88651 19.4654 6.07287C19.5618 6.24317 19.8734 6.53878 20.0727 6.65766C20.0791 6.69944 20.0887 6.74121 20.108 6.77012C20.1626 6.82475 20.5643 7.06573 20.7249 7.12036C20.8599 7.17498 21.8785 7.14606 22.2544 7.09465C22.4408 7.06895 22.4954 7.06895 22.6303 7.12036C22.8713 7.22639 22.9002 7.30672 22.8713 7.73729C22.8167 8.24818 22.7107 8.54058 22.5211 8.81048C22.3058 9.08039 22.2512 9.18642 22.1998 9.42741C22.1998 9.53344 22.1194 9.69731 22.0648 9.80335C22.0102 9.90938 21.8785 10.2596 21.7692 10.5809C21.178 12.1361 20.9113 12.8623 20.8053 12.994C20.6703 13.2093 20.349 13.9066 20.2944 14.0672C20.2944 14.1732 20.214 14.3885 20.1337 14.5492C20.0534 14.7098 19.9473 15.0601 19.8638 15.3011C19.7803 15.542 19.6774 15.783 19.6228 15.8377C19.4365 16.1044 19.4075 16.1879 19.3529 16.4C19.3272 16.5863 19.2983 16.6699 19.1923 16.7759C19.0316 16.9623 18.977 17.0972 18.9513 17.4732C18.8452 18.3857 18.7906 18.707 18.6557 19.0283C18.5496 19.2693 18.5207 19.3239 18.5496 19.4589C18.5753 19.5649 18.5753 19.8091 18.6042 20.0212C18.6042 20.5032 18.8452 21.3354 19.2469 21.6021C19.3015 21.6278 19.4332 21.737 19.5168 21.8174C19.7321 21.978 19.8381 22.0326 20.1337 22.0873C20.2687 22.0873 20.4293 22.113 20.455 22.1419C20.5097 22.1676 20.7506 22.1676 21.0462 22.1419H21.5828L21.9331 21.9555C22.2544 21.8206 22.685 21.5539 22.9517 21.3129C23.3019 21.0976 23.4079 20.9916 23.5943 20.7217C23.6489 20.6413 23.7292 20.5353 23.7806 20.5064C23.8064 20.4518 23.9156 20.3457 23.9702 20.2365C24.0506 20.1304 24.2112 19.9698 24.3205 19.8862C24.4265 19.8059 24.5614 19.671 24.6161 19.5649C24.6964 19.4846 24.886 19.2436 25.0466 19.054C25.2073 18.8677 25.3969 18.6235 25.4772 18.5431C25.5318 18.4628 25.6379 18.3279 25.7182 18.2475C25.8242 18.1415 25.9335 17.9776 26.0395 17.7366C26.2002 17.4667 26.3094 17.335 26.5504 17.0651C26.7914 16.8241 26.9006 16.6634 26.981 16.5028C27.1416 16.1525 27.3569 15.8312 27.5722 15.6449C27.7585 15.4842 27.8132 15.4039 27.9481 15.134C28.0284 14.9733 28.1345 14.7837 28.218 14.7034C28.2726 14.6231 28.4044 14.4624 28.459 14.3532C28.5393 14.2182 28.7 13.9226 28.8607 13.6816C29.1563 13.2254 29.3169 12.8783 29.3169 12.7177C29.3169 12.5313 28.9956 12.3417 28.7546 12.3674L28.761 12.3803Z" fill="#1A1208"/>
<path d="M53.3836 12.3514C53.1973 12.3514 53.0623 12.4317 52.9531 12.5667C52.8984 12.647 52.7924 12.7273 52.7378 12.753C52.6575 12.8076 52.5771 12.9137 52.5225 12.994C52.1723 13.6109 52.1209 13.6656 51.9056 13.8808C51.6903 14.0672 51.6357 14.1507 51.3947 14.6584C51.369 14.713 51.234 14.8737 51.128 15.0087C50.7778 15.3846 50.5368 15.6802 50.4564 15.8666C50.4018 15.9726 50.2958 16.0818 50.1608 16.1879C50.0259 16.2939 49.8909 16.4289 49.8395 16.5092C49.7335 16.6699 49.3833 16.9398 49.2772 16.9398C49.1166 16.9398 49.0362 16.8337 48.927 16.4835C48.9013 16.3485 48.792 16.0272 48.6571 15.8119C48.551 15.571 48.4707 15.3557 48.4418 15.3011C48.4161 15.1661 47.9052 14.4978 47.5293 14.0672C47.3686 13.9065 47.179 13.6913 47.0987 13.6109C47.0441 13.5306 46.6681 13.1547 46.2954 12.7787C45.5435 12.0268 45.2222 11.6509 45.0358 11.2493C44.9009 10.9826 44.8752 10.9279 44.8752 10.7384C44.8752 10.5231 44.9009 10.4685 45.0616 10.1761C45.2222 9.82583 45.4118 9.66517 45.7042 9.4531C46.0255 9.1832 46.3757 9.07716 46.6424 9.15749C46.7774 9.21211 46.8577 9.29244 46.9091 9.50772C46.9091 9.58805 47.0152 9.80334 47.0955 9.96399C47.1758 10.1247 47.2561 10.3656 47.3108 10.5006C47.4971 11.1432 47.6867 11.2525 48.3293 11.3328C48.731 11.3874 48.7599 11.3874 49.0009 11.2782C49.2419 11.1432 49.2965 11.0629 49.5118 10.687C49.6724 10.3913 49.7271 10.07 49.6981 9.53343C49.6981 9.13179 49.6178 8.99683 49.2676 8.67552C49.1326 8.56948 48.9977 8.37991 48.9463 8.29958C48.6796 7.86901 48.1141 7.73727 47.6064 7.73727C47.42 7.73727 47.2304 7.76298 47.0441 7.8176C46.9091 7.87223 46.7228 7.89793 46.5878 7.89793C46.3725 7.89793 46.0512 7.97826 45.8905 8.0843C45.8359 8.11 45.6753 8.19033 45.5403 8.24495C45.1097 8.40561 44.5474 8.78155 44.3868 9.02254C44.2004 9.29244 44.1169 9.37277 43.9851 9.42418C43.8502 9.50451 43.4228 9.85475 43.2076 10.0668C42.9923 10.3078 42.7513 10.6291 42.6453 10.8701C42.5649 11.0051 42.43 11.1657 42.2693 11.3264C42.1087 11.487 41.9994 11.622 41.9737 11.6766C41.9737 11.7698 41.7199 12.2132 41.5271 12.5249C41.4596 12.5924 41.3953 12.6727 41.3568 12.7498C41.3022 12.8301 41.2218 12.9651 41.1704 13.0454C41.1158 13.1257 41.0355 13.2864 41.0098 13.3667C40.9969 13.3956 40.9841 13.4246 40.968 13.4535C40.8748 13.582 40.7784 13.7041 40.6852 13.823C40.6692 13.8487 40.6499 13.8776 40.6338 13.9033C40.4475 14.0897 40.2579 14.3307 40.2065 14.4399C40.1518 14.546 40.0458 14.7066 39.9912 14.7902C39.9366 14.8705 39.8305 15.0054 39.7759 15.0858C39.7502 15.1918 39.6152 15.3814 39.5092 15.4874C39.4032 15.6224 39.2682 15.8376 39.1879 15.9437C39.1076 16.024 38.9983 16.159 38.9469 16.2136C38.8666 16.2682 38.7605 16.4289 38.6513 16.5638C38.5453 16.7245 38.4103 16.8851 38.33 16.9398C38.2239 17.0201 38.0087 17.2354 37.8191 17.4217C37.5235 17.7173 37.0415 18.0644 36.6109 18.0644C36.476 18.0644 36.3957 17.984 36.3153 17.878C36.2093 17.7173 36.1804 17.5567 36.1547 17.1261C36.129 16.6956 36.2093 16.0272 36.341 15.7059C36.3957 15.571 36.4471 15.3557 36.476 15.195C36.5017 15.0344 36.582 14.7645 36.6366 14.6327C36.6913 14.4978 36.7427 14.3114 36.7427 14.2568C36.7427 14.1218 36.823 13.9612 36.929 13.8005C36.9837 13.7459 37.0351 13.5852 37.0897 13.3989C37.1957 12.9683 37.2504 12.8076 37.3596 12.7016C37.4946 12.5956 37.5749 12.4349 37.6809 12.0847C37.7066 11.924 37.8673 11.5738 37.9765 11.2782C38.0312 11.1721 38.4585 10.205 38.4585 10.0989C38.4842 10.0732 38.5645 9.91258 38.6449 9.72301C38.9662 8.9165 38.8055 8.38312 38.1886 8.21925C37.8384 8.13892 37.7066 8.16462 37.4367 8.27387C36.9548 8.54056 36.9001 8.78476 36.7652 9.26674C36.7105 9.37277 36.6591 9.50772 36.6302 9.58805C36.5756 9.74871 36.3346 10.3399 36.1997 10.5809C36.145 10.687 36.0647 10.8508 36.0647 10.9312C36.039 11.0115 35.9587 11.1721 35.8783 11.3071C35.8237 11.4131 35.7434 11.577 35.7434 11.6573C35.7177 11.7377 35.6631 11.9272 35.5827 12.0879C35.5281 12.2743 35.4767 12.4092 35.4767 12.4381C35.4767 12.5185 35.3707 12.7884 35.2903 12.9201C35.2357 13.0004 35.1554 13.1611 35.1297 13.2703C35.0493 13.6463 34.8341 14.1829 34.7537 14.2889C34.6477 14.3949 34.4838 14.7709 34.3521 15.1211C34.3264 15.2271 34.2461 15.4167 34.1914 15.5774C34.1368 15.738 34.0565 15.9533 34.0308 16.0883C34.0051 16.2489 33.9504 16.4096 33.8958 16.4899C33.7609 16.6763 33.6805 16.8659 33.6002 17.0811C33.5745 17.1872 33.4653 17.4025 33.3849 17.5631C33.2789 17.7784 33.1986 17.9937 33.1696 18.2057C33.115 18.421 33.0636 18.6074 32.9544 18.7681C32.8483 18.9544 32.8194 19.0894 32.768 19.3593C32.7423 19.5456 32.7134 19.7609 32.6877 19.8412C32.6073 20.1111 32.5816 20.5642 32.6331 20.8598C32.8483 21.7177 33.0347 21.8527 33.8669 22.0937C34.0019 22.1483 34.1882 22.174 34.2685 22.174C34.4838 22.174 34.9915 22.0133 35.3674 21.8527C35.8783 21.5828 36.0101 21.5024 36.145 21.2615C36.2254 21.1265 36.3603 20.9948 36.4406 20.9401C36.6816 20.7795 37.1379 20.2975 37.5138 19.7866C37.7002 19.5456 37.9155 19.3046 37.9701 19.25C38.0247 19.2243 38.1854 19.0347 38.2914 18.8741C38.5067 18.6074 38.7477 18.3118 38.9341 18.0162C39.0144 17.9358 39.1204 17.7752 39.175 17.6659C39.2297 17.531 39.3357 17.4249 39.4707 17.3157C39.6056 17.1807 39.657 17.1004 39.7406 16.9398C39.7663 16.8048 39.8755 16.6442 40.0105 16.4835C40.1165 16.3228 40.2804 16.1333 40.3061 16.0529C40.3607 15.9726 40.4667 15.8119 40.5471 15.7316C40.6274 15.6256 40.7623 15.436 40.8138 15.3011C40.8684 15.195 40.9487 15.0601 41.0001 15.0054C41.0355 14.9701 41.1062 14.8737 41.1801 14.7677C41.1801 14.7677 41.1833 14.7677 41.1865 14.7645C41.3471 14.6295 41.9641 13.7973 42.1793 13.4246C42.3657 13.0743 42.6356 12.753 42.7963 12.6727C42.9312 12.6181 43.0116 12.647 43.1979 12.7787C43.3586 12.9394 43.7602 13.5563 43.8952 13.8262C43.9209 13.9322 44.0301 14.1475 44.1105 14.2568C44.1651 14.3917 44.2711 14.5524 44.3257 14.6584C44.3804 14.7387 44.4318 14.8191 44.4607 14.8191C44.541 14.8448 44.7563 15.1693 44.8623 15.4103C44.917 15.5453 45.023 15.7316 45.1033 15.8409C45.2929 16.0561 45.3443 16.1622 45.3989 16.4032C45.4536 16.5092 45.505 16.6442 45.5596 16.7245C45.6945 16.9108 45.746 17.0201 45.8006 17.3414C45.9066 17.8234 45.9066 18.013 45.8263 18.3889C45.746 18.8709 45.6913 19.0315 45.5564 19.2211C45.5018 19.3014 45.4503 19.4364 45.4214 19.5167C45.3411 19.7866 44.2422 20.7763 43.9723 20.8566C43.892 20.8823 43.7024 20.9369 43.5963 20.9916C43.2461 21.1522 43.0855 21.1265 42.8734 20.9112C42.6324 20.6445 42.6581 20.2943 42.928 19.9473C43.0083 19.867 43.0887 19.7609 43.1144 19.7063C43.169 19.6003 43.41 18.8484 43.4646 18.6588C43.4903 18.5528 43.5449 18.3375 43.6253 18.2025C43.8406 17.772 43.8116 17.6402 43.4646 17.1293C43.2782 16.8337 43.1433 16.7277 42.9537 16.6988C42.8734 16.6731 42.6838 16.6442 42.5778 16.5927L42.3368 16.5381L41.9609 16.6184C41.45 16.7245 40.9423 16.9398 40.5663 17.3157C40.486 17.3703 40.4057 17.5021 40.3511 17.5567C40.3254 17.637 40.2161 17.7977 40.1101 17.878C39.6795 18.3086 39.4931 19.2468 39.4931 19.8637C39.4931 20.3457 39.5735 20.9112 39.9751 21.2582C40.0554 21.3129 40.2161 21.4446 40.3254 21.5282C40.6467 21.8238 40.8362 21.9298 40.9969 21.9844C41.0772 21.9844 41.2379 22.039 41.3728 22.0905C41.7231 22.1708 42.0701 22.2254 42.4203 22.2254C42.6356 22.2254 42.8766 22.1997 43.1979 22.1708C43.3586 22.1451 43.5192 22.1451 43.5482 22.1451C43.6831 22.1997 44.3804 22.0905 44.541 22.0101C44.6213 21.9844 44.8366 21.9041 45.023 21.8495C45.505 21.6888 46.0416 21.4735 46.2568 21.3675C46.3629 21.3129 46.5268 21.2325 46.6071 21.2068C46.7677 21.1265 46.9573 20.9916 47.6546 20.3232C47.8956 20.0822 48.2169 19.7866 48.3775 19.626C49.0491 19.009 49.6371 18.4178 49.7977 18.2315C49.8781 18.0965 50.0387 17.9101 50.1191 17.8009C50.1994 17.6949 50.3858 17.5053 50.495 17.3446C50.63 17.2097 50.7906 17.0233 50.8452 16.9141C50.9256 16.808 51.0316 16.6442 51.1409 16.5638C51.2469 16.4578 51.3818 16.2682 51.4622 16.1622C51.5425 16.0272 51.7032 15.8409 51.7835 15.7605C51.9184 15.6545 51.9988 15.5195 52.0791 15.33C52.1851 15.1147 52.2655 15.0087 52.455 14.848C52.59 14.713 52.7217 14.5524 52.831 14.3917C52.9113 14.2311 53.072 14.0415 53.1523 13.9355C53.3386 13.6945 53.7146 12.9426 53.7435 12.7562C53.7692 12.6213 53.7435 12.5956 53.6375 12.4863C53.5314 12.3803 53.5025 12.3514 53.3676 12.3514H53.3836Z" fill="#1A1208"/>
<path d="M95.4116 12.3514C95.0099 12.3514 94.6597 12.8333 94.4991 13.1579C94.4444 13.2639 94.3384 13.4535 94.2581 13.5338C94.2034 13.6141 94.0974 13.8037 94.0171 13.9355C93.9368 14.1218 93.8018 14.2857 93.6154 14.4978C93.4548 14.6584 93.2652 14.8994 93.1592 15.0344C93.0788 15.195 92.8378 15.436 92.6483 15.6256C92.4619 15.8119 92.2723 16.0272 92.2177 16.0819C91.8161 16.6988 91.1188 17.3157 90.5019 17.7174C90.3669 17.8234 89.7789 17.9873 89.5893 17.9873C89.4544 18.013 89.3227 17.8812 89.268 17.6916C89.2423 17.5053 89.2937 17.1293 89.403 16.7534C89.4576 16.5927 89.509 16.4032 89.5379 16.2971C89.6183 16.0015 89.8593 15.3846 89.9396 15.2496C89.9942 15.1693 90.0456 15.0087 90.1002 14.8737C90.1806 14.5235 90.3701 14.1218 90.5019 13.8551C90.5822 13.7202 90.6625 13.5595 90.6625 13.4792C90.6882 13.3732 90.7686 13.1836 90.8232 13.0229C90.8778 12.8623 90.9839 12.5924 91.0642 12.3803C91.1445 12.165 91.2248 11.924 91.2505 11.8437C91.2763 11.7634 91.3309 11.6027 91.4112 11.4678C91.5172 11.2525 91.5172 11.1979 91.5172 11.0115C91.5172 10.8765 91.5429 10.6902 91.5976 10.5552C91.6779 10.2339 91.6779 9.77763 91.5976 9.24104C91.3823 8.16784 90.4183 7.90115 89.4769 7.90115C88.966 7.90115 88.86 7.90115 88.725 7.95577C88.6447 7.98148 88.4294 8.06181 88.2687 8.09072C88.0824 8.14535 87.8671 8.22568 87.7868 8.27709C87.5458 8.38312 87.0638 8.73336 86.8196 8.94864C86.7393 9.05467 86.5786 9.18963 86.4694 9.24425C86.389 9.29887 86.283 9.40491 86.2284 9.48524C86.2027 9.53986 86.0934 9.64589 86.0131 9.72622C85.6918 9.96721 85.6115 10.0765 85.5022 10.2628C85.3962 10.4781 85.0459 10.8251 84.9656 10.8251C84.8307 10.8251 84.8307 10.5552 84.911 10.2885C84.9656 10.1536 85.017 9.6973 85.0459 9.32458C85.0459 9.16392 84.9399 9.05467 84.6443 8.89401L84.429 8.78798L84.1077 8.86831C83.4651 9.00326 83.0345 9.43061 82.9542 10.0765C82.8996 10.3174 82.8738 10.4267 82.6039 10.9087C82.5236 11.0436 82.4176 11.2589 82.3629 11.4196C82.3083 11.5545 82.2569 11.7409 82.2023 11.8212C82.1316 12.1168 82.0513 12.4028 81.9485 12.6823C81.791 12.8462 81.6689 13.0518 81.5854 13.2157C81.4504 13.537 81.1034 13.9676 80.7821 14.2889C80.676 14.3949 80.5122 14.5845 80.4608 14.6648C80.3804 14.7709 80.1909 14.9862 80.0302 15.1757C79.8438 15.3621 79.68 15.5517 79.5996 15.6866C79.4647 15.9565 79.2783 16.1429 79.0373 16.3036C78.9024 16.3839 78.6614 16.5735 78.4204 16.8145C78.0991 17.1647 78.0188 17.245 77.7778 17.351C77.6428 17.4057 77.4275 17.5374 77.2958 17.621C76.7592 17.9423 76.409 18.1318 76.168 18.1833C76.033 18.209 75.8724 18.2636 75.8177 18.3182C75.7374 18.3439 75.6025 18.3985 75.4964 18.4242C75.3615 18.4789 75.2008 18.5303 75.0659 18.5849C74.9052 18.6652 74.8506 18.6652 74.6096 18.6395C74.4489 18.6138 74.179 18.6138 73.967 18.6138C73.1348 18.5592 72.6271 18.4789 72.0359 17.8619C71.6599 17.5117 71.6342 17.4603 71.6053 17.2996C71.5796 17.1936 71.525 17.0297 71.4993 16.9494C71.4189 16.7341 71.4189 16.5188 71.4993 16.3325C71.5796 16.1975 71.6599 16.0626 71.6856 16.0626C71.766 16.0626 72.2768 16.5188 72.3829 16.6538C72.6239 16.9751 73.1894 17.1647 73.938 17.1647C74.208 17.1647 74.2594 17.139 74.42 17.0844C74.5261 17.0297 74.7413 16.9494 74.902 16.9237C75.2779 16.8434 75.3036 16.8434 75.4386 16.7084C75.4643 16.6538 75.625 16.5478 75.7599 16.4931C75.9463 16.4128 76.0298 16.3325 76.1616 16.1975C76.2676 16.0915 76.4025 15.9565 76.5118 15.9019C76.7271 15.7959 77.1833 15.3396 77.3697 15.0151C77.45 14.8801 77.6107 14.6648 77.7713 14.5042C78.1216 14.154 78.3883 13.6463 78.6036 13.2157C78.7642 13.0294 78.8188 12.8944 79.0052 12.0365C79.0855 11.6862 79.1916 11.3939 79.3008 11.1239C79.4068 10.9087 79.4068 10.883 79.4068 10.4813V9.75835C79.4326 9.51737 79.4326 9.48845 79.3522 9.30209C79.2976 9.16713 79.2719 9.00648 79.2462 8.90044C79.2205 8.76549 79.1916 8.68516 79.1112 8.60483C78.9506 8.36384 78.761 8.12286 78.4686 8.04253C78.3626 8.04253 78.173 7.9879 78.067 7.93649C77.826 7.83046 77.6653 7.83046 77.4243 7.91079C77.3183 7.93649 77.1833 7.96541 77.103 7.96541C77.0227 7.96541 76.862 7.99112 76.7271 8.02003C76.621 8.04574 76.3511 8.10036 76.1648 8.12607C75.7631 8.2064 75.6282 8.2321 75.4418 8.39597C75.3872 8.42168 75.2008 8.53093 75.0112 8.63696C74.8249 8.71729 74.6096 8.85224 74.5004 8.93257C74.3943 9.03861 74.2304 9.14785 74.1501 9.20248C73.5589 9.57842 72.354 10.7576 71.978 11.3489C71.8977 11.4549 71.7627 11.6445 71.6567 11.7505C71.5507 11.8565 71.3868 12.0718 71.3065 12.2068C71.0109 12.6631 70.9852 12.6888 70.7699 12.9587C70.6349 13.0936 70.4743 13.3089 70.4196 13.4406C70.3393 13.5467 70.2044 13.762 70.0983 13.8969C69.9087 14.0833 69.883 14.1379 69.8284 14.3789C69.7738 14.5942 69.6935 14.7548 69.5328 14.9958C69.3721 15.2368 69.3175 15.3717 69.2918 15.4778C69.2918 15.5003 69.2886 15.5228 69.2854 15.5453C69.1215 15.7316 69.0316 15.8569 68.9994 15.9598C68.9737 16.0401 68.7584 16.2811 68.5432 16.5221C68.3279 16.7373 68.1126 16.9783 68.0869 17.0587C67.9519 17.2193 67.229 17.8362 67.0394 17.9455C66.9334 18.0001 66.8241 18.0001 66.7181 18.0001C66.5028 18.0001 66.2875 17.9198 66.2072 17.7848C66.1269 17.6499 66.0208 17.0619 66.0208 16.8466C66.0208 16.7405 66.0208 16.6056 66.0465 16.4963C66.0722 16.416 66.1012 16.2811 66.1012 16.2264C66.1012 16.1461 66.1269 15.9855 66.1815 15.8505C66.2072 15.7156 66.2618 15.5292 66.2618 15.4199C66.2618 15.3107 66.3421 15.1243 66.3968 15.0183C66.4514 14.9123 66.5317 14.6681 66.5574 14.5074C66.5831 14.3467 66.6635 14.1315 66.747 14.0254C66.8016 13.8905 66.8819 13.7041 66.9334 13.5435C66.9591 13.4085 67.0683 13.1932 67.1197 13.0326C67.441 12.3899 67.6017 11.9337 67.6306 11.7184C67.6563 11.4228 67.6563 11.3971 67.8459 11.2075C67.9519 11.0725 68.0323 10.9376 68.0612 10.8315C68.0869 10.7255 68.1672 10.5906 68.2218 10.4813C68.2765 10.401 68.3825 10.16 68.4371 9.94472C68.5174 9.72944 68.6235 9.48845 68.7038 9.38241C68.7584 9.27638 68.8645 9.03218 68.9191 8.87152C69.0798 8.49558 69.6163 7.39668 69.777 7.1814C69.883 7.02074 69.9377 6.91471 69.9923 6.6448C70.0726 6.40382 70.0983 6.29457 70.2076 6.18853C70.2622 6.10821 70.3425 5.94755 70.3939 5.8383C70.4743 5.62302 70.5803 5.40774 70.7442 5.16675C70.7699 5.11213 70.9048 4.84543 71.0141 4.60445C71.1201 4.36346 71.284 4.06785 71.3354 3.96182C71.4157 3.85578 71.5217 3.6662 71.5507 3.58588C71.6053 3.50555 71.6856 3.37059 71.766 3.29027C71.8206 3.23564 71.9009 3.04928 71.9555 2.91433C72.0102 2.75367 72.1419 2.45806 72.2768 2.24278C72.5467 1.78651 72.5725 1.62585 72.5725 1.27561C72.5725 0.873969 72.4921 0.713312 72.0905 0.363077C71.9298 0.202419 71.7402 0.0674665 71.6888 0.0417612C71.5828 -0.0128625 71.1779 -0.0128625 70.937 0.0417612C70.7763 0.0674665 70.696 0.12209 70.6156 0.202419C70.5353 0.282748 70.4293 0.363077 70.3457 0.388782C70.2108 0.494817 69.6228 1.64834 69.6228 1.75759C69.6228 1.75759 69.5167 2.02428 69.3818 2.34881C68.9801 3.3963 68.8998 3.58266 68.8709 3.76903C68.8452 3.87506 68.7906 4.03893 68.7359 4.11926C68.6813 4.22529 68.601 4.41487 68.5753 4.52091C68.5207 4.65586 68.4403 4.84222 68.3889 4.95147C68.3086 5.0575 68.1993 5.24708 68.1479 5.40774C68.0933 5.56839 68.013 5.80938 67.9327 5.97004C67.878 6.10499 67.7977 6.37168 67.772 6.50664C67.7174 6.6673 67.637 6.88258 67.5856 6.98861C67.5053 7.06894 67.4507 7.25852 67.425 7.39026C67.3189 7.84652 67.2097 8.00718 66.9141 8.00718C66.8338 8.00718 66.6988 8.00718 66.5638 7.95256C66.4203 7.89901 66.25 7.89044 66.053 7.92685C65.8377 7.95256 65.7316 7.98148 65.6224 7.95256C65.2722 7.87223 64.7902 7.95256 64.2825 8.19355C63.5049 8.54378 63.4246 8.59519 63.129 8.8908C62.9426 9.05146 62.7787 9.21212 62.647 9.26674C62.3257 9.4531 61.4389 10.1536 61.2525 10.5263C61.1979 10.6323 61.0918 10.7673 61.0372 10.8219C60.9569 10.8765 60.8508 11.0083 60.7673 11.0918C60.7127 11.1721 60.552 11.3874 60.3914 11.5481C60.0958 11.8694 59.8001 12.2453 59.7198 12.5152C59.6652 12.5956 59.6138 12.7016 59.5335 12.7562C59.4788 12.8109 59.3728 12.9169 59.2925 13.0229C59.1318 13.1836 58.6498 13.8294 58.5952 14.0415C58.5149 14.3628 58.4346 14.4978 58.2193 14.7388C58.0586 14.9251 57.9494 15.089 57.9494 15.2496C57.9494 15.2753 57.869 15.436 57.763 15.571C57.657 15.7316 57.5477 15.9469 57.522 16.0529C57.4417 16.2682 57.3324 16.5092 57.0658 17.0715C56.9308 17.3125 56.8505 17.5278 56.7958 17.7688C56.7701 17.9294 56.6898 18.1993 56.6352 18.3311C56.5806 18.466 56.5291 18.601 56.5291 18.6267C56.5291 18.6524 56.5034 18.842 56.4488 19.0283C56.3428 19.43 56.3139 19.6999 56.2882 20.0758C56.2625 20.426 56.2882 20.5064 56.4488 20.9626C56.5838 21.3386 56.7444 21.5796 57.0111 21.7948C57.3324 22.0905 57.3614 22.0905 57.6538 22.0648C57.869 22.039 57.9494 22.039 58.11 22.1194C58.3253 22.1997 58.4313 22.1997 58.6209 22.1194C58.727 22.0937 58.9165 22.0133 59.0772 21.9844C59.4788 21.8495 59.6684 21.7434 60.3367 21.0976C60.4974 20.9369 60.7673 20.7217 60.899 20.6413C61.0854 20.5064 61.1947 20.3714 61.3553 20.1594C61.4613 19.9987 61.6766 19.7577 61.8373 19.5681C61.9979 19.4075 62.1586 19.2179 62.1875 19.1665C62.2936 18.9801 62.5088 18.9512 62.5635 19.1408C62.5635 19.1665 62.5892 19.3271 62.5892 19.491C62.6149 19.7063 62.6149 19.8123 62.5345 20.0276C62.4799 20.2686 62.4799 20.3778 62.4799 20.6445C62.5603 21.1265 62.6149 21.4221 62.9908 21.7981C63.0968 21.9041 63.6334 22.174 63.7941 22.1997C64.064 22.28 64.411 22.1997 64.9476 21.9844C65.028 21.9298 65.1886 21.9041 65.3236 21.8784C65.5099 21.8238 65.5389 21.8238 65.8055 21.5282C65.9662 21.3675 66.3164 21.0173 66.5574 20.7506C67.0683 20.2686 67.6306 19.5713 67.8459 19.1665C67.9166 19.0219 68.0548 18.858 68.1961 18.6909C68.1672 18.903 68.1704 18.9833 68.1961 19.1119C68.2218 19.2179 68.2218 19.4621 68.2218 19.6228C68.2218 20.2943 68.4917 21.1522 69.1344 21.4735C69.2693 21.5282 69.43 21.6342 69.5103 21.6888C69.6163 21.7691 69.7256 21.8495 69.7513 21.8752C69.8573 21.9298 70.2622 22.0101 70.7442 22.0358C70.9594 22.0615 71.3065 22.1162 71.496 22.1708C71.7113 22.1965 71.8977 22.2254 71.978 22.2254C72.354 22.2254 72.8906 22.1708 73.2376 22.0648C73.5075 21.9587 73.9348 21.8238 74.1758 21.7691C74.4714 21.7145 75.008 21.4478 75.2233 21.2872C75.3293 21.2068 75.4643 21.1265 75.5735 21.1008C75.7888 21.0205 75.8692 20.9659 76.1358 20.7506C76.4315 20.5096 76.6467 20.3489 76.9424 20.1883C77.238 20.0276 77.2637 20.0276 77.479 19.732C77.6139 19.5713 77.7199 19.491 77.9095 19.3818C78.1505 19.2468 78.1794 19.2211 78.5811 18.7905C78.716 18.6299 78.957 18.3889 79.063 18.2539C79.198 18.119 79.3586 17.9037 79.4647 17.7977C79.5707 17.6627 79.7346 17.4764 79.8663 17.3414C80.0013 17.2354 80.1362 17.0458 80.1876 16.9398C80.2198 16.8787 80.2776 16.8016 80.3483 16.7181C80.3483 16.7181 80.3483 16.7213 80.3483 16.7245C80.268 16.9944 80.1876 17.3157 80.1073 17.5824C80.1073 17.6627 80.027 17.8523 79.9724 17.9583C79.8117 18.2282 79.5964 18.8709 79.4904 19.3271C79.4904 19.3818 79.4358 19.5135 79.3844 19.6228C79.3297 19.7288 79.2783 19.9184 79.2494 20.0244C79.2237 20.1594 79.1691 20.3457 79.0887 20.4807C79.0341 20.5867 78.9538 20.8309 78.9024 20.9916C78.8221 21.2583 78.7963 21.3129 78.8478 21.4735C78.9281 21.9298 79.0341 22.0358 79.4904 22.1451C79.9209 22.2511 80.027 22.2254 80.2423 22.039C80.4286 21.8784 80.5379 21.6631 80.6182 21.3964C80.6182 21.2904 80.6439 21.1811 80.6728 21.1554C80.6728 21.1297 80.7532 21.0205 80.8335 20.9144C80.9941 20.6992 81.2641 20.2172 81.2641 20.1112C81.2641 20.0051 81.3444 19.8155 81.4504 19.6806C81.6111 19.5199 81.881 19.009 81.987 18.7423C82.1477 18.3407 82.6039 17.4282 82.8738 17.0265C82.9799 16.8402 83.1148 16.6249 83.1438 16.5156C83.1695 16.4096 83.2498 16.22 83.3301 16.1397C83.3847 16.0337 83.4651 15.8987 83.4908 15.8184C83.5711 15.6031 83.6257 15.5228 83.7864 15.3075C83.9213 15.1725 83.9727 15.0376 84.0274 14.9315C84.1077 14.6359 84.2427 14.4206 84.429 14.154C84.564 13.9933 84.6443 13.8326 84.6989 13.6977C84.7246 13.537 84.8049 13.431 84.9142 13.296C84.9945 13.2157 85.1006 13.0551 85.1295 12.9747C85.1552 12.8944 85.2355 12.7594 85.2901 12.7048C85.3448 12.6245 85.5054 12.3835 85.6404 12.1682C85.8557 11.8469 85.936 11.7666 86.0966 11.6573C86.2027 11.6027 86.3666 11.471 86.4469 11.3617C86.5529 11.2268 86.6622 11.1207 86.8228 11.0661C86.9578 10.9858 87.173 10.8797 87.3048 10.8251C87.5458 10.6902 87.5747 10.6902 87.896 10.6902C88.1627 10.6902 88.2462 10.6902 88.3523 10.7705C88.5676 10.8765 88.6222 10.9858 88.6222 11.3874V11.7377L88.4069 12.2196C88.272 12.4895 88.1916 12.7819 88.1659 12.8912C88.1659 12.9972 88.0856 13.1611 87.9796 13.3732C87.8992 13.5338 87.7932 13.7491 87.7643 13.8551C87.6839 14.0961 87.6036 14.2568 87.4687 14.4464C87.414 14.5267 87.3626 14.6616 87.3337 14.7677C87.2791 14.8737 87.1731 15.1436 87.0381 15.3589C86.9031 15.5742 86.7682 15.8152 86.7425 15.8955C86.7168 16.0015 86.6075 16.1911 86.5561 16.3261C86.4758 16.461 86.3408 16.808 86.2605 17.0779C86.1802 17.3478 86.0195 17.7495 85.9103 17.9648C85.6147 18.556 85.5086 18.9833 85.4797 19.6549C85.454 20.3521 85.454 20.5385 85.5343 20.7827C85.56 20.863 85.589 21.0526 85.6147 21.1586C85.6693 21.3996 85.7753 21.6406 85.9649 21.7499C86.3408 22.0455 87.0927 22.3411 87.6004 22.3411C87.9217 22.3411 88.2173 22.2351 88.619 22.0198C88.7796 21.9137 89.0206 21.7788 89.1813 21.6985C89.3162 21.6181 89.5026 21.4832 89.5829 21.3771C90.0135 20.9466 90.3894 20.5192 90.7621 20.063C90.8971 19.928 91.0578 19.7127 91.1124 19.6067C91.1927 19.446 91.2987 19.2854 91.5429 19.0701C91.7839 18.8291 91.9446 18.6395 92.1342 18.3471C92.2691 18.1318 92.4555 17.9166 92.5101 17.8652C92.5647 17.8105 92.6708 17.6499 92.78 17.5149C92.8603 17.38 92.9664 17.2482 92.9953 17.1936C93.0499 17.139 93.156 16.9783 93.2652 16.8177C93.3455 16.657 93.4805 16.4674 93.5608 16.3614C93.6411 16.2811 93.7761 16.0658 93.911 15.9308C94.0171 15.7702 94.181 15.5292 94.287 15.3942C94.393 15.2336 94.528 15.044 94.5826 14.938C94.6372 14.8319 94.7433 14.6424 94.8525 14.5074C95.1224 14.1058 95.4694 13.5949 95.4951 13.4599C95.5208 13.4053 95.6012 13.2446 95.6558 13.1643C95.9514 12.7337 95.7618 12.3578 95.4148 12.3578L95.4116 12.3514ZM65.3718 12.541C65.3171 12.7562 65.2111 12.9169 65.0762 13.1322C64.9958 13.2125 64.9155 13.3475 64.8898 13.4278C64.8352 13.5627 64.7034 13.7234 64.2729 14.3917C64.1122 14.6327 63.9226 14.954 63.8712 15.089C63.7909 15.2239 63.7106 15.3846 63.6302 15.4392C63.5756 15.4938 63.3603 15.7895 63.174 16.0561C62.692 16.6988 61.8341 17.7463 61.0533 18.0419C60.8669 18.1222 60.703 18.1768 60.6773 18.1768C60.5713 18.1768 60.0604 17.7463 59.9801 17.5856C59.9544 17.5053 59.8998 17.29 59.874 17.1036C59.7937 16.702 59.8194 16.5927 60.0347 15.7895C60.2211 15.0376 60.356 14.5813 60.491 14.3949C60.5713 14.2889 60.6773 14.019 60.7577 13.8037C60.838 13.5884 60.9183 13.3475 60.944 13.2928C60.9697 13.2382 61.079 13.1065 61.1593 12.9972C61.2653 12.8912 61.4292 12.647 61.5353 12.4863C61.6413 12.3257 61.8309 12.0847 61.9658 11.924C62.1008 11.7891 62.2357 11.5738 62.3161 11.4678C62.3707 11.3617 62.5024 11.1979 62.6117 11.0918C62.7177 10.9858 62.9876 10.6902 63.2286 10.4203C63.6592 9.9897 64.1957 9.50773 64.4078 9.40169C64.4624 9.37599 64.5942 9.32136 64.6777 9.29566C64.758 9.26995 64.9187 9.21533 65.028 9.16071C65.2689 9.08038 65.5903 9.05467 65.7252 9.10608C65.8859 9.13179 66.0754 9.32136 66.1558 9.50773C66.2104 9.58806 66.2361 9.72301 66.2361 10.1504C66.2618 10.6066 66.2618 10.687 66.2104 10.7673C66.024 11.0886 65.4874 12.2421 65.3782 12.5377L65.3718 12.541ZM73.1219 12.2453C73.2569 12.0301 73.4175 11.8148 73.4432 11.7634C73.4689 11.683 73.5493 11.6027 73.6039 11.5481C73.6585 11.4935 73.7902 11.3328 73.9541 11.1464C74.4361 10.5552 74.6771 10.3142 74.8666 10.1793C75.0016 10.0989 75.1076 9.99292 75.188 9.90937C75.2779 9.76585 75.5104 9.59555 75.8852 9.39848C76.3158 9.15749 76.9841 8.86188 77.495 8.86188C77.7649 8.80726 77.871 8.83618 78.1376 9.07716C78.4076 9.29245 78.4076 9.34707 78.4076 9.9897C78.4076 10.5263 78.4076 10.5809 78.3272 10.8219C78.2726 10.9569 78.2469 11.1175 78.2212 11.2236C78.1666 11.4935 77.9256 12.0558 77.6846 12.2421C77.6043 12.2968 77.4982 12.4285 77.4436 12.5377C77.3376 12.6984 77.2829 12.753 76.8267 13.0486C76.3158 13.4246 76.3447 13.3989 75.6989 13.5595C75.5639 13.5852 75.3486 13.6399 75.2169 13.6945C75.0305 13.7491 74.8956 13.7491 74.706 13.7491C74.571 13.7234 74.4104 13.7491 74.3301 13.7748C74.2497 13.8005 73.9541 13.8551 73.6874 13.8808C73.4175 13.9355 73.0448 14.0158 72.8841 14.0672C72.5628 14.1732 72.3218 14.1732 72.2672 14.1218C72.2126 14.0672 72.2126 13.9065 72.2672 13.7459C72.3218 13.6913 72.3732 13.5049 72.4279 13.3699C72.5339 13.0743 72.6978 12.8076 73.1251 12.2421L73.1219 12.2453Z" fill="#1A1208"/>
</g>
<defs>
<clipPath id="clip0_1_143">
<rect width="109" height="38.5772" fill="white"/>
</clipPath>
</defs>
</svg>
