<svg width="538" height="191" viewBox="0 0 538 191" fill="none" xmlns="http://www.w3.org/2000/svg">
<g clip-path="url(#clip0_1_174)">
<path d="M74.6979 137.026C74.6186 136.597 74.6186 136.058 74.6979 135.376C74.7772 134.789 74.8882 134.234 75.0151 133.727C75.142 133.219 75.2054 132.49 75.2054 131.554C75.2054 131.047 75.142 130.507 75.0151 129.905C74.8882 129.318 74.8248 128.557 74.8248 127.621C74.7455 127.193 74.7138 126.622 74.7613 125.908C74.8089 125.179 74.7772 124.354 74.6979 123.418V119.104C74.6979 118.422 74.6503 117.709 74.571 116.948C74.4917 116.186 74.4442 115.457 74.4442 114.775C74.4442 114.014 74.46 113.3 74.5076 112.618C74.5552 111.936 74.571 111.27 74.571 110.588C74.571 109.573 74.5552 108.701 74.5076 107.987C74.46 107.257 74.4917 106.686 74.571 106.258C74.571 105.925 74.5552 105.481 74.5076 104.926C74.46 104.387 74.4283 103.832 74.3807 103.277C74.3331 102.722 74.3014 102.214 74.2538 101.754C74.2063 101.294 74.1428 101.009 74.0635 100.93C73.8891 100.422 73.1754 99.9938 71.9066 99.6608C71.7322 99.5656 71.5895 99.5022 71.4626 99.4704C71.3357 99.4229 71.1454 99.3753 70.8758 99.3436C70.622 99.296 70.2414 99.2801 69.7339 99.2801H62.7557C62.0738 99.2801 61.376 99.2167 60.6464 99.0898C59.9328 98.9629 59.1081 98.8995 58.1724 98.8995C57.4111 98.8995 56.7767 98.9629 56.2692 99.0898C55.7617 99.2167 55.2859 99.2801 54.8736 99.2801C53.9379 99.2801 53.3035 99.2484 52.9546 99.2167C52.6216 99.1691 52.1616 99.3119 51.559 99.6608C50.9722 99.9145 50.544 100.327 50.2902 100.93C50.1158 101.263 50.0206 101.627 49.973 102.008C49.9255 102.389 49.9096 103.388 49.9096 104.99C49.9096 105.925 49.9572 106.798 50.0365 107.606C50.1158 108.399 50.1633 108.891 50.1633 109.065C50.1633 109.145 50.1475 109.525 50.0999 110.207C50.0523 110.889 50.0206 111.65 49.973 112.491C49.9255 113.347 49.9096 114.125 49.9096 114.838V116.313C49.9096 116.979 49.8462 117.63 49.7193 118.216C49.5924 118.803 49.5765 119.358 49.6558 119.866C49.6558 120.801 49.7193 121.579 49.8462 122.213C49.973 122.847 50.084 123.291 50.1633 123.545C50.2426 124.148 50.3061 124.639 50.3537 125.02C50.4012 125.401 50.3695 125.924 50.2902 126.606C50.1158 127.288 49.973 127.922 49.8462 128.509C49.7193 129.096 49.7034 130.032 49.7827 131.3C49.7827 131.903 49.8303 132.49 49.9096 133.092C49.9889 133.679 50.0365 134.314 50.0365 134.996C50.0365 135.678 49.9889 136.312 49.9096 136.899C49.8303 137.486 49.7827 138.12 49.7827 138.802C49.7827 139.405 49.8937 139.991 50.0999 140.578C50.3061 141.181 50.4171 141.815 50.4171 142.497C50.4171 143.179 50.3537 143.813 50.2268 144.4C50.0999 144.987 49.9889 145.59 49.9096 146.177C49.9096 146.858 49.9889 147.493 50.1633 148.08C50.3378 148.682 50.3695 149.317 50.2902 149.999C50.2902 151.014 50.2268 152.092 50.0999 153.234C49.973 154.376 49.9096 155.296 49.9096 155.962C49.9096 157.231 49.8937 158.293 49.8462 159.15C49.7986 159.99 49.6558 160.799 49.4021 161.56C49.1483 162.321 48.7836 163.067 48.3237 163.78C47.8479 164.51 47.1976 165.335 46.3571 166.255C45.9289 166.857 45.5641 167.301 45.2628 167.603C44.9773 167.888 44.4857 168.253 43.8037 168.681C43.0425 169.014 42.4557 169.268 42.0275 169.442C41.5992 169.617 41.1869 169.744 40.7587 169.823C40.3305 169.902 39.9023 169.95 39.4899 169.95H37.7137C36.6035 170.124 35.8423 170.283 35.4141 170.457C35.0017 170.632 34.5735 170.632 34.1453 170.457C33.8916 170.378 33.6219 170.188 33.3206 169.886C33.0193 169.585 32.7497 169.442 32.4959 169.442C30.799 169.109 29.2765 168.3 27.9284 167.032C26.5645 165.747 25.5812 164.351 24.9944 162.829C24.9151 162.654 24.6772 162.401 24.2966 162.068C23.916 161.735 23.6464 161.354 23.4719 160.926C22.8851 159.562 22.0763 158.848 21.0613 158.769C20.5538 158.594 19.6974 158.357 18.5079 158.055C17.3184 157.77 16.6048 157.611 16.351 157.611H14.9554C14.5272 157.706 14.0514 157.738 13.4963 157.738H11.6566C9.7059 157.833 8.34199 157.976 7.58074 158.198C6.81948 158.404 6.18511 158.468 5.6776 158.388C5.1701 158.214 4.75776 158.103 4.47229 158.055C4.17096 158.024 3.77447 158.039 3.26697 158.135H2.29954C2.01407 158.135 1.77618 158.166 1.60173 158.261C1.26868 158.42 0.999067 158.705 0.777035 159.086C0.570862 159.467 0.380549 159.863 0.206095 160.291C0.0316408 160.72 -0.031797 161.306 0.0157813 162.068C0.0633597 162.829 0.174376 163.685 0.33297 164.605C0.507424 165.033 0.586721 165.604 0.586721 166.318C0.586721 167.032 0.713597 167.745 0.967348 168.427C1.39555 169.442 2.10923 170.711 3.14009 172.234C4.1551 173.756 5.07494 174.866 5.93135 175.532C6.18511 175.786 6.43886 176.119 6.69261 176.5C6.94636 176.88 7.15253 177.229 7.32699 177.578C7.75519 178.26 8.32613 178.863 9.03981 179.418C9.76934 179.973 10.372 180.322 10.8795 180.496C11.054 180.671 11.3077 180.94 11.6566 181.321C11.9897 181.702 12.3703 182.066 12.7985 182.399C13.7183 183.081 14.3369 183.51 14.6382 183.668C14.9395 183.843 15.3836 184.017 15.9704 184.176C16.2241 184.271 16.5413 184.239 16.922 184.112C17.3026 183.985 17.588 184.017 17.7466 184.176C17.9211 184.35 18.1114 184.525 18.3176 184.699C18.5396 184.858 18.8092 185.032 19.1423 185.207C19.4912 185.365 19.7925 185.556 20.0463 185.778C20.3 185.984 20.5062 186.126 20.6806 186.222C20.8392 186.396 21.0137 186.491 21.1881 186.539C21.3467 186.586 21.4736 186.65 21.5688 186.729C21.7274 186.729 22.108 186.84 22.7106 187.046C23.2974 187.252 24.027 187.443 24.8675 187.617C25.5495 187.792 26.1839 187.919 26.7707 187.998C27.3733 188.077 27.9284 188.172 28.4359 188.252C28.769 188.252 29.0861 188.188 29.3875 188.061C29.6729 187.934 29.8633 187.919 29.9584 187.998C30.117 188.077 30.339 188.204 30.5928 188.378C30.8465 188.458 31.3065 188.585 31.9884 188.759C31.9091 188.68 31.8615 188.553 31.8615 188.378V187.998C33.1303 188.172 34.4625 188.315 35.8581 188.442C37.2696 188.569 38.6018 188.632 39.8706 188.632C40.9649 188.632 41.8847 188.585 42.5984 188.505C43.3121 188.426 43.7244 188.378 43.8037 188.378C43.9782 188.378 44.2319 188.331 44.565 188.252C44.9139 188.172 45.2945 188.077 45.7227 187.998C46.5633 187.823 47.3245 187.76 48.0065 187.808C48.6726 187.855 49.2752 187.823 49.7827 187.744C50.7184 187.57 51.448 187.3 52.003 186.919C52.5581 186.539 53.0498 186.222 53.4621 185.968C53.9696 185.619 54.6516 185.286 55.508 184.953C56.0155 184.699 56.6181 184.429 57.3477 184.176C58.0613 183.922 58.8543 183.541 59.6949 183.034C60.2975 182.622 60.9002 182.193 61.5346 181.765C62.1689 181.353 62.835 180.877 63.517 180.369C64.1831 179.941 64.8016 179.275 65.3567 178.339C65.9118 177.404 66.4827 176.468 67.0695 175.532C67.244 175.279 67.4501 174.993 67.7039 174.644C67.9576 174.311 68.1638 174.057 68.3383 173.883C68.7665 173.471 69.274 172.868 69.8608 172.107C70.4634 171.345 70.8441 170.584 71.0027 169.823C71.1771 169.569 71.2881 169.268 71.3357 168.935C71.3674 168.586 71.4784 168.332 71.6529 168.174C72.0652 167.666 72.4141 166.857 72.6679 165.747C72.9216 164.653 73.1278 163.638 73.3023 162.702C73.3816 161.513 73.556 160.498 73.8098 159.657C74.0635 158.801 74.2697 158.135 74.4442 157.611C74.6186 157.199 74.7138 156.723 74.7613 156.216C74.8089 155.708 74.8248 154.741 74.8248 153.297C74.7455 152.362 74.6821 151.474 74.6345 150.633C74.5869 149.777 74.571 149.142 74.571 148.714C74.4917 148.302 74.4917 147.636 74.571 146.747C74.6503 145.859 74.6979 144.955 74.6979 144.02C74.8724 142.656 74.9992 141.609 75.0785 140.832C75.1578 140.071 75.1261 139.357 74.9517 138.675C74.8724 137.993 74.7772 137.454 74.6979 137.026Z" fill="#F7D15A"/>
<path d="M167.682 139.627C167.555 138.834 167.444 138.167 167.365 137.66C167.27 137.152 167.27 136.708 167.365 136.328C167.444 135.947 167.492 135.709 167.492 135.63C167.571 135.456 167.555 135.233 167.428 134.932C167.301 134.631 167.19 134.314 167.111 133.981C167.016 133.632 166.937 133.235 166.857 132.759C166.762 132.299 166.683 131.855 166.603 131.427C166.508 131.094 166.381 130.634 166.223 130.032C166.048 129.445 165.874 128.937 165.7 128.509C165.541 128.081 165.366 127.605 165.192 127.05C165.033 126.495 164.907 126.051 164.811 125.718C164.653 125.115 164.526 124.528 164.431 123.926C164.351 123.339 164.177 122.705 163.923 122.023C163.765 121.356 163.527 120.738 163.225 120.183C162.924 119.628 162.654 119.152 162.401 118.724C162.147 118.296 161.877 117.788 161.576 117.201C161.275 116.599 161.053 116.091 160.878 115.679C160.624 115.076 160.371 114.648 160.117 114.394C159.863 114.14 159.514 113.807 159.102 113.379C158.848 113.221 158.547 112.935 158.214 112.554C157.865 112.174 157.611 111.809 157.453 111.476C157.024 110.889 156.58 110.334 156.105 109.827C155.645 109.319 155.121 108.843 154.519 108.431L152.996 106.909C152.489 106.385 151.902 105.925 151.22 105.497C150.871 105.338 150.49 105.148 150.078 104.926C149.65 104.72 149.348 104.53 149.19 104.355C148.587 103.689 148.064 103.071 147.588 102.515C147.128 101.96 146.478 101.564 145.621 101.31C144.527 100.977 143.338 100.454 142.069 99.7876C141.133 99.3594 140.451 99.1057 140.039 99.0264C139.611 98.9312 138.976 98.8043 138.12 98.6458C137.612 98.5506 137.026 98.5189 136.344 98.5189C135.662 98.5189 135.122 98.4237 134.694 98.2651C133.838 97.9955 133.077 97.8686 132.411 97.8686C132.157 97.8686 131.84 97.8052 131.459 97.6783C131.078 97.5514 130.714 97.4563 130.365 97.3611C130.063 97.2501 129.73 97.1232 129.35 96.9964C129.175 97.2025 129.001 97.4087 128.842 97.599C128.557 97.9321 128.239 98.3127 127.954 98.6775C127.573 99.1215 127.272 99.4863 127.002 99.8035C126.019 101.263 124.75 102.293 124.179 102.722L123.942 102.96C123.704 103.34 123.466 103.641 123.275 103.895L122.514 105.402L121.737 105.798C120.484 107.479 119.326 108.558 117.407 109.779C115.647 111.254 113.347 112.697 111.286 113.601L108.32 115.203H104.244C103.451 115.266 102.69 115.298 102.04 115.298C101.167 115.298 100.168 115.251 99.1374 114.933H98.8361L98.2334 114.822C96.0765 114.442 94.6333 113.871 92.9681 112.713C92.524 113.427 92.1434 114.109 91.8579 114.775C91.6835 115.203 91.3663 115.615 90.9064 115.996C90.4306 116.377 89.9072 116.852 89.3204 117.455C89.0667 117.788 88.9398 118.105 88.9398 118.407C88.9398 118.708 88.8922 118.978 88.8129 119.231C88.6385 119.913 88.3847 120.421 88.0517 120.754C87.7027 121.103 87.3221 121.61 86.8939 122.276C86.5609 122.879 86.3547 123.355 86.2595 123.735C86.1802 124.116 86.0851 124.528 86.0058 124.957C86.0058 125.797 85.8789 126.479 85.6252 126.987C85.197 128.255 84.8639 129.223 84.6102 129.905C84.3564 130.587 84.2295 131.142 84.2295 131.554C84.2295 131.808 84.3088 132.109 84.4833 132.442C84.6577 132.791 84.6894 133.092 84.6102 133.346C84.4357 133.6 84.3723 134.107 84.4198 134.869C84.4674 135.63 84.4357 136.851 84.3564 138.548C84.3564 139.991 84.2137 141.26 83.9123 142.37C83.611 143.465 83.4207 144.226 83.3414 144.654C83.1669 145.748 83.0876 146.541 83.0876 147.001C83.0876 147.461 83.2621 148.127 83.5951 148.968C83.8489 149.745 84.1185 150.284 84.4198 150.633C84.7212 150.966 84.7846 151.474 84.6102 152.156C84.4357 152.584 84.3564 152.901 84.3564 153.107C84.3564 153.313 84.4357 153.726 84.6102 154.312C84.7846 154.741 84.848 155.185 84.8005 155.645C84.7529 156.12 84.7846 156.564 84.8639 156.977C85.0384 157.579 85.2287 158.103 85.4348 158.579C85.641 159.039 85.8313 159.483 86.0058 159.911C86.2595 161.433 86.5609 162.401 86.8939 162.829C87.0684 163.162 87.1159 163.574 87.0208 164.034C86.9415 164.51 86.9891 164.859 87.1477 165.113C87.2428 165.541 87.4966 166.048 87.9248 166.635C88.3371 167.238 88.8922 168.253 89.5742 169.696C89.8279 170.124 90.2878 170.838 90.9698 171.853C91.3821 172.281 91.7469 172.741 92.0482 173.249C92.3496 173.756 92.5716 174.137 92.746 174.39C93.0791 174.993 93.5549 175.627 94.1417 176.309C94.7285 176.976 95.2518 177.626 95.6642 178.213C95.8386 178.387 96.029 178.657 96.2351 179.037C96.4572 179.418 96.6951 179.688 96.9488 179.862C97.2026 180.036 97.488 180.29 97.8369 180.623C98.17 180.956 98.4713 181.258 98.7251 181.511C98.9788 181.765 99.3594 181.892 99.8669 181.892C100.374 181.892 100.707 181.987 100.882 182.146C101.056 182.241 101.31 182.431 101.643 182.717C101.976 183.018 102.325 183.288 102.658 183.541C103.34 184.049 103.832 184.414 104.117 184.636C104.419 184.842 105.069 185.159 106.1 185.587C106.512 185.746 107.004 185.936 107.559 186.158C108.098 186.364 108.542 186.555 108.891 186.729C109.224 186.904 109.605 187.11 110.033 187.363C110.461 187.617 110.873 187.823 111.302 187.998C111.73 188.172 112.158 188.315 112.57 188.442C112.999 188.569 113.332 188.712 113.585 188.886C114.267 189.219 114.902 189.378 115.504 189.33C116.091 189.282 116.852 189.314 117.788 189.393C118.216 189.393 118.867 189.52 119.755 189.774C120.643 190.028 121.515 190.202 122.356 190.282C123.387 190.377 124.179 190.409 124.782 190.409C125.385 190.409 125.845 190.377 126.178 190.282C126.511 190.202 126.796 190.139 127.002 190.091C127.209 190.044 127.494 189.98 127.827 189.901C128.16 189.822 128.477 189.774 128.779 189.774H129.477C129.651 189.853 130.032 189.838 130.618 189.711C131.221 189.584 131.903 189.473 132.664 189.393C133.172 189.314 133.695 189.267 134.25 189.267C134.805 189.267 135.329 189.219 135.836 189.14C136.518 188.965 137.168 188.838 137.803 188.759C138.437 188.68 138.976 188.505 139.405 188.252C139.817 188.077 140.229 187.855 140.61 187.554C140.99 187.252 141.339 187.11 141.688 187.11C141.768 187.11 142.164 186.919 142.894 186.539C143.607 186.158 144.4 185.73 145.241 185.27C146.081 184.794 146.874 184.366 147.588 183.985C148.318 183.605 148.714 183.414 148.809 183.414C149.063 183.256 149.348 183.081 149.697 182.907C150.03 182.748 150.284 182.574 150.459 182.399C150.966 181.733 151.474 181.258 151.981 181.004C152.156 180.829 152.362 180.639 152.615 180.433C152.869 180.227 153.075 180.036 153.25 179.862C153.424 179.688 153.694 179.529 154.075 179.354C154.455 179.18 154.772 179.021 155.026 178.847C155.708 178.419 156.136 178.038 156.295 177.705C156.469 177.372 156.644 176.976 156.802 176.563C156.898 176.389 157.072 176.135 157.326 175.786C157.579 175.453 157.833 175.12 158.087 174.771C158.341 174.438 158.658 174.073 159.039 173.693C159.419 173.312 159.689 172.995 159.863 172.741C160.022 172.408 160.244 172.059 160.498 171.726C160.751 171.393 160.958 171.139 161.132 170.965C161.56 170.537 161.846 169.902 162.02 169.062C162.195 168.205 162.353 167.444 162.528 166.762C162.607 166.096 162.766 165.541 162.972 165.113C163.194 164.7 163.416 164.351 163.669 164.098C163.923 163.844 164.225 163.558 164.558 163.21C164.907 162.877 165.16 162.369 165.319 161.687C165.414 161.259 165.446 160.846 165.446 160.418C165.446 159.99 165.541 159.657 165.7 159.403C165.795 159.054 165.811 158.705 165.763 158.325C165.731 157.928 165.747 157.611 165.842 157.357C165.842 157.104 165.937 156.818 166.159 156.469C166.366 156.136 166.556 155.835 166.73 155.581C166.889 154.899 166.984 154.265 166.984 153.678V152.726C166.984 152.346 167.016 151.933 167.111 151.521C167.19 150.918 167.27 150.252 167.365 149.475C167.444 148.714 167.492 147.873 167.492 146.938C167.571 146.177 167.65 145.399 167.745 144.591C167.825 143.782 167.872 143.005 167.872 142.243C167.872 141.308 167.809 140.435 167.682 139.627ZM140.293 144.844C140.118 146.494 139.944 147.699 139.785 148.46C139.69 148.888 139.753 149.444 139.975 150.126C140.182 150.792 140.245 151.394 140.166 151.902C140.071 152.837 139.944 153.488 139.785 153.868C139.611 154.249 139.436 154.693 139.262 155.201C139.103 155.629 138.929 156.009 138.754 156.342C138.596 156.691 138.501 156.945 138.501 157.104C138.501 157.278 138.437 157.595 138.31 158.055C138.183 158.531 138.041 159.039 137.866 159.594C137.692 160.133 137.533 160.64 137.359 161.116C137.184 161.576 137.026 161.941 136.851 162.195C136.518 162.623 136.153 163.019 135.773 163.4C135.392 163.78 134.996 164.193 134.567 164.605C133.711 165.62 132.918 166.381 132.157 166.889C131.982 166.984 131.792 167.19 131.586 167.539C131.364 167.872 131.142 168.126 130.872 168.3C130.206 168.713 129.588 168.903 129.032 168.871C128.477 168.824 127.621 168.887 126.432 169.062C125.068 169.236 124.148 169.363 123.64 169.442C123.133 169.522 122.752 169.49 122.483 169.315C122.324 169.236 122.134 169.078 121.912 168.871C121.705 168.649 121.468 168.459 121.214 168.3C120.452 168.047 119.691 167.761 118.93 167.476C118.169 167.174 117.487 166.683 116.9 166.001C116.297 165.335 115.853 164.605 115.568 163.844C115.266 163.083 114.902 162.321 114.489 161.56C114.315 161.227 114.077 160.878 113.776 160.545C113.49 160.196 113.252 159.911 113.078 159.657C112.745 159.054 112.57 158.42 112.57 157.738C112.491 157.579 112.38 157.231 112.253 156.723C112.126 156.216 111.984 155.708 111.809 155.201C111.651 154.265 111.492 153.377 111.365 152.536C111.238 151.68 111.095 150.712 110.921 149.618C110.921 149.348 110.873 148.936 110.794 148.333C110.715 147.747 110.667 147.033 110.667 146.177C110.667 145.669 110.747 145.146 110.921 144.591C111.095 144.035 111.175 143.417 111.175 142.751C111.175 141.641 111.095 140.737 110.921 140.007C110.747 139.294 110.715 138.643 110.794 138.041C110.873 137.105 111.064 136.375 111.365 135.82C111.666 135.265 111.936 134.52 112.19 133.6C112.443 132.823 112.666 132.03 112.824 131.173C112.999 130.412 113.205 129.588 113.458 128.699C113.712 127.811 114.061 127.034 114.489 126.352C114.569 126.019 114.585 125.654 114.553 125.274C114.505 124.893 114.616 124.576 114.87 124.306C115.029 124.148 115.155 123.957 115.251 123.735C115.33 123.529 115.409 123.386 115.504 123.291C115.584 123.133 115.822 122.974 116.202 122.847C116.583 122.72 116.852 122.498 117.027 122.149C117.201 121.896 117.534 121.547 118.042 121.071C118.549 120.611 119.073 120.119 119.628 119.612C120.183 119.104 120.738 118.66 121.277 118.28C121.832 117.899 122.197 117.709 122.356 117.709C122.958 117.534 123.577 117.455 124.211 117.455H126.432C127.018 117.455 127.494 117.487 127.827 117.582C128.16 117.661 128.509 117.772 128.842 117.899C129.191 118.026 129.572 118.2 129.984 118.407C130.412 118.613 130.967 118.851 131.649 119.104C133.679 119.691 135.075 121.055 135.836 123.164C136.011 123.672 136.106 124.164 136.153 124.639C136.201 125.099 136.344 125.496 136.597 125.845C137.026 126.352 137.422 126.812 137.803 127.24C138.183 127.669 138.469 128.43 138.627 129.524C138.723 130.032 138.802 130.571 138.881 131.11C138.976 131.665 139.103 132.062 139.262 132.315C139.611 133.6 139.912 135.075 140.166 136.772C140.42 138.469 140.546 139.944 140.546 141.213C140.546 141.99 140.451 143.195 140.293 144.844Z" fill="#F7D15A"/>
<path d="M252.784 129.143C252.942 128.462 253.037 127.891 253.037 127.431C253.037 126.971 252.99 126.4 252.911 125.718C252.815 125.29 252.736 124.671 252.657 123.862C252.562 123.069 252.53 122.324 252.53 121.642C252.609 120.976 252.609 120.167 252.53 119.231C252.435 118.296 252.356 117.487 252.276 116.821C252.102 115.885 252.086 115.219 252.213 114.838C252.34 114.458 252.435 114.061 252.53 113.633C252.689 113.3 252.689 112.919 252.53 112.491C252.355 112.079 252.229 111.555 252.149 110.969C252.054 110.461 252.054 110.001 252.149 109.573C252.229 109.145 252.276 108.764 252.276 108.431C252.435 107.495 252.482 106.813 252.403 106.385C252.308 105.973 252.244 105.656 252.213 105.434C252.165 105.227 252.181 104.91 252.276 104.482C252.356 103.895 252.34 103.388 252.213 102.96C252.086 102.531 251.848 101.945 251.499 101.183C251.166 100.501 250.421 99.9938 249.279 99.6608C248.137 99.3119 247.233 99.1057 246.551 99.0264C246.202 99.0264 245.837 99.0423 245.457 99.0898C244.838 99.6925 244.188 100.295 243.554 100.882C243.173 101.247 242.681 101.723 242.126 102.246C241.46 102.88 240.715 103.578 240.096 104.212C236.369 107.797 234.894 108.986 233.15 109.858L232.722 110.065L232.404 110.176C232.135 110.287 231.786 110.477 231.5 110.604C230.628 111.048 229.264 111.619 227.789 112.19C227.821 112.428 227.837 112.666 227.869 112.872C227.948 113.554 228.027 114.014 228.122 114.267C228.122 114.775 228.027 115.457 227.869 116.313C227.869 116.472 227.773 116.852 227.615 117.455C227.44 118.042 227.361 118.803 227.361 119.739C227.361 120.246 227.393 120.801 227.488 121.388C227.567 121.991 227.615 122.578 227.615 123.164C227.615 124.1 227.694 124.893 227.869 125.528C228.027 126.162 228.122 126.685 228.122 127.113C228.122 128.208 228.075 129.001 227.995 129.461C227.9 129.936 227.821 130.46 227.742 131.047C227.488 132.236 227.202 133.029 226.917 133.41C226.616 133.79 225.997 134.139 225.061 134.488C224.728 134.567 224.522 134.631 224.427 134.678C224.348 134.726 224.094 134.742 223.666 134.742C222.651 134.916 221.969 134.948 221.636 134.869C221.303 134.789 220.573 134.742 219.479 134.742C218.464 134.742 217.782 134.726 217.449 134.678C217.1 134.631 216.418 134.615 215.403 134.615C214.467 134.615 213.579 134.663 212.739 134.742C211.898 134.821 211.121 134.869 210.455 134.869C209.186 134.869 208.092 134.885 207.204 134.932C206.316 134.98 205.745 134.996 205.491 134.996C204.301 134.821 203.429 134.456 202.89 133.917C202.335 133.362 201.938 132.696 201.685 131.935C201.589 131.776 201.526 131.237 201.494 130.349C201.447 129.461 201.383 128.493 201.304 127.431C201.209 126.368 201.145 125.369 201.114 124.449C201.066 123.513 201.05 122.911 201.05 122.657C200.876 121.896 200.796 121.325 200.796 120.944C200.796 120.564 200.828 120.167 200.923 119.739C201.003 119.406 201.066 119.025 201.114 118.597C201.145 118.169 201.177 117.487 201.177 116.567C201.177 116.139 201.241 115.695 201.367 115.219C201.431 114.981 201.463 114.711 201.463 114.41H201.336L200.289 114.061C198.449 113.443 196.784 112.396 194.77 110.588C194.595 110.445 194.389 110.287 194.183 110.128C193.961 109.954 193.739 109.763 193.565 109.652L193.216 109.414L192.962 109.176C191.09 107.559 189.774 105.481 189.013 102.944C187.522 104.736 185.746 106.607 184.176 107.781C182.526 110.493 180.433 111.587 177.816 112.967L177.578 113.094L177.324 113.189C177.198 113.252 177.023 113.316 176.817 113.395C176.801 113.728 176.754 114.061 176.706 114.394C176.579 115.251 176.516 115.964 176.516 116.567C176.516 117.17 176.595 117.788 176.769 118.47C176.928 119.152 177.023 119.818 177.023 120.5C177.023 121.182 176.96 121.864 176.833 122.53C176.706 123.212 176.643 123.894 176.643 124.576C176.643 125.258 176.611 125.924 176.579 126.606C176.531 127.288 176.516 127.954 176.516 128.636V132.696C176.42 133.378 176.468 134.044 176.643 134.678C176.801 135.313 176.896 135.963 176.896 136.645V140.705C176.896 141.482 176.801 142.18 176.643 142.814C176.468 143.449 176.389 144.099 176.389 144.781V148.714C176.294 148.888 176.294 149.126 176.389 149.412C176.468 149.713 176.547 150.078 176.643 150.506C176.801 151.172 176.801 151.775 176.643 152.282C176.643 152.362 176.579 152.806 176.452 153.615C176.325 154.423 176.262 155.454 176.262 156.723C176.167 157.405 176.23 158.103 176.452 158.832C176.658 159.546 176.722 160.323 176.643 161.18V165.62C176.643 166.302 176.547 166.921 176.389 167.476C176.214 168.015 176.135 168.634 176.135 169.315C176.135 169.997 176.167 170.6 176.262 171.155C176.341 171.71 176.389 172.281 176.389 172.868V176.563C176.294 177.499 176.262 178.292 176.262 178.974V180.243C176.167 181.004 176.198 181.702 176.325 182.336C176.452 182.97 176.547 183.589 176.643 184.176C176.896 186.047 177.277 187.237 177.784 187.744C178.466 188.331 179.688 188.68 181.464 188.759C181.971 188.838 182.511 188.87 183.066 188.823C183.605 188.775 184.017 188.807 184.271 188.886L184.144 189.013C184.731 189.187 185.191 189.219 185.54 189.14C185.873 189.06 186.555 188.934 187.57 188.759C188.41 188.585 189.076 188.569 189.536 188.696C190.012 188.823 190.789 188.934 191.899 189.013C192.994 189.092 193.739 189.14 194.12 189.14C194.5 189.14 194.944 189.06 195.452 188.886C195.706 188.807 196.039 188.743 196.467 188.696C196.895 188.648 197.228 188.585 197.482 188.505C199.179 188.252 200.273 187.49 200.796 186.222C200.955 185.793 201.082 185.096 201.177 184.112C201.256 183.145 201.304 182.32 201.304 181.638C201.209 181.131 201.241 180.687 201.367 180.306C201.494 179.925 201.589 179.561 201.685 179.228C201.843 178.546 201.827 178.022 201.621 177.642C201.399 177.261 201.209 176.69 201.05 175.929C200.876 175.326 200.876 174.819 201.05 174.39C201.209 173.978 201.336 172.995 201.431 171.472C201.51 170.537 201.463 169.696 201.304 168.935C201.129 168.174 201.003 167.698 200.923 167.539V161.814C201.003 159.863 201.066 158.531 201.114 157.802C201.145 157.088 201.209 156.517 201.304 156.089C201.716 154.487 203.112 153.551 205.491 153.297C205.998 153.218 206.696 153.107 207.584 152.98C208.472 152.853 209.392 152.742 210.328 152.663C211.422 152.663 212.469 152.647 213.436 152.6C214.404 152.552 215.022 152.584 215.276 152.663C215.53 152.742 216.037 152.79 216.799 152.79C217.052 152.711 217.338 152.79 217.639 153.044C217.925 153.297 218.242 153.472 218.591 153.551C219.257 153.805 219.939 153.884 220.621 153.805C221.303 153.63 222.143 153.488 223.158 153.361C224.173 153.234 224.903 153.297 225.315 153.551C225.839 153.726 226.251 154.059 226.6 154.566C226.933 155.074 227.187 155.581 227.361 156.089C227.52 156.342 227.551 156.818 227.424 157.484C227.298 158.166 227.266 158.928 227.361 159.784C227.44 160.371 227.583 160.989 227.805 161.624C228.011 162.258 228.122 162.877 228.122 163.463C228.122 163.892 228.011 164.415 227.805 165.049C227.583 165.684 227.488 166.35 227.488 167.032C227.488 167.714 227.504 168.332 227.551 168.935C227.583 169.522 227.615 170.124 227.615 170.711V174.39C227.615 176.516 227.52 177.753 227.361 178.086V182.146C227.44 183.081 227.583 183.954 227.805 184.763C228.011 185.556 228.154 186.047 228.249 186.222C228.249 186.396 228.217 186.618 228.186 186.919C228.138 187.221 228.202 187.443 228.376 187.617C228.709 187.95 229.201 188.109 229.835 188.061C230.469 188.014 231.247 188.077 232.182 188.252C232.785 188.331 233.372 188.505 233.959 188.759C234.561 189.013 235.243 189.14 236.004 189.14C236.591 189.219 237.21 189.14 237.844 188.886C238.478 188.632 239.129 188.458 239.811 188.379H241.968C242.729 188.379 243.284 188.426 243.633 188.505H244.775C245.108 188.505 245.488 188.458 245.917 188.379C246.329 188.299 246.789 188.299 247.249 188.379C247.709 188.458 248.121 188.505 248.454 188.505C249.215 188.505 249.818 188.379 250.23 188.125C250.659 187.871 251.087 187.538 251.499 187.11C251.848 186.682 252.086 186.222 252.213 185.714C252.34 185.207 252.308 184.096 252.149 182.4C252.149 181.987 252.213 181.496 252.34 180.94C252.467 180.385 252.53 179.814 252.53 179.228C252.53 178.641 252.419 178.086 252.213 177.578C251.991 177.071 251.896 176.595 251.896 176.183C251.975 175.659 252.102 175.12 252.276 174.517C252.435 173.931 252.53 173.296 252.53 172.614C252.53 172.027 252.482 171.425 252.403 170.838C252.308 170.251 252.276 169.696 252.276 169.189C252.181 168.174 252.181 167.111 252.276 166.001C252.356 164.907 252.403 164.066 252.403 163.463C252.482 162.877 252.435 162.306 252.276 161.751C252.102 161.195 252.022 160.577 252.022 159.911C252.022 159.403 252.086 158.848 252.213 158.261C252.34 157.659 252.403 156.977 252.403 156.216C252.403 155.708 252.419 155.169 252.467 154.566C252.498 153.979 252.53 153.345 252.53 152.663C252.53 152.06 252.419 151.458 252.213 150.823C251.991 150.189 251.896 149.523 251.896 148.841C251.896 148.08 251.959 147.382 252.086 146.747C252.213 146.113 252.276 145.59 252.276 145.162C252.356 144.4 252.356 143.702 252.276 143.068C252.181 142.434 252.102 141.99 252.022 141.736C251.927 141.387 251.991 141.117 252.213 140.895C252.419 140.689 252.562 140.372 252.657 139.944C252.736 139.531 252.657 138.992 252.467 138.358C252.244 137.723 252.102 136.597 252.022 134.996C252.022 133.473 252.118 132.284 252.34 131.427C252.546 130.587 252.689 129.825 252.784 129.143Z" fill="#F7D15A"/>
<path d="M339.979 181.511C339.979 181.178 339.916 180.639 339.789 179.925C339.662 179.212 339.551 178.419 339.472 177.578C339.472 176.722 339.376 175.945 339.218 175.215C339.043 174.502 338.964 173.978 338.964 173.629C339.043 172.963 339.091 172.202 339.091 171.345C339.091 170.489 339.043 169.268 338.964 167.666C338.869 165.969 338.837 164.796 338.837 164.161C338.837 163.527 338.916 162.702 339.091 161.687C339.17 161.005 339.361 160.498 339.662 160.165C339.947 159.816 340.058 159.181 339.979 158.261C339.979 157.833 339.947 157.342 339.916 156.786C339.868 156.247 339.852 155.549 339.852 154.693C339.852 153.932 339.82 153.234 339.789 152.6C339.741 151.965 339.725 151.347 339.725 150.76C339.725 149.903 339.63 149.158 339.472 148.524C339.297 147.889 339.218 147.287 339.218 146.684C339.218 145.923 339.249 145.225 339.345 144.591C339.424 143.956 339.472 143.29 339.472 142.624C339.551 141.768 339.567 141.006 339.535 140.324C339.487 139.658 339.472 139.024 339.472 138.421C339.472 137.486 339.487 136.693 339.535 136.011C339.567 135.329 339.503 134.742 339.345 134.234C339.17 133.473 339.059 132.601 339.027 131.618C338.98 130.65 339.043 129.492 339.218 128.128C339.297 127.7 339.408 127.32 339.535 126.987C339.662 126.654 339.678 126.273 339.598 125.845C339.503 125.417 339.376 125.083 339.218 124.83C339.043 124.576 338.996 124.227 339.091 123.799C339.17 123.386 339.297 122.831 339.472 122.149C339.63 121.483 339.725 120.579 339.725 119.485C339.63 118.549 339.503 117.519 339.345 116.377C339.17 115.219 339.091 114.315 339.091 113.633C339.091 112.951 339.123 112.317 339.218 111.698C339.218 111.682 339.202 111.682 339.202 111.682C339.059 111.571 338.853 111.444 338.663 111.349L338.409 111.254L338.282 111.175C336.093 110.08 334.412 108.479 333.159 106.623C331.97 107.908 330.559 109.335 329.829 110.065C328.1 111.952 326.879 112.919 324.468 113.601L324.215 113.665C324.215 113.665 323.485 113.823 323.422 113.823L323.184 113.918C321.09 114.759 318.616 115.615 316.079 115.615C315.571 115.615 315.064 115.584 314.572 115.504C314.556 115.758 314.556 116.028 314.556 116.313C314.461 116.821 314.461 117.344 314.556 117.899C314.636 118.454 314.683 119.025 314.683 119.612C314.683 120.04 314.636 120.579 314.556 121.261C314.461 121.943 314.429 122.752 314.429 123.672C314.429 124.354 314.382 125.052 314.303 125.781C314.207 126.495 314.176 127.193 314.176 127.875C314.176 128.557 314.255 129.223 314.429 129.905C314.588 130.587 314.683 131.269 314.683 131.935C314.763 132.87 314.842 133.679 314.937 134.361C315.016 135.043 315.064 135.582 315.064 136.011C315.143 137.279 315.143 138.168 315.064 138.675C314.985 139.183 314.842 139.69 314.683 140.198C314.255 141.894 313.621 142.751 312.78 142.751C312.606 142.751 312.336 142.592 311.94 142.307C311.559 142.005 311.289 141.641 311.115 141.213C310.782 140.705 310.274 140.118 309.592 139.436C309.164 139.024 308.895 138.532 308.768 137.977C308.641 137.422 308.371 136.772 307.943 136.011C307.689 135.503 307.309 134.996 306.801 134.488C306.294 133.981 305.945 133.6 305.786 133.346C305.279 132.664 304.93 131.935 304.771 131.173C304.676 130.587 304.406 129.699 303.946 128.509C303.471 127.32 302.947 126.352 302.345 125.591C302.186 125.337 302.012 125.02 301.837 124.639C301.678 124.243 301.504 123.926 301.33 123.672C301.33 123.593 301.139 123.26 300.759 122.657C300.378 122.07 299.982 121.436 299.553 120.754C299.046 119.913 298.459 118.93 297.777 117.836C297.428 117.407 297.27 117.027 297.27 116.694C297.27 116.361 297.174 115.964 297.016 115.552C297.016 115.377 296.841 114.997 296.508 114.394C296.302 114.045 296.08 113.665 295.842 113.284C295.224 113.554 294.558 113.823 293.828 114.061L293.321 114.236L292.797 114.315C292.718 114.347 292.528 114.426 292.337 114.473C292.099 114.553 291.877 114.632 291.671 114.696C290.831 115.029 289.657 115.377 288.214 115.377C286.913 115.377 285.803 115.076 284.978 114.807C284.534 114.838 284.154 114.854 283.821 114.854C280.459 114.854 278.476 113.157 277.033 111.825C274.828 110.001 273.354 107.844 272.291 104.863C271.466 102.531 271.022 101.136 271.054 98.8519C271.022 98.8519 270.99 98.8361 270.959 98.8361C270.102 98.7092 269.389 98.6458 268.786 98.6458C267.612 98.5506 266.629 98.7409 265.868 99.2167C265.107 99.6766 264.647 100.248 264.472 100.93C264.139 102.278 263.901 103.229 263.774 103.784C263.648 104.339 263.584 104.831 263.584 105.243C263.584 105.497 263.568 105.846 263.521 106.258C263.473 106.687 263.41 107.115 263.33 107.543C263.156 108.13 263.108 108.574 263.203 108.875C263.283 109.176 263.378 109.525 263.457 109.954C263.536 110.207 263.584 110.731 263.584 111.54V114.014C263.584 114.87 263.632 115.679 263.711 116.44C263.79 117.201 263.885 117.788 263.965 118.216C264.139 118.803 264.171 119.231 264.092 119.485C264.012 119.739 263.885 120.119 263.711 120.627C263.536 121.055 263.473 121.483 263.521 121.896C263.568 122.324 263.584 122.911 263.584 123.672C263.584 124.021 263.6 124.544 263.648 125.274C263.695 125.987 263.711 126.939 263.711 128.128C263.711 128.81 263.727 129.508 263.774 130.222C263.822 130.951 263.838 131.729 263.838 132.569C263.838 133.251 263.774 133.949 263.648 134.678C263.521 135.392 263.457 136.137 263.457 136.899C263.457 137.66 263.521 138.421 263.648 139.183C263.774 139.944 263.838 140.673 263.838 141.355C263.838 142.117 263.727 142.878 263.521 143.639C263.299 144.4 263.203 145.114 263.203 145.796V150.126C263.203 150.792 263.219 151.41 263.267 151.965C263.299 152.52 263.33 152.996 263.33 153.424C263.33 154.265 263.41 154.931 263.584 155.391C263.759 155.867 263.885 156.311 263.965 156.723C264.044 157.151 264.107 157.611 264.155 158.135C264.203 158.642 264.218 159.435 264.218 160.545C264.139 161.053 264.076 161.608 264.028 162.195C263.981 162.781 263.965 163.511 263.965 164.351C263.965 164.954 263.901 165.541 263.774 166.128C263.648 166.73 263.536 167.412 263.457 168.174C263.378 170.029 263.41 171.203 263.584 171.663C263.759 172.138 263.917 172.614 264.092 173.122C264.266 173.724 264.409 174.295 264.536 174.835C264.663 175.39 264.647 175.834 264.472 176.183C264.393 176.262 264.234 176.722 264.028 177.578C263.822 178.419 263.663 179.402 263.584 180.496C263.505 181.511 263.473 182.463 263.521 183.351C263.568 184.239 263.632 184.826 263.711 185.08C263.79 185.492 263.981 186.111 264.282 186.919C264.583 187.728 264.9 188.252 265.233 188.505C265.408 188.68 265.662 188.696 265.995 188.569C266.328 188.442 266.851 188.426 267.517 188.505C268.025 188.505 268.58 188.585 269.182 188.759C269.769 188.934 270.483 189.013 271.339 189.013C271.847 189.013 272.418 188.934 273.052 188.759C273.687 188.585 274.384 188.505 275.146 188.505C275.748 188.505 276.351 188.553 276.985 188.632C277.636 188.712 278.286 188.759 278.968 188.759C279.729 188.759 280.363 188.712 280.871 188.632C281.378 188.553 281.838 188.505 282.266 188.505C283.361 188.426 284.09 188.394 284.423 188.442C284.772 188.49 285.153 188.426 285.565 188.252C286.422 187.919 286.945 187.57 287.167 187.237C287.373 186.904 287.564 186.095 287.738 184.826C287.817 184.223 287.96 183.541 288.182 182.78C288.388 182.019 288.499 181.099 288.499 179.989C288.499 178.641 288.436 177.388 288.309 176.246C288.182 175.088 288.119 174.39 288.119 174.137C288.277 173.724 288.452 173.296 288.626 172.868C288.785 172.456 288.785 171.647 288.626 170.457C288.452 169.268 288.341 168.459 288.309 168.047C288.261 167.618 288.277 167.063 288.372 166.381C288.452 165.969 288.468 165.414 288.436 164.732C288.388 164.066 288.372 163.416 288.372 162.829C288.372 162.496 288.404 161.941 288.499 161.18C288.579 160.418 288.626 159.53 288.626 158.515C288.626 157.833 288.515 157.135 288.309 156.406C288.087 155.692 288.023 154.994 288.119 154.312C288.119 153.472 288.087 152.742 288.055 152.156C288.008 151.553 287.992 151.014 287.992 150.506C287.992 150.252 288.055 149.84 288.182 149.285C288.309 148.746 288.452 148.191 288.626 147.636C288.785 147.096 289.023 146.557 289.324 146.05C289.625 145.542 289.895 145.241 290.149 145.162C290.323 144.987 290.545 144.908 290.846 144.908C291.148 144.908 291.37 145.082 291.544 145.415C291.719 145.59 291.877 145.812 292.052 146.113C292.226 146.414 292.48 146.732 292.813 147.065C293.416 147.747 293.828 148.365 294.082 148.904C294.336 149.459 294.558 149.999 294.732 150.506C294.811 150.76 294.938 150.95 295.113 151.077C295.271 151.204 295.446 151.347 295.62 151.521C295.699 151.68 295.81 151.902 295.937 152.156C296.064 152.409 296.159 152.663 296.255 152.917C296.508 153.599 296.841 154.55 297.27 155.771C297.682 157.009 298.031 157.833 298.285 158.261C298.459 158.42 298.665 158.642 298.919 158.896C299.173 159.15 299.379 159.435 299.553 159.784C299.728 160.038 299.855 160.291 299.934 160.545C300.013 160.799 300.14 161.005 300.315 161.18C300.489 161.354 300.616 161.576 300.695 161.877C300.774 162.179 300.949 162.654 301.203 163.336C301.298 163.511 301.425 163.701 301.583 163.907C301.758 164.129 301.932 164.32 302.091 164.478C302.519 164.986 302.725 165.398 302.725 165.684C302.725 165.985 302.82 166.35 302.979 166.762C303.074 167.032 303.217 167.444 303.439 168.047C303.645 168.633 303.962 169.268 304.39 169.95C304.644 170.537 305.025 171.028 305.532 171.409C306.04 171.79 306.42 172.202 306.674 172.614C306.928 173.042 307.166 173.55 307.372 174.137C307.578 174.739 307.768 175.199 307.943 175.532C308.117 175.881 308.244 176.246 308.324 176.627C308.403 177.007 308.53 177.277 308.704 177.451C308.879 177.626 309.037 177.88 309.212 178.213C309.386 178.546 309.561 178.847 309.719 179.101C310.068 180.195 310.465 181.242 310.925 182.209C311.4 183.192 311.924 184.144 312.526 185.08C312.939 185.92 313.367 186.491 313.795 186.793C314.207 187.094 314.636 187.316 315.064 187.49C315.397 187.665 316.031 187.982 316.967 188.442C317.903 188.902 318.664 189.219 319.251 189.394C319.425 189.394 319.663 189.346 319.949 189.267C320.25 189.187 320.488 189.14 320.662 189.14C321.677 189.14 322.756 189.076 323.898 188.949C325.039 188.823 326.118 188.68 327.133 188.505C327.561 188.426 328.275 188.458 329.306 188.632C330.321 188.807 331.336 188.886 332.351 188.886C332.684 188.886 333.191 188.838 333.873 188.759C334.555 188.68 335.253 188.553 335.967 188.379C336.696 188.204 337.346 187.982 337.949 187.681C338.536 187.379 338.964 187.062 339.218 186.729C339.472 186.301 339.678 185.492 339.852 184.303C340.011 183.129 340.058 182.193 339.979 181.511Z" fill="#F7D15A"/>
<path d="M427.047 181.511C427.047 181.178 426.984 180.639 426.857 179.925C426.73 179.212 426.619 178.419 426.54 177.578C426.54 176.722 426.46 175.945 426.286 175.215C426.111 174.502 426.032 173.978 426.032 173.629C426.111 172.963 426.159 172.202 426.159 171.345C426.159 170.489 426.111 169.268 426.032 167.666C425.937 165.969 425.905 164.796 425.905 164.161C425.905 163.527 425.984 162.702 426.159 161.687C426.238 161.005 426.429 160.498 426.73 160.165C427.031 159.816 427.126 159.181 427.047 158.261C427.047 157.833 427.031 157.342 426.984 156.787C426.936 156.247 426.92 155.549 426.92 154.693C426.92 153.932 426.904 153.234 426.857 152.6C426.809 151.965 426.793 151.347 426.793 150.76C426.793 149.903 426.714 149.158 426.54 148.524C426.365 147.889 426.286 147.287 426.286 146.684C426.286 145.923 426.318 145.225 426.413 144.591C426.492 143.956 426.54 143.29 426.54 142.624C426.619 141.768 426.651 141.006 426.603 140.324C426.555 139.658 426.54 139.024 426.54 138.421C426.54 137.486 426.555 136.693 426.603 136.011C426.651 135.329 426.587 134.742 426.413 134.234C426.238 133.473 426.127 132.601 426.096 131.618C426.048 130.65 426.111 129.492 426.286 128.128C426.365 127.7 426.476 127.32 426.603 126.987C426.73 126.654 426.746 126.273 426.666 125.845C426.587 125.417 426.46 125.083 426.286 124.83C426.111 124.576 426.064 124.227 426.159 123.799C426.238 123.387 426.365 122.831 426.54 122.149C426.714 121.483 426.793 120.579 426.793 119.485C426.714 118.549 426.587 117.519 426.413 116.377C426.333 115.853 426.27 115.393 426.238 114.981C424.002 114.204 421.94 113.11 420.45 112.015C418.8 110.921 416.849 108.859 415.977 105.053C415.914 104.72 415.834 104.323 415.755 103.927C415.723 103.816 415.708 103.689 415.676 103.578C415.216 102.071 415.057 100.739 415.057 99.074C414.772 99.0423 414.486 99.0264 414.201 99.0264H412.234C411.6 99.0264 410.95 99.0581 410.268 99.1533C410.093 99.1533 409.808 99.185 409.38 99.2801C408.983 99.3594 408.587 99.407 408.206 99.407C408.047 99.6291 407.889 99.8511 407.73 100.073C407.207 102.198 405.906 104.355 405.05 105.608V106.322L404.4 106.972C403.829 108.732 403.068 110.207 402.084 111.444C402.084 111.587 402.084 111.714 402.068 111.857C402.021 112.285 401.957 112.713 401.878 113.125C401.704 113.982 401.624 115.029 401.624 116.313C401.545 116.821 401.545 117.344 401.624 117.899C401.704 118.454 401.751 119.025 401.751 119.612C401.751 120.04 401.704 120.579 401.624 121.261C401.545 121.943 401.497 122.752 401.497 123.672C401.497 124.354 401.45 125.052 401.371 125.781C401.275 126.495 401.244 127.193 401.244 127.875C401.244 128.557 401.323 129.223 401.497 129.905C401.672 130.587 401.751 131.269 401.751 131.935C401.831 132.87 401.926 133.679 402.005 134.361C402.084 135.043 402.132 135.582 402.132 136.011C402.211 137.279 402.211 138.168 402.132 138.675C402.053 139.183 401.926 139.69 401.751 140.198C401.323 141.894 400.689 142.751 399.848 142.751C399.674 142.751 399.404 142.592 399.023 142.307C398.643 142.006 398.357 141.641 398.199 141.213C397.85 140.705 397.342 140.118 396.66 139.436C396.248 139.024 395.963 138.532 395.836 137.977C395.709 137.422 395.439 136.772 395.011 136.011C394.757 135.503 394.377 134.996 393.869 134.488C393.362 133.981 393.029 133.6 392.854 133.346C392.347 132.664 391.998 131.935 391.839 131.173C391.744 130.587 391.474 129.699 391.014 128.509C390.539 127.32 390.015 126.352 389.428 125.591C389.254 125.337 389.08 125.02 388.921 124.639C388.746 124.243 388.572 123.926 388.398 123.672C388.398 123.593 388.207 123.26 387.827 122.657C387.446 122.07 387.05 121.436 386.621 120.754C386.114 119.913 385.527 118.93 384.845 117.836C384.512 117.408 384.338 117.027 384.338 116.694C384.338 116.361 384.258 115.964 384.084 115.552C384.084 115.377 383.909 114.997 383.576 114.394C383.227 113.807 382.847 113.173 382.434 112.491C382.006 111.73 381.578 111.016 381.166 110.334C380.737 109.652 380.436 109.192 380.262 108.939C380.182 108.685 380.119 108.336 380.071 107.924C380.04 107.575 379.976 107.289 379.833 107.067C378.438 108.177 377.375 108.907 375.488 109.605L375.425 109.636C373.775 110.826 370.365 112.65 367.606 113.205C366.813 113.395 365.116 113.918 364.117 114.315L363.847 114.426L363.578 114.505C360.945 115.314 357.503 115.6 355.347 115.6C354.617 115.6 353.84 115.504 352.777 115.362L351.604 115.219L351.096 115.076C351.096 115.076 350.874 115.029 350.684 114.981C350.7 115.489 350.731 115.98 350.779 116.44C350.858 117.201 350.953 117.788 351.033 118.216C351.207 118.803 351.239 119.231 351.16 119.485C351.08 119.739 350.953 120.119 350.779 120.627C350.605 121.055 350.541 121.483 350.589 121.896C350.636 122.324 350.652 122.911 350.652 123.672C350.652 124.021 350.668 124.544 350.716 125.274C350.763 125.987 350.779 126.939 350.779 128.128C350.779 128.81 350.795 129.508 350.842 130.222C350.89 130.951 350.906 131.729 350.906 132.569C350.906 133.251 350.842 133.949 350.716 134.678C350.589 135.392 350.525 136.138 350.525 136.899C350.525 137.66 350.589 138.421 350.716 139.183C350.842 139.944 350.906 140.673 350.906 141.355C350.906 142.117 350.795 142.878 350.589 143.639C350.382 144.4 350.271 145.114 350.271 145.796V150.126C350.271 150.792 350.287 151.41 350.335 151.965C350.382 152.52 350.398 152.996 350.398 153.424C350.398 154.265 350.478 154.931 350.652 155.391C350.827 155.867 350.953 156.311 351.033 156.723C351.112 157.151 351.175 157.611 351.223 158.135C351.271 158.642 351.286 159.435 351.286 160.545C351.207 161.053 351.144 161.608 351.096 162.195C351.049 162.781 351.033 163.511 351.033 164.351C351.033 164.954 350.969 165.541 350.842 166.128C350.716 166.73 350.605 167.412 350.525 168.174C350.446 170.029 350.478 171.203 350.652 171.663C350.827 172.138 350.985 172.614 351.16 173.122C351.334 173.724 351.477 174.295 351.604 174.835C351.731 175.39 351.715 175.834 351.54 176.183C351.461 176.262 351.302 176.722 351.096 177.578C350.89 178.419 350.731 179.402 350.652 180.496C350.573 181.511 350.541 182.463 350.589 183.351C350.636 184.239 350.7 184.826 350.779 185.08C350.858 185.492 351.049 186.111 351.35 186.919C351.651 187.728 351.968 188.252 352.301 188.505C352.476 188.68 352.73 188.696 353.063 188.569C353.412 188.442 353.919 188.426 354.585 188.505C355.109 188.505 355.648 188.585 356.251 188.759C356.837 188.934 357.551 189.013 358.407 189.013C358.915 189.013 359.486 188.934 360.12 188.759C360.755 188.585 361.452 188.505 362.214 188.505C362.816 188.505 363.419 188.553 364.069 188.632C364.704 188.712 365.354 188.759 366.036 188.759C366.797 188.759 367.431 188.712 367.939 188.632C368.446 188.553 368.906 188.505 369.335 188.505C370.445 188.426 371.158 188.394 371.491 188.442C371.84 188.49 372.221 188.426 372.649 188.252C373.49 187.919 374.013 187.57 374.235 187.237C374.441 186.904 374.632 186.095 374.806 184.826C374.885 184.223 375.044 183.541 375.25 182.78C375.456 182.019 375.567 181.099 375.567 179.989C375.567 178.641 375.504 177.388 375.377 176.246C375.25 175.088 375.187 174.39 375.187 174.137C375.361 173.724 375.52 173.296 375.694 172.868C375.869 172.456 375.869 171.647 375.694 170.457C375.52 169.268 375.425 168.459 375.377 168.047C375.329 167.619 375.361 167.063 375.44 166.381C375.52 165.969 375.551 165.414 375.504 164.732C375.456 164.066 375.44 163.416 375.44 162.829C375.44 162.496 375.488 161.941 375.567 161.18C375.647 160.418 375.694 159.53 375.694 158.515C375.694 157.833 375.583 157.135 375.377 156.406C375.171 155.692 375.107 154.994 375.187 154.312C375.187 153.472 375.187 152.742 375.123 152.156C375.076 151.553 375.06 151.014 375.06 150.506C375.06 150.252 375.123 149.84 375.25 149.285C375.377 148.746 375.52 148.191 375.694 147.636C375.869 147.096 376.091 146.557 376.392 146.05C376.693 145.542 376.963 145.241 377.217 145.162C377.391 144.987 377.613 144.908 377.914 144.908C378.216 144.908 378.454 145.082 378.612 145.415C378.787 145.59 378.961 145.812 379.12 146.113C379.294 146.414 379.548 146.732 379.881 147.065C380.484 147.747 380.912 148.365 381.166 148.904C381.419 149.459 381.626 149.999 381.8 150.506C381.879 150.76 382.006 150.95 382.181 151.077C382.339 151.204 382.514 151.347 382.688 151.521C382.767 151.68 382.879 151.902 383.005 152.156C383.132 152.409 383.227 152.663 383.323 152.917C383.576 153.599 383.909 154.55 384.338 155.771C384.766 157.009 385.099 157.833 385.353 158.261C385.527 158.42 385.733 158.642 385.987 158.896C386.241 159.15 386.447 159.435 386.621 159.784C386.796 160.038 386.923 160.291 387.002 160.545C387.081 160.799 387.208 161.005 387.383 161.18C387.557 161.354 387.684 161.576 387.763 161.877C387.858 162.179 388.017 162.654 388.271 163.336C388.366 163.511 388.493 163.701 388.651 163.907C388.826 164.129 389 164.32 389.175 164.478C389.587 164.986 389.809 165.398 389.809 165.684C389.809 165.985 389.888 166.35 390.063 166.762C390.142 167.032 390.285 167.444 390.507 168.047C390.713 168.634 391.03 169.268 391.458 169.95C391.712 170.537 392.093 171.028 392.6 171.409C393.108 171.79 393.488 172.202 393.742 172.614C393.996 173.042 394.234 173.55 394.44 174.137C394.646 174.739 394.837 175.199 395.011 175.532C395.185 175.881 395.312 176.246 395.392 176.627C395.471 177.007 395.598 177.277 395.772 177.451C395.947 177.626 396.121 177.88 396.28 178.213C396.454 178.546 396.629 178.847 396.787 179.101C397.136 180.195 397.533 181.242 398.008 182.209C398.468 183.192 398.992 184.144 399.594 185.08C400.007 185.92 400.435 186.491 400.863 186.793C401.275 187.094 401.704 187.316 402.132 187.49C402.465 187.665 403.099 187.982 404.035 188.442C404.971 188.902 405.732 189.219 406.319 189.394C406.493 189.394 406.731 189.346 407.032 189.267C407.318 189.187 407.556 189.14 407.73 189.14C408.745 189.14 409.824 189.076 410.966 188.949C412.107 188.823 413.186 188.68 414.201 188.505C414.629 188.426 415.359 188.458 416.374 188.632C417.389 188.807 418.404 188.886 419.419 188.886C419.752 188.886 420.259 188.838 420.941 188.759C421.623 188.68 422.321 188.553 423.035 188.379C423.764 188.204 424.414 187.982 425.017 187.681C425.604 187.379 426.032 187.062 426.286 186.729C426.54 186.301 426.746 185.492 426.92 184.303C427.095 183.129 427.126 182.193 427.047 181.511Z" fill="#F7D15A"/>
<path d="M502.046 99.0264C501.872 99.0264 501.38 99.0898 500.587 99.2167C499.778 99.3436 498.779 99.3594 497.59 99.2801H488.566C487.123 99.2801 486.092 99.2326 485.457 99.1533C484.823 99.0581 484.284 99.0581 483.871 99.1533C482.682 99.407 481.889 99.6608 481.508 99.9145C481.128 100.168 480.652 100.708 480.049 101.564C479.875 101.818 479.669 102.182 479.415 102.642C479.161 103.102 478.907 103.515 478.654 103.848C478.321 104.276 477.94 104.641 477.512 104.926C477.084 105.227 476.782 105.592 476.624 106.005C476.449 106.433 476.306 106.845 476.18 107.226C476.053 107.606 475.767 108.13 475.355 108.812C475.101 109.145 474.831 109.525 474.578 109.954C474.324 110.382 473.991 110.889 473.563 111.476C473.15 112.079 472.738 112.777 472.357 113.57C471.977 114.378 471.66 114.997 471.406 115.409C470.978 116.091 470.692 116.694 470.518 117.201C470.343 117.709 470.09 118.089 469.756 118.343C468.9 119.184 467.806 119.358 466.458 118.851C465.522 118.423 464.713 117.36 464.031 115.679C463.857 115.251 463.698 114.807 463.524 114.331C463.349 113.871 463.191 113.506 463.016 113.252C462.588 112.666 462.303 112.158 462.128 111.73C461.954 111.555 461.795 111.333 461.621 111.032C461.446 110.731 461.288 110.509 461.113 110.334C460.939 110.16 460.701 109.811 460.415 109.256C460.114 108.701 459.797 108.082 459.464 107.416C459.115 106.813 458.766 106.227 458.385 105.624C458.005 105.037 457.719 104.609 457.561 104.355C457.132 103.419 456.625 102.515 456.022 101.627C455.705 101.152 455.34 100.739 454.896 100.406C454.325 101.215 453.675 102.024 453.104 102.611C450.979 105.18 449.155 107.226 447.236 109.145C446.158 110.382 444.762 111.349 443.731 111.984L443.493 112.11L443.255 112.237C442.589 112.57 441.669 113.094 441.225 113.395L440.94 113.585L440.639 113.744C440.194 113.982 439.719 114.22 439.227 114.458C439.497 114.759 439.703 115.076 439.877 115.409C440.131 115.837 440.401 116.313 440.654 116.821C440.908 117.328 441.114 117.709 441.289 117.963C441.955 118.803 442.494 119.628 442.875 120.437C443.255 121.245 443.62 122.023 443.953 122.784C444.381 123.973 444.651 124.909 444.778 125.591C444.905 126.273 445.222 126.812 445.729 127.24C446.158 127.669 446.491 127.954 446.744 128.128C446.998 128.303 447.22 128.684 447.379 129.27C447.553 129.699 447.68 130.143 447.759 130.603C447.855 131.078 448.061 131.522 448.394 131.935C448.822 132.617 449.33 133.441 449.932 134.425C450.519 135.392 451.026 136.264 451.455 137.026C451.613 137.359 451.899 137.676 452.279 137.977C452.66 138.279 452.93 138.548 453.104 138.802C453.279 139.151 453.358 139.547 453.358 140.007C453.358 140.467 453.437 140.879 453.612 141.213C453.786 141.561 453.976 141.894 454.182 142.243C454.389 142.576 454.579 142.83 454.753 143.005C454.928 143.417 455.086 143.893 455.261 144.4C455.435 144.908 455.562 145.59 455.642 146.43C455.642 146.858 455.578 147.366 455.451 147.953C455.324 148.555 455.261 149.19 455.261 149.872C455.261 150.633 455.213 151.347 455.134 152.029C455.055 152.711 455.007 153.345 455.007 153.932C455.007 154.772 455.118 155.518 455.324 156.152C455.531 156.787 455.642 157.405 455.642 157.992C455.737 159.181 455.8 160.101 455.832 160.736C455.879 161.37 455.895 161.766 455.895 161.941C455.99 162.448 455.943 163.003 455.768 163.59C455.435 165.208 455.435 166.604 455.768 167.793C455.943 168.3 456.022 168.681 456.022 168.935C456.022 169.189 455.943 169.696 455.768 170.457C455.594 170.886 455.499 171.345 455.451 171.853C455.404 172.36 455.435 173.122 455.515 174.137C455.515 174.565 455.562 175.088 455.642 175.723C455.737 176.373 455.768 177.071 455.768 177.832C455.864 178.419 455.895 179.021 455.895 179.608V181.638C455.895 181.813 455.864 182.082 455.768 182.463C455.689 182.844 455.642 183.256 455.642 183.668C455.642 184.43 455.657 184.953 455.705 185.207C455.753 185.46 455.895 185.873 456.149 186.475C456.657 187.411 457.148 187.982 457.624 188.188C458.084 188.394 459.083 188.585 460.606 188.759H464.539C465.395 188.759 466.172 188.775 466.902 188.823C467.615 188.87 468.139 188.838 468.488 188.759C468.9 188.585 469.201 188.521 469.376 188.569C469.55 188.616 469.963 188.68 470.645 188.759C471.073 188.934 471.644 188.965 472.357 188.886C473.087 188.807 473.785 188.807 474.451 188.886C475.133 188.886 475.561 188.87 475.735 188.823C475.894 188.775 476.275 188.712 476.877 188.632C477.21 188.553 477.448 188.569 477.575 188.696C477.702 188.823 477.892 188.807 478.146 188.632C478.4 188.458 478.606 188.236 478.781 187.934C478.955 187.633 479.082 187.443 479.161 187.364C479.336 187.11 479.542 186.555 479.795 185.714C480.049 184.858 480.176 184.223 480.176 183.795C480.176 182.955 480.192 182.177 480.24 181.448C480.287 180.734 480.303 180.036 480.303 179.354C480.303 178.419 480.351 177.594 480.43 176.88C480.509 176.151 480.557 175.453 480.557 174.771C480.477 173.598 480.382 172.614 480.303 171.853C480.224 171.092 480.129 170.584 480.049 170.33C479.97 169.823 479.907 169.379 479.859 168.998C479.811 168.618 479.859 168.126 479.922 167.539C480.002 167.19 480.113 166.683 480.24 166.001C480.366 165.335 480.43 164.526 480.43 163.59C480.509 163.003 480.557 162.369 480.557 161.687V159.657C480.557 158.975 480.541 158.341 480.493 157.738C480.446 157.151 480.43 156.517 480.43 155.835C480.43 155.153 480.351 154.503 480.176 153.868C480.002 153.234 479.922 152.584 479.922 151.902C479.843 150.966 479.859 150.141 479.986 149.412C480.113 148.698 480.176 148.207 480.176 147.953C480.002 147.54 479.907 147.223 479.859 147.001C479.811 146.795 479.922 146.303 480.176 145.542C480.351 145.114 480.43 144.733 480.43 144.4V143.766C480.43 143.512 480.604 143.211 480.937 142.878C481.286 142.529 481.572 142.196 481.825 141.863C482.174 141.435 482.46 140.816 482.714 140.007C482.967 139.214 483.189 138.469 483.348 137.787C483.618 137.105 484.03 136.439 484.633 135.757C485.045 135.329 485.457 134.98 485.838 134.678C486.219 134.377 486.488 134.012 486.663 133.6C486.996 132.744 487.36 131.855 487.741 130.92C488.122 130 488.613 129.096 489.2 128.255C489.628 127.573 489.993 127.034 490.279 126.606C490.58 126.178 490.818 125.75 490.976 125.337C491.405 124.576 491.706 123.957 491.88 123.482C492.039 123.022 492.213 122.578 492.388 122.149C492.721 121.309 492.927 120.69 493.022 120.31C493.102 119.929 493.355 119.485 493.784 118.978C493.942 118.724 494.243 118.423 494.672 118.089C495.1 117.756 495.385 117.36 495.56 116.948C495.734 116.519 495.877 116.059 496.004 115.552C496.131 115.029 496.369 114.489 496.702 113.887C496.955 113.474 497.288 113.062 497.717 112.681C498.145 112.301 498.525 111.904 498.859 111.476C500.048 109.367 500.778 107.924 501.031 107.162C501.111 106.988 501.174 106.687 501.222 106.258C501.253 105.846 501.364 105.497 501.539 105.243C502.046 104.323 502.49 103.689 502.871 103.34C503.252 103.007 503.489 102.531 503.569 101.945C503.902 100.327 503.394 99.3594 502.046 99.0264Z" fill="#F7D15A"/>
<path d="M534.067 177.832C533.813 177.15 533.543 176.706 533.242 176.5C532.941 176.278 532.544 175.929 532.037 175.405C530.847 174.486 529.896 173.82 529.182 173.439C528.453 173.058 527.295 172.868 525.677 172.868C525.09 172.868 524.599 172.836 524.218 172.741C523.837 172.662 523.267 172.789 522.505 173.122C521.665 173.471 521.11 173.74 520.856 173.946C520.602 174.168 520.253 174.517 519.841 175.025C519.159 175.707 518.667 176.373 518.382 177.007C518.08 177.642 517.843 178.292 517.668 178.974C517.51 179.656 517.399 180.354 517.351 181.067C517.319 181.797 517.462 182.622 517.795 183.541C517.89 183.89 518.176 184.303 518.699 184.826C519.207 185.334 519.777 185.809 520.412 186.285C521.046 186.745 521.681 187.157 522.315 187.49C522.949 187.823 523.393 188.077 523.647 188.252C523.822 188.331 524.107 188.426 524.535 188.505C524.963 188.585 525.645 188.632 526.565 188.632C527.755 188.553 528.5 188.458 528.801 188.379C529.087 188.299 529.452 188.125 529.88 187.871C530.562 187.443 531.228 186.983 531.91 186.475C532.592 185.968 533.147 185.365 533.559 184.699C533.988 184.096 534.257 183.51 534.384 182.907C534.511 182.32 534.622 181.765 534.701 181.258C534.796 180.163 534.574 179.021 534.067 177.832ZM537.889 108.812C537.714 108.383 537.651 108.003 537.699 107.67C537.73 107.321 537.794 106.687 537.889 105.751C537.968 105.085 537.984 104.323 537.952 103.467C537.905 102.626 537.889 101.865 537.889 101.183C537.889 100.676 537.841 100.01 537.762 99.2167C537.667 98.4079 537.508 97.6149 537.255 96.8537C537.001 96.0924 536.652 95.4422 536.24 94.8871C535.811 94.332 535.225 94.0624 534.447 94.0624C533.353 93.8879 532.592 93.8245 532.164 93.8721C531.735 93.9197 530.943 93.9355 529.753 93.9355C528.389 93.9355 527.152 94.0465 525.994 94.2527C524.852 94.4589 524.107 94.5699 523.774 94.5699C523.346 94.6492 522.949 94.6175 522.569 94.443C522.188 94.2686 521.792 94.1417 521.363 94.0624C520.935 93.8879 520.555 93.9197 520.222 94.1258C519.873 94.332 519.365 94.4906 518.699 94.5699C517.763 94.6492 517.066 94.7126 516.59 94.7602C516.13 94.8078 515.606 95.0774 515.004 95.5849C514.671 95.8386 514.449 96.0924 514.369 96.3461C514.29 96.5999 514.163 96.9012 513.989 97.2343C513.814 97.7418 513.814 98.3286 513.989 98.963C514.163 99.5973 514.322 100.248 514.496 100.93C514.576 101.183 514.512 101.611 514.306 102.198C514.1 102.785 513.989 103.34 513.989 103.848C513.989 104.53 514.1 105.101 514.306 105.56C514.512 106.036 514.702 106.433 514.877 106.782C514.956 107.194 514.94 107.622 514.813 108.05C514.687 108.463 514.544 109.272 514.369 110.461C514.29 110.715 514.227 111.016 514.179 111.349C514.131 111.682 514.163 111.936 514.243 112.11C514.322 112.285 514.449 112.729 514.623 113.443C514.798 114.172 514.924 114.997 515.004 115.933C515.004 117.106 515.051 118.327 515.131 119.549C515.21 120.786 515.464 121.991 515.892 123.164C515.987 123.593 515.987 124.084 515.892 124.639C515.813 125.179 515.765 125.797 515.765 126.479C515.86 127.066 515.939 127.684 516.019 128.319C516.114 128.953 516.193 129.445 516.273 129.778C516.273 131.808 516.621 133.854 517.288 135.884C517.288 136.058 517.335 136.439 517.414 137.026C517.51 137.612 517.541 138.247 517.541 138.929C517.636 140.546 517.795 141.641 518.049 142.243C518.223 142.656 518.239 143.084 518.112 143.512C517.985 143.94 517.922 144.48 517.922 145.162C517.922 145.415 517.969 145.923 518.049 146.684C518.144 147.445 518.239 148.238 518.382 149.031C518.509 149.84 518.651 150.601 518.826 151.331C518.985 152.045 519.111 152.536 519.207 152.79C519.207 152.964 519.159 153.282 519.08 153.741C518.984 154.201 518.984 154.645 519.08 155.074C519.159 155.756 519.333 156.39 519.587 156.977C519.841 157.579 520.047 158.087 520.222 158.515C520.729 159.784 521.49 160.545 522.505 160.799C523.013 160.973 524.25 161.053 526.185 161.053C527.977 160.973 529.119 160.847 529.626 160.672C530.134 160.498 530.689 160.117 531.276 159.53C531.704 159.023 532.053 158.515 532.354 157.992C532.655 157.484 532.846 156.723 532.925 155.708C532.925 155.121 532.877 154.582 532.798 154.122C532.719 153.662 532.719 153.297 532.798 153.044C532.973 152.711 533.115 152.314 533.242 151.902C533.369 151.474 533.432 150.76 533.432 149.745C533.528 148.888 533.591 148.048 533.623 147.192C533.67 146.351 533.781 145.59 533.94 144.908C534.035 144.321 534.178 143.623 534.384 142.814C534.606 142.006 534.749 141.308 534.828 140.705V138.929C534.828 138.342 534.876 137.866 534.955 137.533C535.05 137.2 535.098 136.819 535.098 136.391V135.249C535.098 134.821 535.066 134.441 535.034 134.107C534.987 133.759 535.003 133.505 535.098 133.346C535.098 131.903 535.304 130.333 535.732 128.636C535.891 128.208 536.049 127.795 536.176 127.367C536.303 126.939 536.366 126.273 536.366 125.337V123.164C536.366 122.403 536.398 121.69 536.493 121.008C536.652 119.739 536.826 118.787 537.001 118.153C537.159 117.519 537.207 116.821 537.128 116.059C537.033 115.203 537.001 114.299 537.001 113.316C537.001 112.332 537.128 111.524 537.381 110.842C537.54 110.334 537.714 110.001 537.889 109.827C538.048 109.652 538.048 109.319 537.889 108.812Z" fill="#F7D15A"/>
<path d="M191.091 34.5736C191.884 34.8432 192.01 34.8432 193.343 34.4467C195.468 33.7806 196.784 32.8608 198.116 30.8783C198.513 30.0854 200.495 25.3117 200.495 24.5187C200.495 24.1222 198.909 21.0772 198.513 20.5538C198.243 20.2842 197.847 20.0305 197.45 19.8877C196.927 19.6181 196.657 19.4913 195.722 19.6181C193.47 19.745 192.803 20.0146 191.757 21.0772C190.298 22.4094 188.712 25.0579 188.046 27.1672C187.776 27.8333 188.172 31.4017 188.442 32.3374C188.839 33.6696 189.774 34.193 191.091 34.5895V34.5736Z" fill="#F7D15A"/>
<path d="M141.958 61.1065C140.895 61.2333 139.833 62.2959 139.182 64.0246C139.056 64.548 138.516 65.3568 137.993 65.8801C137.073 66.9427 135.614 69.1948 134.948 70.3842C134.678 70.7807 134.425 71.3041 134.155 71.5737C133.885 71.8433 133.362 72.3667 133.092 72.9059C132.696 73.4292 132.157 74.2222 131.76 74.6346C131.364 75.0311 130.84 75.6971 130.698 76.0936C130.571 76.3632 130.032 77.1562 129.635 77.6796C129.112 78.0761 128.446 79.0118 127.906 79.5351C127.51 79.9316 126.844 80.7246 126.447 80.9942C126.051 81.3907 125.385 82.3264 124.988 82.9766C124.195 84.1661 123.926 84.4357 122.34 85.4983C121.277 86.1644 120.215 87.0842 119.818 87.3538C118.359 88.686 117.566 89.0825 115.71 89.8755C114.389 90.3195 113.199 90.4517 112.142 90.272C109.763 89.7486 108.827 88.9398 108.034 87.3538C107.638 86.5609 107.368 84.4357 107.511 80.5977C107.511 77.0293 108.574 73.9843 110.16 70.7966C110.16 70.527 111.888 66.1656 112.015 65.7691C112.285 64.8493 112.808 63.7867 112.935 63.5171C113.205 63.1206 113.458 62.3276 113.601 61.6615C113.728 61.1382 114.125 60.3293 114.267 59.9329C114.537 59.4095 114.933 58.4738 115.187 57.6808C115.314 56.6182 117.17 52.9071 117.836 51.5908C117.963 51.1943 118.898 49.2119 120.611 45.6276C121.8 43.2487 122.863 40.6002 123.386 39.0142C123.783 37.6821 124.179 37.2856 125.115 36.3657C126.574 34.9066 126.305 34.9066 133.188 35.0335C139.801 35.0335 139.944 35.0335 140.864 34.1137C141.133 33.7172 141.26 33.5903 141.133 32.7815C141.133 31.9885 141.006 31.7189 140.61 31.3224C139.42 30.4026 136.502 30.2598 135.043 30.2598C133.457 30.6563 130.666 30.3867 129.746 29.7365C129.08 29.34 128.953 28.8166 129.35 27.8809C129.746 26.8183 130.412 24.8359 130.682 24.0429C130.682 23.6464 131.205 22.9803 131.617 22.3142C132.537 21.1248 133.077 19.9353 133.346 18.6031C133.346 17.937 133.616 17.1441 133.87 16.7476C134.536 15.1616 133.996 13.7026 132.41 12.3862C131.744 11.9897 131.348 11.4664 131.348 11.4664C131.348 10.943 128.969 10.2769 128.303 10.2769C127.113 10.2769 126.051 10.8003 124.988 11.5933C124.719 11.9897 124.053 12.5131 123.799 12.6558C123.006 13.3219 122.34 14.3845 121.943 15.7009C121.816 16.367 121.277 17.5564 121.023 18.4763C120.627 19.2692 120.23 20.4587 120.104 20.9979C119.977 21.5213 119.707 22.3301 119.311 22.8535C119.041 23.3768 118.644 24.1857 118.518 24.709C118.248 25.3751 117.598 26.6915 116.789 27.754C115.06 30.5294 115.203 30.4026 110.033 30.133C109.731 30.133 109.478 30.1171 109.192 30.1012C109.446 29.8951 109.684 29.7206 109.906 29.6096C110.429 29.2131 110.699 28.8166 110.968 28.1505C111.492 26.8183 111.761 26.1681 112.285 25.6289C113.347 24.4394 113.347 22.8535 112.412 20.6014C111.619 18.8727 111.08 17.5564 111.08 16.8903C111.08 15.574 111.999 14.5114 114.125 13.5757C115.314 12.9096 115.98 12.3862 116.503 11.1968C117.17 10.1342 117.17 9.34122 117.027 8.67512C116.503 7.08918 115.171 6.15347 113.458 6.15347C112.539 6.15347 112.269 6.28035 111.603 6.67683C111.08 6.94645 110.271 7.34293 109.874 7.46981C108.542 7.86629 108.019 8.38965 106.56 10.2452C105.64 11.4347 105.1 11.9739 104.434 12.3704C103.911 12.64 103.372 13.0365 103.102 13.1633C102.833 13.433 100.85 15.9388 100.327 17.0013C100.057 17.2709 99.6607 17.7943 99.2642 18.1908C98.4712 18.8569 97.0122 21.2358 96.7426 22.0288C96.7426 22.2984 96.3461 23.0914 96.0765 23.8843C95.8069 24.5504 95.5531 25.4703 95.4104 26.0095C95.2835 27.3417 95.5372 29.0545 96.0765 29.9744C96.5522 30.8149 98.0906 32.274 99.0739 32.8608C99.1056 33.067 99.1532 33.2731 99.2484 33.4159C99.518 33.6855 101.5 34.8749 102.293 35.1445C102.959 35.4142 107.987 35.2714 109.842 35.0177C110.762 34.8908 111.032 34.8908 111.698 35.1445C112.887 35.6679 113.03 36.0644 112.887 38.1896C112.618 40.7112 112.094 42.1544 111.159 43.4866C110.096 44.8188 109.827 45.3422 109.573 46.5316C109.573 47.055 109.176 47.8638 108.907 48.3872C108.637 48.9105 107.987 50.6392 107.448 52.2252C104.53 59.9011 103.213 63.4854 102.69 64.1356C102.024 65.1982 100.438 68.6397 100.168 69.4327C100.168 69.956 99.7717 71.0186 99.3752 71.8116C98.9787 72.6046 98.4554 74.3332 98.043 75.5227C97.6307 76.7122 97.1232 77.9016 96.8536 78.1712C95.9337 79.4876 95.791 79.8999 95.5214 80.9466C95.3945 81.8665 95.2518 82.2788 94.7284 82.8022C93.9354 83.722 93.6658 84.3881 93.5389 86.2437C93.0156 90.7478 92.746 92.3337 92.0799 93.9196C91.5565 95.1091 91.4138 95.3787 91.5565 96.0448C91.6834 96.5682 91.6834 97.7735 91.8261 98.8202C91.8261 101.199 93.0156 105.307 94.998 106.623C95.2676 106.75 95.9179 107.289 96.3302 107.686C97.3928 108.479 97.9162 108.748 99.3752 109.018C100.041 109.018 100.834 109.145 100.961 109.287C101.231 109.414 102.42 109.414 103.879 109.287H106.528L108.257 108.368C109.842 107.702 111.968 106.385 113.284 105.196C115.013 104.133 115.536 103.61 116.456 102.278C116.725 101.881 117.122 101.358 117.376 101.215C117.503 100.945 118.042 100.422 118.311 99.8828C118.708 99.3594 119.501 98.5665 120.04 98.1541C120.563 97.7576 121.23 97.0915 121.499 96.5682C121.896 96.1717 122.831 94.9822 123.624 94.0465C124.417 93.1267 125.353 91.9214 125.749 91.5249C126.019 91.1284 126.542 90.4623 126.939 90.0658C127.462 89.5424 128.002 88.7336 128.525 87.5442C129.318 86.212 129.857 85.5617 131.047 84.2295C132.236 83.0401 132.775 82.2471 133.172 81.4541C133.965 79.7254 135.027 78.1395 136.09 77.2197C137.01 76.4267 137.279 76.0302 137.945 74.698C138.342 73.905 138.865 72.9693 139.278 72.5728C139.547 72.1763 140.197 71.3834 140.467 70.8442C140.864 70.1781 141.657 68.719 142.449 67.5295C143.909 65.2775 144.702 63.5647 144.702 62.7717C144.702 61.8518 143.116 60.9161 141.926 61.043L141.958 61.1065Z" fill="#F7D15A"/>
<path d="M263.489 60.9637C262.569 60.9637 261.903 61.3602 261.363 62.0263C261.094 62.4228 260.571 62.8193 260.301 62.9461C259.904 63.2157 259.508 63.7391 259.238 64.1356C257.51 67.1806 257.256 67.4502 256.193 68.5128C255.131 69.4327 254.861 69.845 253.672 72.3508C253.545 72.6204 252.879 73.4134 252.355 74.0795C250.627 75.935 249.437 77.3941 249.041 78.3139C248.771 78.8373 248.248 79.3765 247.582 79.8999C246.916 80.4233 246.249 81.0893 245.996 81.4858C245.472 82.2788 243.744 83.611 243.22 83.611C242.427 83.611 242.031 83.0876 241.492 81.359C241.365 80.6929 240.825 79.1069 240.159 78.0443C239.636 76.8549 239.24 75.7923 239.097 75.5227C238.97 74.8566 236.448 71.5578 234.593 69.4327C233.8 68.6397 232.864 67.5771 232.468 67.1806C232.198 66.7841 230.342 64.9286 228.503 63.073C224.792 59.3619 223.206 57.5063 222.286 55.5239C221.62 54.2076 221.493 53.938 221.493 53.0023C221.493 51.9397 221.62 51.6701 222.413 50.2269C223.206 48.4982 224.141 47.7052 225.585 46.6585C227.171 45.3263 228.899 44.8029 230.216 45.1994C230.882 45.469 231.278 45.8655 231.532 46.9281C231.532 47.3246 232.055 48.3872 232.452 49.1801C232.848 49.9731 233.245 51.1626 233.514 51.8287C234.434 55.0006 235.37 55.5398 238.542 55.9363C240.524 56.2059 240.667 56.2059 241.856 55.6667C243.046 55.0006 243.315 54.6041 244.378 52.7485C245.171 51.2894 245.441 49.7035 245.298 47.055C245.298 45.0725 244.901 44.4064 243.173 42.8205C242.507 42.2971 241.84 41.3614 241.587 40.9649C240.27 38.8398 237.479 38.1895 234.973 38.1895C234.054 38.1895 233.118 38.3164 232.198 38.586C231.532 38.8556 230.612 38.9825 229.946 38.9825C228.883 38.9825 227.297 39.379 226.504 39.9024C226.235 40.0292 225.442 40.4257 224.776 40.6953C222.651 41.4883 219.875 43.3439 219.082 44.5333C218.162 45.8655 217.75 46.262 217.1 46.5158C216.434 46.9122 214.324 48.6409 213.262 49.6876C212.199 50.8771 211.01 52.463 210.486 53.6525C210.09 54.3186 209.424 55.1116 208.631 55.9045C207.838 56.6975 207.299 57.3636 207.172 57.6332C207.172 58.0932 205.919 60.2818 204.967 61.8201C204.634 62.1532 204.317 62.5497 204.127 62.9303C203.857 63.3268 203.461 63.9929 203.207 64.3893C202.937 64.7858 202.541 65.5788 202.414 65.9753C202.35 66.118 202.287 66.2608 202.208 66.4035C201.748 67.0379 201.272 67.6405 200.812 68.2273C200.733 68.3542 200.638 68.4969 200.558 68.6238C199.639 69.5437 198.703 70.7331 198.449 71.2723C198.179 71.7957 197.656 72.5887 197.386 73.001C197.117 73.3975 196.593 74.0636 196.324 74.4601C196.197 74.9835 195.531 75.9192 195.008 76.4425C194.484 77.1086 193.818 78.1712 193.422 78.6946C193.025 79.0911 192.486 79.7572 192.232 80.0268C191.836 80.2964 191.312 81.0893 190.773 81.7554C190.25 82.5484 189.584 83.3414 189.187 83.611C188.664 84.0075 187.601 85.0701 186.665 85.9899C185.206 87.449 182.827 89.1618 180.702 89.1618C180.036 89.1618 179.64 88.7653 179.243 88.242C178.72 87.449 178.577 86.656 178.45 84.5308C178.323 82.4057 178.72 79.1069 179.37 77.521C179.64 76.8549 179.893 75.7923 180.036 74.9993C180.163 74.2063 180.56 72.8742 180.829 72.2239C181.099 71.5578 181.353 70.638 181.353 70.3684C181.353 69.7023 181.749 68.9093 182.272 68.1163C182.542 67.8467 182.796 67.0537 183.065 66.1339C183.589 64.0087 183.858 63.2157 184.398 62.6924C185.064 62.169 185.46 61.3761 185.984 59.6474C186.11 58.8544 186.903 57.1257 187.443 55.6667C187.712 55.1433 189.822 50.3696 189.822 49.8462C189.948 49.7194 190.345 48.9264 190.741 47.9907C192.327 44.01 191.534 41.3773 188.489 40.5685C186.761 40.172 186.11 40.2989 184.778 40.8381C182.399 42.1544 182.13 43.3597 181.464 45.7386C181.194 46.262 180.94 46.9281 180.797 47.3246C180.528 48.1176 179.338 51.0357 178.672 52.2252C178.403 52.7485 178.006 53.5573 178.006 53.9538C177.879 54.3503 177.483 55.1433 177.086 55.8094C176.817 56.3328 176.42 57.1416 176.42 57.5381C176.293 57.9346 176.024 58.8703 175.627 59.6632C175.358 60.5831 175.104 61.2492 175.104 61.3919C175.104 61.7884 174.581 63.1206 174.184 63.7708C173.914 64.1673 173.518 64.9603 173.391 65.4995C172.995 67.3551 171.932 70.0036 171.536 70.527C171.012 71.0503 170.203 72.9059 169.553 74.6346C169.426 75.1579 169.03 76.0936 168.76 76.8866C168.491 77.6796 168.094 78.7421 167.967 79.4082C167.84 80.2012 167.571 80.9942 167.301 81.3907C166.635 82.3105 166.239 83.2462 165.842 84.3088C165.715 84.8322 165.176 85.8948 164.779 86.6877C164.256 87.7503 163.86 88.8129 163.717 89.8596C163.447 90.9222 163.193 91.8421 162.654 92.635C162.131 93.5549 161.988 94.221 161.734 95.5532C161.608 96.473 161.465 97.5356 161.338 97.9321C160.941 99.2643 160.815 101.5 161.068 102.96C162.131 107.194 163.051 107.86 167.158 109.05C167.824 109.319 168.744 109.446 169.141 109.446C170.203 109.446 172.709 108.653 174.565 107.86C177.086 106.528 177.737 106.131 178.403 104.942C178.799 104.276 179.465 103.626 179.862 103.356C181.051 102.563 183.303 100.184 185.159 97.6625C186.079 96.473 187.141 95.2836 187.411 95.0139C187.68 94.8871 188.473 93.9514 188.997 93.1584C190.059 91.8421 191.249 90.383 192.169 88.9239C192.565 88.5274 193.089 87.7345 193.358 87.1952C193.628 86.5291 194.151 86.0058 194.817 85.4666C195.483 84.8005 195.737 84.404 196.149 83.611C196.276 82.9449 196.816 82.1519 197.482 81.359C198.005 80.566 198.814 79.6303 198.941 79.2338C199.21 78.8373 199.734 78.0443 200.13 77.6478C200.527 77.1245 201.193 76.1888 201.446 75.5227C201.716 74.9993 202.113 74.3332 202.366 74.0636C202.541 73.8892 202.89 73.4134 203.254 72.89C203.254 72.89 203.27 72.89 203.286 72.8742C204.079 72.2081 207.124 68.1005 208.187 66.2608C209.107 64.5321 210.439 62.9461 211.232 62.5497C211.898 62.28 212.294 62.4228 213.214 63.073C214.007 63.866 215.99 66.911 216.656 68.2432C216.783 68.7666 217.322 69.8291 217.718 70.3684C217.988 71.0345 218.511 71.8274 218.781 72.3508C219.05 72.7473 219.304 73.1438 219.447 73.1438C219.843 73.2706 220.906 74.8724 221.429 76.0619C221.699 76.728 222.222 77.6478 222.619 78.1871C223.555 79.2496 223.808 79.773 224.078 80.9625C224.348 81.4858 224.601 82.1519 224.871 82.5484C225.537 83.4683 225.791 84.0075 226.06 85.5934C226.584 87.9724 226.584 88.9081 226.187 90.7636C225.791 93.1425 225.521 93.9355 224.855 94.8712C224.585 95.2677 224.332 95.9338 224.189 96.3303C223.792 97.6625 218.369 102.547 217.036 102.944C216.64 103.071 215.704 103.34 215.181 103.61C213.452 104.403 212.659 104.276 211.612 103.213C210.423 101.897 210.55 100.168 211.882 98.4554C212.278 98.059 212.675 97.5356 212.802 97.266C213.071 96.7426 214.261 93.0315 214.531 92.0958C214.657 91.5724 214.927 90.5099 215.324 89.8438C216.386 87.7186 216.243 87.0684 214.531 84.5467C213.611 83.0876 212.945 82.5643 212.009 82.4215C211.612 82.2947 210.677 82.1519 210.153 81.8982L208.964 81.6286L207.108 82.0251C204.587 82.5484 202.081 83.611 200.225 85.4666C199.829 85.7362 199.432 86.3864 199.163 86.656C199.036 87.0525 198.497 87.8455 197.973 88.242C195.848 90.3671 194.928 94.9981 194.928 98.0431C194.928 100.422 195.325 103.213 197.307 104.926C197.704 105.196 198.497 105.846 199.036 106.258C200.622 107.717 201.557 108.241 202.35 108.51C202.747 108.51 203.54 108.78 204.206 109.034C205.935 109.43 207.648 109.7 209.376 109.7C210.439 109.7 211.628 109.573 213.214 109.43C214.007 109.303 214.8 109.303 214.943 109.303C215.609 109.573 219.05 109.034 219.843 108.637C220.24 108.51 221.303 108.114 222.222 107.844C224.601 107.051 227.25 105.989 228.312 105.465C228.836 105.196 229.645 104.799 230.041 104.672C230.834 104.276 231.77 103.61 235.211 100.311C236.401 99.1215 237.987 97.6625 238.78 96.8695C242.094 93.8245 244.997 90.9063 245.789 89.9865C246.186 89.3204 246.979 88.4006 247.375 87.8613C247.772 87.338 248.692 86.4023 249.231 85.6093C249.897 84.9432 250.69 84.0233 250.96 83.4841C251.356 82.9608 251.88 82.1519 252.419 81.7554C252.942 81.2321 253.608 80.2964 254.005 79.773C254.401 79.1069 255.194 78.1871 255.591 77.7906C256.257 77.2672 256.653 76.6011 257.05 75.6654C257.573 74.6028 257.97 74.0795 258.905 73.2865C259.571 72.6204 260.222 71.8274 260.761 71.0345C261.157 70.2415 261.95 69.3058 262.347 68.7824C263.267 67.593 265.122 63.8818 265.265 62.962C265.392 62.2959 265.265 62.169 264.742 61.6298C264.218 61.1064 264.075 60.9637 263.409 60.9637H263.489Z" fill="#F7D15A"/>
<path d="M470.93 60.9637C468.948 60.9637 467.219 63.3426 466.426 64.9444C466.157 65.4678 465.633 66.4035 465.237 66.8C464.967 67.1965 464.444 68.1322 464.047 68.7824C463.651 69.7023 462.985 70.5111 462.065 71.5578C461.272 72.3508 460.336 73.5403 459.813 74.2064C459.416 74.9993 458.227 76.1888 457.291 77.1245C456.371 78.0443 455.436 79.1069 455.166 79.3765C453.184 82.4215 449.742 85.4666 446.697 87.449C446.031 87.9723 443.129 88.7812 442.193 88.7812C441.527 88.9081 440.877 88.2578 440.607 87.3221C440.48 86.4023 440.734 84.5467 441.273 82.6912C441.543 81.8982 441.797 80.9625 441.939 80.4391C442.336 78.98 443.525 75.935 443.922 75.2689C444.191 74.8724 444.445 74.0795 444.715 73.4134C445.111 71.6847 446.047 69.7023 446.697 68.3859C447.094 67.7198 447.49 66.9269 447.49 66.5304C447.617 66.007 448.013 65.0713 448.283 64.2783C448.553 63.4854 449.076 62.1532 449.473 61.1064C449.869 60.0439 450.266 58.8544 450.392 58.4579C450.519 58.0614 450.789 57.2685 451.185 56.6024C451.709 55.5398 451.709 55.2702 451.709 54.3503C451.709 53.6842 451.836 52.7644 452.105 52.0983C452.502 50.5123 452.502 48.2603 452.105 45.6118C451.043 40.3147 446.285 38.9984 441.638 38.9984C439.116 38.9984 438.593 38.9984 437.927 39.268C437.53 39.3949 436.468 39.7914 435.675 39.9341C434.755 40.2037 433.692 40.6002 433.296 40.8539C432.106 41.3773 429.728 43.106 428.522 44.1686C428.126 44.6919 427.333 45.358 426.794 45.6276C426.397 45.8972 425.874 46.4206 425.604 46.8171C425.477 47.0867 424.938 47.6101 424.542 48.0065C422.956 49.196 422.559 49.7352 422.02 50.6551C421.497 51.7177 419.768 53.4305 419.371 53.4305C418.705 53.4305 418.705 52.0983 419.102 50.7819C419.371 50.1159 419.625 47.8638 419.768 46.0241C419.768 45.2311 419.244 44.6919 417.785 43.8989L416.723 43.3756L415.137 43.7721C411.965 44.4382 409.84 46.5475 409.443 49.7352C409.174 50.9247 409.047 51.4639 407.715 53.8428C407.318 54.5089 406.795 55.5715 406.525 56.3645C406.256 57.0306 406.002 57.9504 405.732 58.3469C405.383 59.806 404.987 61.2175 404.479 62.5972C403.702 63.4061 403.1 64.4211 402.687 65.2299C402.021 66.8158 400.308 68.941 398.722 70.527C398.199 71.0503 397.39 71.986 397.136 72.3825C396.74 72.9059 395.804 73.9685 395.011 74.9042C394.091 75.824 393.283 76.7597 392.886 77.4258C392.22 78.758 391.3 79.6779 390.111 80.4708C389.445 80.8673 388.255 81.803 387.066 82.9925C385.48 84.7212 385.083 85.1176 383.894 85.641C383.228 85.9106 382.165 86.5609 381.515 86.9732C378.866 88.5592 377.138 89.4949 375.948 89.7486C375.282 89.8755 374.489 90.1451 374.219 90.4147C373.823 90.5416 373.157 90.8112 372.634 90.9381C371.967 91.2077 371.174 91.4614 370.508 91.731C369.715 92.1275 369.446 92.1275 368.256 92.0006C367.463 91.8738 366.131 91.8738 365.084 91.8738C360.977 91.6042 358.471 91.2077 355.553 88.1627C353.697 86.434 353.57 86.1802 353.428 85.3873C353.301 84.8639 353.031 84.0551 352.904 83.6586C352.508 82.596 352.508 81.5334 352.904 80.6136C353.301 79.9475 353.697 79.2814 353.824 79.2814C354.221 79.2814 356.742 81.5334 357.266 82.1995C358.455 83.7855 361.246 84.7212 364.942 84.7212C366.274 84.7212 366.528 84.5943 367.321 84.3247C367.844 84.0551 368.907 83.6586 369.7 83.5317C371.555 83.1352 371.682 83.1352 372.348 82.4691C372.475 82.1995 373.268 81.6761 373.934 81.4065C374.854 81.0101 375.266 80.6136 375.916 79.9475C376.44 79.4241 377.106 78.758 377.645 78.4884C378.708 77.965 380.96 75.713 381.88 74.1112C382.276 73.4451 383.069 72.3825 383.862 71.5895C385.591 69.8609 386.907 67.3551 387.97 65.2299C388.763 64.3101 389.032 63.644 389.952 59.4095C390.349 57.6808 390.872 56.2376 391.411 54.9054C391.934 53.8428 391.934 53.7159 391.934 51.7335V48.1651C392.061 46.9757 392.061 46.8329 391.665 45.9131C391.395 45.247 391.268 44.454 391.142 43.9307C391.015 43.2646 390.872 42.8681 390.475 42.4716C389.682 41.2821 388.747 40.0927 387.304 39.6962C386.78 39.6962 385.844 39.4266 385.321 39.1728C384.132 38.6495 383.339 38.6495 382.149 39.046C381.626 39.1728 380.96 39.3156 380.563 39.3156C380.167 39.3156 379.374 39.4424 378.708 39.5852C378.184 39.7121 376.852 39.9817 375.932 40.1085C373.95 40.505 373.284 40.6319 372.364 41.4407C372.094 41.5676 371.174 42.1068 370.239 42.6302C369.319 43.0267 368.256 43.6928 367.717 44.0893C367.194 44.6126 366.385 45.1518 365.988 45.4215C363.07 47.277 357.123 53.0974 355.267 56.0156C354.871 56.5389 354.205 57.4746 353.681 57.998C353.158 58.5214 352.349 59.5839 351.953 60.25C350.494 62.5021 350.367 62.629 349.304 63.9612C348.638 64.6273 347.845 65.6898 347.576 66.3401C347.179 66.8634 346.513 67.926 345.99 68.5921C345.054 69.512 344.927 69.7816 344.657 70.971C344.388 72.0336 343.991 72.8266 343.198 74.016C342.405 75.2055 342.136 75.8716 342.009 76.395C342.009 76.506 341.993 76.617 341.977 76.728C341.168 77.6479 340.724 78.2664 340.566 78.7739C340.439 79.1703 339.376 80.3598 338.314 81.5493C337.251 82.6119 336.189 83.8013 336.062 84.1978C335.396 84.9908 331.827 88.0358 330.891 88.575C330.368 88.8446 329.829 88.8446 329.306 88.8446C328.243 88.8446 327.18 88.4481 326.784 87.782C326.387 87.1159 325.864 84.2137 325.864 83.1511C325.864 82.6277 325.864 81.9616 325.991 81.4224C326.118 81.0259 326.261 80.3598 326.261 80.0902C326.261 79.6937 326.387 78.9007 326.657 78.2346C326.784 77.5686 327.053 76.6487 327.053 76.1095C327.053 75.5703 327.45 74.6504 327.72 74.1271C327.989 73.6037 328.386 72.3984 328.513 71.6054C328.639 70.8124 329.036 69.7498 329.448 69.2265C329.718 68.5604 330.114 67.6405 330.368 66.8476C330.495 66.1815 331.034 65.1189 331.288 64.3259C332.874 61.154 333.667 58.902 333.81 57.8394C333.936 56.3803 333.936 56.2535 334.872 55.3178C335.396 54.6517 335.792 53.9856 335.935 53.4622C336.062 52.9388 336.458 52.2727 336.728 51.7335C336.997 51.337 337.521 50.1476 337.79 49.085C338.187 48.0224 338.71 46.8329 339.107 46.3096C339.376 45.7862 339.9 44.5809 340.169 43.7879C340.962 41.9324 343.611 36.5084 344.404 35.4459C344.927 34.6529 345.197 34.1295 345.466 32.7973C345.863 31.6079 345.99 31.0687 346.529 30.5453C346.799 30.1488 347.195 29.3558 347.449 28.8166C347.845 27.754 348.369 26.6914 349.177 25.502C349.304 25.2324 349.97 23.916 350.51 22.7266C351.033 21.5371 351.842 20.0781 352.096 19.5547C352.492 19.0313 353.015 18.0956 353.158 17.6991C353.428 17.3027 353.824 16.6366 354.221 16.2401C354.49 15.9705 354.887 15.0506 355.156 14.3845C355.426 13.5915 356.076 12.1325 356.742 11.0699C358.075 8.81785 358.201 8.02488 358.201 6.2962C358.201 4.31377 357.805 3.5208 355.823 1.79212C355.03 0.999148 354.094 0.333051 353.84 0.206175C353.317 -0.0634354 351.318 -0.0634354 350.129 0.206175C349.336 0.333051 348.94 0.602661 348.543 0.999147C348.147 1.39563 347.623 1.79212 347.211 1.919C346.545 2.44236 343.642 8.1359 343.642 8.67512C343.642 8.67512 343.119 9.99145 342.453 11.5933C340.471 16.7634 340.074 17.6833 339.931 18.6031C339.804 19.1265 339.535 19.9353 339.265 20.3318C338.996 20.8552 338.599 21.7909 338.472 22.3142C338.203 22.9803 337.806 23.9002 337.552 24.4394C337.156 24.9628 336.617 25.8985 336.363 26.6914C336.093 27.4844 335.697 28.6739 335.3 29.4669C335.031 30.1329 334.634 31.4493 334.507 32.1154C334.238 32.9084 333.841 33.9709 333.588 34.4943C333.191 34.8908 332.921 35.8265 332.795 36.4767C332.271 38.7288 331.732 39.5217 330.273 39.5217C329.876 39.5217 329.21 39.5217 328.544 39.2521C327.836 38.9878 326.995 38.9455 326.023 39.1253C324.96 39.2521 324.437 39.3949 323.897 39.2521C322.169 38.8556 319.79 39.2521 317.284 40.4416C313.446 42.1703 313.05 42.424 311.591 43.8831C310.671 44.6761 309.862 45.469 309.212 45.7386C307.626 46.6585 303.248 50.1158 302.329 51.9555C302.059 52.4789 301.536 53.145 301.266 53.4146C300.87 53.6842 300.346 54.3345 299.934 54.7468C299.664 55.1433 298.871 56.2059 298.078 56.9988C296.619 58.5848 295.16 60.4404 294.764 61.7725C294.494 62.169 294.24 62.6924 293.844 62.962C293.574 63.2316 293.051 63.755 292.654 64.2783C291.861 65.0713 289.482 68.2591 289.213 69.3058C288.816 70.8917 288.42 71.5578 287.357 72.7473C286.564 73.6671 286.025 74.476 286.025 75.2689C286.025 75.3958 285.629 76.1888 285.105 76.8549C284.582 77.6479 284.043 78.7104 283.916 79.2338C283.519 80.2964 282.98 81.4858 281.664 84.2612C280.998 85.4507 280.601 86.5133 280.332 87.7027C280.205 88.4957 279.808 89.8279 279.539 90.4781C279.269 91.1442 279.015 91.8103 279.015 91.9372C279.015 92.0641 278.888 92.9998 278.619 93.9196C278.095 95.9021 277.953 97.2343 277.826 99.0898C277.699 100.818 277.826 101.215 278.619 103.467C279.285 105.323 280.078 106.512 281.394 107.575C282.98 109.034 283.123 109.034 284.566 108.907C285.629 108.78 286.025 108.78 286.818 109.176C287.881 109.573 288.404 109.573 289.34 109.176C289.863 109.05 290.799 108.653 291.592 108.51C293.574 107.844 294.51 107.321 297.809 104.133C298.602 103.34 299.934 102.278 300.584 101.881C301.504 101.215 302.043 100.549 302.836 99.5022C303.359 98.7092 304.422 97.5197 305.215 96.584C306.008 95.7911 306.801 94.8553 306.944 94.6016C307.467 93.6817 308.53 93.539 308.799 94.4747C308.799 94.6016 308.926 95.3946 308.926 96.2034C309.053 97.266 309.053 97.7893 308.657 98.8519C308.387 100.041 308.387 100.581 308.387 101.897C308.783 104.276 309.053 105.735 310.909 107.59C311.432 108.114 314.08 109.446 314.873 109.573C316.206 109.969 317.918 109.573 320.567 108.51C320.963 108.241 321.756 108.114 322.423 107.987C323.342 107.717 323.485 107.717 324.801 106.258C325.594 105.465 327.323 103.737 328.513 102.42C331.034 100.041 333.81 96.5999 334.872 94.6016C335.221 93.8879 335.903 93.0791 336.601 92.2544C336.458 93.3011 336.474 93.6976 336.601 94.332C336.728 94.8553 336.728 96.0607 336.728 96.8536C336.728 100.168 338.06 104.403 341.232 105.989C341.898 106.258 342.691 106.782 343.087 107.051C343.611 107.448 344.15 107.844 344.277 107.971C344.8 108.241 346.798 108.637 349.177 108.764C350.24 108.891 351.953 109.161 352.889 109.43C353.951 109.557 354.871 109.7 355.267 109.7C357.123 109.7 359.772 109.43 361.484 108.907C362.817 108.383 364.926 107.717 366.115 107.448C367.574 107.178 370.223 105.862 371.285 105.069C371.809 104.672 372.475 104.276 373.014 104.149C374.077 103.752 374.473 103.483 375.79 102.42C377.249 101.231 378.311 100.438 379.77 99.6449C381.229 98.8519 381.356 98.8519 382.419 97.3929C383.085 96.5999 383.608 96.2034 384.544 95.6642C385.733 94.9981 385.876 94.8712 387.859 92.746C388.525 91.9531 389.714 90.7636 390.238 90.0975C390.904 89.4314 391.697 88.3688 392.22 87.8455C392.743 87.1794 393.552 86.2595 394.202 85.5934C394.868 85.0701 395.535 84.1344 395.788 83.611C395.947 83.3097 396.232 82.929 396.581 82.5167C396.581 82.5167 396.581 82.5326 396.581 82.5484C396.185 83.8806 395.788 85.4666 395.392 86.7829C395.392 87.1794 394.995 88.1151 394.726 88.6384C393.933 89.9706 392.87 93.1425 392.347 95.3946C392.347 95.6642 392.077 96.3144 391.823 96.8536C391.554 97.377 391.3 98.3127 391.157 98.8361C391.03 99.5022 390.761 100.422 390.364 101.088C390.095 101.611 389.698 102.817 389.445 103.61C389.048 104.926 388.921 105.196 389.175 105.989C389.571 108.241 390.095 108.764 392.347 109.303C394.472 109.827 394.995 109.7 396.058 108.78C396.978 107.987 397.517 106.924 397.913 105.608C397.913 105.085 398.04 104.545 398.183 104.419C398.183 104.292 398.58 103.752 398.976 103.229C399.769 102.167 401.101 99.7876 401.101 99.2643C401.101 98.7409 401.498 97.8052 402.021 97.1391C402.814 96.3461 404.146 93.8245 404.67 92.5082C405.463 90.5257 407.715 86.0216 409.047 84.0392C409.57 83.1194 410.236 82.0568 410.379 81.5176C410.506 80.9942 410.902 80.0585 411.299 79.662C411.568 79.1386 411.965 78.4725 412.092 78.076C412.488 77.0135 412.758 76.617 413.551 75.5544C414.217 74.8883 414.471 74.2222 414.74 73.6989C415.137 72.2398 415.803 71.1772 416.723 69.8609C417.389 69.0679 417.785 68.2749 418.055 67.6088C418.182 66.8158 418.578 66.2925 419.118 65.6264C419.514 65.2299 420.037 64.4369 420.18 64.0404C420.307 63.644 420.704 62.9779 420.973 62.7083C421.243 62.3118 422.036 61.1223 422.702 60.0597C423.764 58.4738 424.161 58.0773 424.954 57.5381C425.477 57.2685 426.286 56.6182 426.683 56.079C427.206 55.4129 427.745 54.8895 428.538 54.6199C429.204 54.2234 430.267 53.7001 430.917 53.4305C432.106 52.7644 432.249 52.7644 433.835 52.7644C435.151 52.7644 435.564 52.7644 436.087 53.1609C437.15 53.6842 437.419 54.2234 437.419 56.2059V57.9346L436.357 60.3135C435.691 61.6457 435.294 63.0889 435.167 63.6281C435.167 64.1515 434.771 64.9603 434.247 66.007C433.851 66.8 433.328 67.8626 433.185 68.3859C432.788 69.5754 432.392 70.3684 431.726 71.3041C431.456 71.7006 431.202 72.3667 431.06 72.89C430.79 73.4134 430.267 74.7456 429.601 75.8082C428.935 76.8707 428.268 78.0602 428.142 78.4567C428.015 78.98 427.476 79.9157 427.222 80.5818C426.825 81.2479 426.159 82.9608 425.763 84.293C425.366 85.6252 424.573 87.6076 424.034 88.6702C422.575 91.5883 422.052 93.6976 421.909 97.0122C421.782 100.454 421.782 101.374 422.178 102.579C422.305 102.975 422.448 103.911 422.575 104.434C422.845 105.624 423.368 106.813 424.304 107.353C426.159 108.812 429.87 110.271 432.376 110.271C433.962 110.271 435.421 109.747 437.404 108.685C438.196 108.161 439.386 107.495 440.179 107.099C440.845 106.702 441.765 106.036 442.161 105.513C444.286 103.388 446.142 101.278 447.982 99.0264C448.648 98.3603 449.441 97.2977 449.71 96.7743C450.107 95.9814 450.63 95.1884 451.836 94.1258C453.025 92.9364 453.818 92.0006 454.754 90.5574C455.42 89.4949 456.34 88.4323 456.609 88.1785C456.879 87.9089 457.402 87.1159 457.941 86.4498C458.338 85.7837 458.861 85.1335 459.004 84.8639C459.274 84.5943 459.797 83.8013 460.336 83.0083C460.733 82.2154 461.399 81.2797 461.795 80.7563C462.192 80.3598 462.858 79.2972 463.524 78.6311C464.047 77.8382 464.856 76.6487 465.38 75.9826C465.903 75.1896 466.569 74.2539 466.839 73.7306C467.108 73.2072 467.632 72.2715 468.171 71.6054C469.503 69.623 471.216 67.1013 471.343 66.4352C471.47 66.1656 471.866 65.3726 472.136 64.9762C473.595 62.851 472.659 60.9954 470.946 60.9954L470.93 60.9637ZM322.66 61.8994C322.391 62.962 321.867 63.755 321.201 64.8176C320.805 65.214 320.408 65.8801 320.282 66.2766C320.012 66.9427 319.362 67.7357 317.236 71.0345C316.444 72.2239 315.508 73.8099 315.254 74.476C314.858 75.1421 314.461 75.935 314.065 76.2046C313.795 76.4743 312.732 77.9333 311.813 79.2497C309.434 82.4215 305.199 87.5917 301.345 89.0508C300.425 89.4473 299.617 89.7169 299.49 89.7169C298.966 89.7169 296.445 87.5917 296.048 86.7988C295.921 86.4023 295.652 85.3397 295.525 84.4198C295.128 82.4374 295.255 81.8982 296.318 77.9333C297.238 74.2222 297.904 71.9702 298.57 71.0503C298.966 70.527 299.49 69.1948 299.886 68.1322C300.283 67.0696 300.679 65.8801 300.806 65.6105C300.933 65.3409 301.472 64.6907 301.869 64.1515C302.392 63.6281 303.201 62.4228 303.724 61.6298C304.248 60.8368 305.183 59.6474 305.849 58.8544C306.516 58.1883 307.182 57.1257 307.578 56.6024C307.848 56.079 308.498 55.2702 309.037 54.7468C309.561 54.2234 310.893 52.7644 312.082 51.4322C314.207 49.307 316.856 46.9281 317.903 46.4047C318.172 46.2779 318.822 46.0083 319.235 45.8814C319.631 45.7545 320.424 45.4849 320.963 45.2153C322.153 44.8188 323.739 44.6919 324.405 44.9457C325.198 45.0725 326.134 46.0083 326.53 46.9281C326.8 47.3246 326.927 47.9907 326.927 50.1C327.053 52.352 327.053 52.7485 326.8 53.145C325.88 54.7309 323.231 60.4245 322.692 61.8836L322.66 61.8994ZM360.913 60.4404C361.58 59.3778 362.372 58.3152 362.499 58.0614C362.626 57.6649 363.023 57.2685 363.292 56.9988C363.562 56.7292 364.212 55.9363 365.021 55.0164C367.4 52.0983 368.589 50.9088 369.525 50.2427C370.191 49.8462 370.715 49.3229 371.111 48.9105C371.555 48.2021 372.702 47.3616 374.553 46.3889C376.678 45.1994 379.976 43.7404 382.498 43.7404C383.83 43.4707 384.354 43.6135 385.67 44.8029C387.002 45.8655 387.002 46.1351 387.002 49.307C387.002 51.9555 387.002 52.2252 386.606 53.4146C386.336 54.0807 386.209 54.8737 386.082 55.397C385.813 56.7292 384.623 59.5046 383.434 60.4245C383.037 60.6941 382.514 61.3443 382.244 61.8836C381.721 62.6765 381.451 62.9461 379.199 64.4052C376.678 66.2608 376.82 66.1339 373.633 66.9269C372.967 67.0537 371.904 67.3233 371.254 67.593C370.334 67.8626 369.668 67.8626 368.732 67.8626C368.066 67.7357 367.273 67.8626 366.877 67.9894C366.48 68.1163 365.021 68.3859 363.705 68.5128C362.372 68.7824 360.533 69.1789 359.74 69.4327C358.154 69.956 356.964 69.956 356.695 69.7023C356.425 69.4327 356.425 68.6397 356.695 67.8467C356.964 67.5771 357.218 66.6573 357.488 65.9912C358.011 64.5321 358.82 63.2158 360.929 60.4245L360.913 60.4404Z" fill="#F7D15A"/>
</g>
<defs>
<clipPath id="clip0_1_174">
<rect width="538" height="190.409" fill="white"/>
</clipPath>
</defs>
</svg>
